SplineFontDB: 3.2
FontName: CSLSans-BoldItalic
FullName: CSL Sans Bold Italic
FamilyName: CSL Sans
Weight: Bold
Copyright: Copyright (c) 2019 IBM Corp. with Reserved Font Name "Plex"\n\nCopyright (c) 2019 The HMI Sans Project Authors (https://github.com/somegoodpixels/hmi-sans)\nCopyright (c) 2021 The CSL Sans Project Authors (https://github.com/cssobral2013/CSL-Sans)\nThis Font Software is licensed under the SIL Open Font License, Version 1.1.\nThis license is copied below, and is also available with a FAQ at: http://scripts.sil.org/OFL.
Version: 2.001;January 31, 2022;FontCreator 14.0.0.2808 64-bit
ItalicAngle: -11
UnderlinePosition: -225
UnderlineWidth: 100
Ascent: 800
Descent: 200
InvalidEm: 0
sfntRevision: 0x00020041
LayerCount: 2
Layer: 0 1 "Back" 1
Layer: 1 1 "Fore" 0
XUID: [1021 651 537639564 28111]
StyleMap: 0x0021
FSType: 0
OS2Version: 4
OS2_WeightWidthSlopeOnly: 0
OS2_UseTypoMetrics: 0
CreationTime: 1550580418
ModificationTime: 1643660383
PfmFamily: 81
TTFWeight: 700
TTFWidth: 5
LineGap: 0
VLineGap: 0
Panose: 0 0 8 0 0 0 0 0 0 0
OS2TypoAscent: 1000
OS2TypoAOffset: 0
OS2TypoDescent: -220
OS2TypoDOffset: 0
OS2TypoLinegap: 0
OS2WinAscent: 1000
OS2WinAOffset: 0
OS2WinDescent: 220
OS2WinDOffset: 0
HheadAscent: 1000
HheadAOffset: 0
HheadDescent: -220
HheadDOffset: 0
OS2SubXSize: 650
OS2SubYSize: 600
OS2SubXOff: -15
OS2SubYOff: 75
OS2SupXSize: 650
OS2SupYSize: 600
OS2SupXOff: 70
OS2SupYOff: 350
OS2StrikeYSize: 100
OS2StrikeYPos: 315
OS2CapHeight: 698
OS2XHeight: 525
OS2Vendor: 'UKWN'
OS2CodePages: 2000019f.00000000
OS2UnicodeRanges: 20000287.10000013.00000000.00000000
Lookup: 258 0 0 "'kern' Kerning Horizontal lookup 0" { "'kern' Kerning Horizontal lookup 0 per glyph data 0"  "'kern' Kerning Horizontal lookup 0 kerning class 1"  "'kern' Kerning Horizontal lookup 0 kerning class 2"  "'kern' Kerning Horizontal lookup 0 kerning class 3"  } ['kern' ('DFLT' <'dflt' > 'cyrl' <'dflt' > 'grek' <'dflt' > 'latn' <'dflt' > ) ]
DEI: 91125

StartChar: .notdef
Encoding: 65536 -1 0
Width: 472
Flags: W
LayerCount: 2
Fore
SplineSet
440 0 m 1,0,-1
 32 0 l 1,1,-1
 32 780 l 1,2,-1
 440 780 l 1,3,-1
 440 0 l 1,0,-1
348 92 m 1,4,-1
 348 688 l 1,5,-1
 124 688 l 1,6,-1
 124 92 l 1,7,-1
 348 92 l 1,4,-1
EndSplineSet
EndChar

StartChar: exclam
Encoding: 33 33 2
Width: 306
GlyphClass: 1
Flags: W
LayerCount: 2
Fore
SplineSet
173 213 m 1,0,-1
 116 213 l 1,1,-1
 132 502 l 1,2,-1
 171 698 l 1,3,-1
 310 698 l 1,4,-1
 271 502 l 1,5,-1
 173 213 l 1,0,-1
101 -12 m 0,6,7
 29 -12 29 -12 29 43 c 0,8,9
 29 156 29 156 129 156 c 0,10,11
 199 156 199 156 201 101 c 0,12,13
 201 -12 201 -12 101 -12 c 0,6,7
EndSplineSet
EndChar

StartChar: quotedbl
Encoding: 34 34 3
Width: 473
GlyphClass: 7
Flags: W
LayerCount: 2
Fore
SplineSet
221 423 m 1,0,-1
 101 423 l 1,1,-1
 164 740 l 1,2,-1
 284 740 l 1,3,-1
 221 423 l 1,0,-1
437 423 m 1,4,-1
 316 423 l 1,5,-1
 380 740 l 1,6,-1
 500 740 l 1,7,-1
 437 423 l 1,4,-1
EndSplineSet
EndChar

StartChar: numbersign
Encoding: 35 35 4
Width: 648
GlyphClass: 5
Flags: W
LayerCount: 2
Fore
SplineSet
371 0 m 1,0,-1
 285 0 l 1,1,-1
 352 180 l 1,2,-1
 200 180 l 1,3,-1
 133 0 l 1,4,-1
 47 0 l 1,5,-1
 114 180 l 1,6,-1
 3 180 l 1,7,-1
 20 262 l 1,8,-1
 145 262 l 1,9,-1
 209 436 l 1,10,-1
 98 436 l 1,11,-1
 115 518 l 1,12,-1
 240 518 l 1,13,-1
 306 698 l 1,14,-1
 392 698 l 1,15,-1
 325 518 l 1,16,-1
 477 518 l 1,17,-1
 544 698 l 1,18,-1
 630 698 l 1,19,-1
 563 518 l 1,20,-1
 674 518 l 1,21,-1
 658 436 l 1,22,-1
 533 436 l 1,23,-1
 468 262 l 1,24,-1
 580 262 l 1,25,-1
 563 180 l 1,26,-1
 438 180 l 1,27,-1
 371 0 l 1,0,-1
382 262 m 1,28,-1
 447 436 l 1,29,-1
 295 436 l 1,30,-1
 231 262 l 1,31,-1
 382 262 l 1,28,-1
EndSplineSet
EndChar

StartChar: dollar
Encoding: 36 36 5
Width: 565
Flags: W
LayerCount: 2
Fore
SplineSet
288 435 m 1,0,-1
 317 578 l 1,1,2
 278 575 278 575 259 559 c 0,3,4
 233 538 233 538 233 508 c 0,5,6
 233 459 233 459 288 435 c 1,0,-1
307 120 m 1,7,8
 397 129 397 129 397 207 c 0,9,10
 397 254 397 254 339 280 c 1,11,-1
 307 120 l 1,7,8
194 8 m 1,12,13
 90 29 90 29 22 111 c 1,14,-1
 111 199 l 1,15,16
 161 143 161 143 226 126 c 1,17,-1
 263 308 l 1,18,19
 98 368 98 368 98 496 c 0,20,21
 98 518 98 518 105 542 c 0,22,23
 111 571 111 571 127 598 c 0,24,25
 182 692 182 692 328 698 c 1,26,-1
 329 707 l 1,27,-1
 348 780 l 1,28,-1
 448 780 l 1,29,-1
 432 698 l 1,30,-1
 430 690 l 1,31,32
 522 669 522 669 579 600 c 1,33,-1
 489 512 l 1,34,35
 452 557 452 557 398 572 c 1,36,-1
 365 406 l 1,37,-1
 369 404 l 1,38,39
 533 342 533 342 533 218 c 0,40,41
 533 157 533 157 502 106 c 0,42,43
 442 6 442 6 291 0 c 1,44,-1
 290 -9 l 1,45,-1
 276 -82 l 1,46,-1
 175 -82 l 1,47,-1
 191 -2 l 1,48,-1
 194 8 l 1,12,13
EndSplineSet
EndChar

StartChar: percent
Encoding: 37 37 6
Width: 932
Flags: W
LayerCount: 2
Fore
SplineSet
255 0 m 1,0,-1
 139 0 l 1,1,-1
 711 698 l 1,2,-1
 827 698 l 1,3,-1
 255 0 l 1,0,-1
243 314 m 0,4,5
 177 314 177 314 135.5 351 c 128,-1,6
 94 388 94 388 94 472 c 0,7,8
 94 576 94 576 154.5 643 c 128,-1,9
 215 710 215 710 294 710 c 0,10,11
 360 710 360 710 402 672.5 c 128,-1,12
 444 635 444 635 444 552 c 0,13,14
 444 448 444 448 383.5 381 c 128,-1,15
 323 314 323 314 243 314 c 0,4,5
249 392 m 0,16,17
 270 392 270 392 284.5 404.5 c 128,-1,18
 299 417 299 417 310 450 c 0,19,20
 335 524 335 524 335 578 c 0,21,22
 332 632 332 632 288 632 c 0,23,24
 258 632 258 632 240 603 c 0,25,26
 227 576 227 576 215 528.5 c 128,-1,27
 203 481 203 481 203 446 c 0,28,29
 204 392 204 392 249 392 c 0,16,17
671 -12 m 0,30,31
 606 -12 606 -12 564 25 c 128,-1,32
 522 62 522 62 522 146 c 0,33,34
 522 252 522 252 582.5 318 c 128,-1,35
 643 384 643 384 722 384 c 0,36,37
 788 384 788 384 830 346.5 c 128,-1,38
 872 309 872 309 872 226 c 0,39,40
 872 122 872 122 811.5 55 c 128,-1,41
 751 -12 751 -12 671 -12 c 0,30,31
677 66 m 0,42,43
 698 66 698 66 712.5 78.5 c 128,-1,44
 727 91 727 91 738 124 c 0,45,46
 763 198 763 198 763 252 c 0,47,48
 760 306 760 306 716 306 c 0,49,50
 686 306 686 306 668 277 c 0,51,52
 655 250 655 250 643 202.5 c 128,-1,53
 631 155 631 155 631 120 c 0,54,55
 632 66 632 66 677 66 c 0,42,43
EndSplineSet
EndChar

StartChar: ampersand
Encoding: 38 38 7
Width: 698
GlyphClass: 3
Flags: W
LayerCount: 2
Fore
SplineSet
232 -12 m 0,0,1
 130 -12 130 -12 81 37 c 128,-1,2
 32 86 32 86 32 157 c 0,3,4
 32 301 32 301 209 380 c 1,5,6
 158 450 158 450 158 515 c 0,7,8
 158 596 158 596 216.5 653 c 128,-1,9
 275 710 275 710 380 710 c 0,10,11
 424 710 424 710 464 695 c 128,-1,12
 504 680 504 680 529 648 c 128,-1,13
 554 616 554 616 554 564 c 0,14,15
 554 445 554 445 374 361 c 1,16,-1
 464 236 l 1,17,18
 499 302 499 302 514 382 c 1,19,-1
 680 382 l 1,20,-1
 658 272 l 1,21,-1
 581 272 l 1,22,23
 562 206 562 206 525 149 c 1,24,-1
 631 0 l 1,25,-1
 479 0 l 1,26,-1
 435 62 l 1,27,28
 350 -12 350 -12 232 -12 c 0,0,1
322 435 m 1,29,30
 371 458 371 458 398.5 484.5 c 128,-1,31
 426 511 426 511 426 551 c 0,32,33
 426 581 426 581 406.5 595.5 c 128,-1,34
 387 610 387 610 362 610 c 0,35,36
 332 610 332 610 308.5 589.5 c 128,-1,37
 285 569 285 569 285 521 c 0,38,39
 285 482 285 482 322 435 c 1,29,30
264 97 m 0,40,41
 329 97 329 97 382 137 c 1,42,-1
 261 307 l 1,43,44
 164 265 164 265 164 178 c 0,45,46
 165 97 165 97 264 97 c 0,40,41
EndSplineSet
EndChar

StartChar: quotesingle
Encoding: 39 39 8
Width: 257
Flags: W
LayerCount: 2
Fore
SplineSet
221 423 m 1,0,-1
 101 423 l 1,1,-1
 164 740 l 1,2,-1
 284 740 l 1,3,-1
 221 423 l 1,0,-1
EndSplineSet
EndChar

StartChar: parenleft
Encoding: 40 40 9
Width: 348
Flags: W
LayerCount: 2
Fore
SplineSet
312 -137 m 1,0,-1
 192 -137 l 1,1,2
 136 -72 136 -72 100.5 21 c 128,-1,3
 65 114 65 114 65 217 c 0,4,5
 65 330 65 330 105 433.5 c 128,-1,6
 145 537 145 537 210 621 c 128,-1,7
 275 705 275 705 354 760 c 1,8,-1
 491 760 l 1,9,10
 391 688 391 688 311.5 588.5 c 128,-1,11
 232 489 232 489 204 367 c 2,12,-1
 184 270 l 2,13,14
 180 240 180 240 180 216 c 0,15,16
 180 11 180 11 312 -137 c 1,0,-1
EndSplineSet
EndChar

StartChar: parenright
Encoding: 41 41 10
Width: 348
GlyphClass: 3
Flags: W
LayerCount: 2
Fore
SplineSet
19 -137 m 1,0,-1
 -118 -137 l 1,1,2
 118 38 118 38 169 256 c 1,3,-1
 188 353 l 2,4,5
 193 383 193 383 193 407 c 0,6,7
 193 614 193 614 60 760 c 1,8,-1
 181 760 l 1,9,10
 235 699 235 699 271.5 609 c 128,-1,11
 308 519 308 519 308 406 c 0,12,13
 308 290 308 290 267.5 186 c 128,-1,14
 227 82 227 82 162 -0.5 c 128,-1,15
 97 -83 97 -83 19 -137 c 1,0,-1
EndSplineSet
EndChar

StartChar: asterisk
Encoding: 42 42 11
Width: 567
Flags: W
LayerCount: 2
Fore
SplineSet
184 266 m 1,0,-1
 100 340 l 1,1,-1
 241 478 l 1,2,-1
 88 529 l 1,3,-1
 136 634 l 1,4,-1
 288 567 l 1,5,-1
 316 747 l 1,6,-1
 434 747 l 1,7,-1
 393 568 l 1,8,-1
 553 632 l 1,9,-1
 581 529 l 1,10,-1
 404 472 l 1,11,-1
 488 328 l 1,12,-1
 389 267 l 1,13,-1
 317 421 l 1,14,-1
 184 266 l 1,0,-1
EndSplineSet
EndChar

StartChar: plus
Encoding: 43 43 12
Width: 600
Flags: W
LayerCount: 2
Fore
SplineSet
317 63 m 1,0,-1
 202 63 l 1,1,-1
 239 253 l 1,2,-1
 67 253 l 1,3,-1
 88 359 l 1,4,-1
 261 359 l 1,5,-1
 298 549 l 1,6,-1
 414 549 l 1,7,-1
 376 359 l 1,8,-1
 548 359 l 1,9,-1
 527 253 l 1,10,-1
 355 253 l 1,11,-1
 317 63 l 1,0,-1
EndSplineSet
EndChar

StartChar: comma
Encoding: 44 44 13
Width: 301
GlyphClass: 3
Flags: W
LayerCount: 2
Fore
SplineSet
57 -144 m 1,0,-1
 -41 -144 l 1,1,2
 40 -81 40 -81 79 -8 c 1,3,4
 31 4 31 4 31 46 c 0,5,6
 31 90 31 90 53 124.5 c 128,-1,7
 75 159 75 159 127 159 c 0,8,9
 167 159 167 159 183 140.5 c 128,-1,10
 199 122 199 122 199 98 c 0,11,12
 199 43 199 43 162 -25 c 128,-1,13
 125 -93 125 -93 57 -144 c 1,0,-1
EndSplineSet
EndChar

StartChar: hyphen
Encoding: 45 45 14
Width: 394
Flags: W
LayerCount: 2
Fore
SplineSet
336 243 m 1,0,-1
 50 243 l 1,1,-1
 75 367 l 1,2,-1
 361 367 l 1,3,-1
 336 243 l 1,0,-1
EndSplineSet
EndChar

StartChar: period
Encoding: 46 46 15
Width: 301
Flags: W
LayerCount: 2
Fore
SplineSet
99 -11 m 0,0,1
 28 -11 28 -11 28 45 c 0,2,3
 28 159 28 159 125 159 c 0,4,5
 196 159 196 159 196 103 c 0,6,7
 196 -11 196 -11 99 -11 c 0,0,1
EndSplineSet
EndChar

StartChar: slash
Encoding: 47 47 16
Width: 460
GlyphClass: 3
Flags: W
LayerCount: 2
Fore
SplineSet
45 -151 m 1,0,-1
 -72 -151 l 1,1,-1
 393 740 l 1,2,-1
 510 740 l 1,3,-1
 45 -151 l 1,0,-1
EndSplineSet
EndChar

StartChar: zero
Encoding: 48 48 17
Width: 600
GlyphClass: 5
Flags: W
LayerCount: 2
Fore
SplineSet
261 -12 m 0,0,1
 187 -12 187 -12 140.5 20.5 c 128,-1,2
 94 53 94 53 72.5 110 c 128,-1,3
 51 167 51 167 51 241 c 0,4,5
 51 325 51 325 70 408 c 128,-1,6
 89 491 89 491 128 559 c 128,-1,7
 167 627 167 627 226.5 668.5 c 128,-1,8
 286 710 286 710 366 710 c 0,9,10
 440 710 440 710 486.5 677.5 c 128,-1,11
 533 645 533 645 554.5 588 c 128,-1,12
 576 531 576 531 576 457 c 0,13,14
 576 371 576 371 556 287 c 128,-1,15
 536 203 536 203 496.5 136 c 128,-1,16
 457 69 457 69 398 28.5 c 128,-1,17
 339 -12 339 -12 261 -12 c 0,0,1
273 97 m 2,18,19
 336 97 336 97 368.5 152.5 c 128,-1,20
 401 208 401 208 416 301 c 1,21,-1
 438 408 l 2,22,23
 446 447 446 447 446 483 c 0,24,25
 446 535 446 535 426 568 c 128,-1,26
 406 601 406 601 353 601 c 0,27,28
 289 601 289 601 256 545.5 c 128,-1,29
 223 490 223 490 210 397 c 1,30,-1
 189 290 l 2,31,32
 181 251 181 251 181 215 c 0,33,34
 181 97 181 97 270 97 c 2,35,-1
 273 97 l 2,18,19
EndSplineSet
EndChar

StartChar: one
Encoding: 49 49 18
Width: 600
Flags: W
LayerCount: 2
Fore
SplineSet
354 0 m 1,0,-1
 223 0 l 1,1,-1
 339 571 l 1,2,-1
 171 482 l 1,3,-1
 197 615 l 1,4,-1
 352 698 l 1,5,-1
 494 698 l 1,6,-1
 354 0 l 1,0,-1
EndSplineSet
EndChar

StartChar: two
Encoding: 50 50 19
Width: 600
Flags: W
LayerCount: 2
Fore
SplineSet
485 0 m 1,0,-1
 16 0 l 1,1,-1
 42 126 l 1,2,-1
 293 315 l 1,3,4
 427 409 427 409 427 511 c 0,5,6
 427 553 427 553 401.5 574 c 128,-1,7
 376 595 376 595 341 595 c 0,8,9
 290 595 290 595 260.5 565 c 128,-1,10
 231 535 231 535 214 491 c 1,11,-1
 102 536 l 1,12,13
 178 710 178 710 352 710 c 0,14,15
 456 710 456 710 512 656 c 128,-1,16
 568 602 568 602 568 521 c 0,17,18
 568 434 568 434 506.5 362 c 128,-1,19
 445 290 445 290 336 217 c 1,20,-1
 192 112 l 1,21,-1
 507 112 l 1,22,-1
 485 0 l 1,0,-1
EndSplineSet
EndChar

StartChar: three
Encoding: 51 51 20
Width: 600
Flags: W
LayerCount: 2
Fore
SplineSet
244 -12 m 0,0,1
 150 -12 150 -12 95 26.5 c 128,-1,2
 40 65 40 65 21 119 c 1,3,-1
 118 188 l 1,4,5
 144 98 144 98 253 98 c 0,6,7
 308 98 308 98 344 126.5 c 128,-1,8
 380 155 380 155 380 222 c 0,9,10
 380 267 380 267 351.5 286 c 128,-1,11
 323 305 323 305 281 305 c 2,12,-1
 209 305 l 1,13,-1
 231 417 l 1,14,-1
 297 417 l 2,15,16
 425 417 425 417 425 531 c 0,17,18
 425 535 425 535 423 539 c 0,19,20
 412 600 412 600 336 600 c 0,21,22
 249 600 249 600 193 517 c 1,23,-1
 118 599 l 1,24,25
 159 652 159 652 217 681 c 128,-1,26
 275 710 275 710 359 710 c 0,27,28
 453 710 453 710 509.5 665.5 c 128,-1,29
 566 621 566 621 566 548 c 0,30,31
 566 470 566 470 520 426 c 128,-1,32
 474 382 474 382 405 367 c 1,33,-1
 404 362 l 1,34,35
 463 349 463 349 489.5 309.5 c 128,-1,36
 516 270 516 270 516 217 c 0,37,38
 516 153 516 153 484.5 101 c 128,-1,39
 453 49 453 49 392.5 18.5 c 128,-1,40
 332 -12 332 -12 244 -12 c 0,0,1
EndSplineSet
EndChar

StartChar: four
Encoding: 52 52 21
Width: 600
GlyphClass: 2
Flags: W
LayerCount: 2
Fore
SplineSet
419 0 m 1,0,-1
 295 0 l 1,1,-1
 322 135 l 1,2,-1
 15 135 l 1,3,-1
 38 252 l 1,4,-1
 398 698 l 1,5,-1
 559 698 l 1,6,-1
 467 239 l 1,7,-1
 555 239 l 1,8,-1
 533 135 l 1,9,-1
 446 135 l 1,10,-1
 419 0 l 1,0,-1
343 239 m 1,11,-1
 405 549 l 1,12,-1
 395 549 l 1,13,-1
 148 239 l 1,14,-1
 343 239 l 1,11,-1
EndSplineSet
EndChar

StartChar: five
Encoding: 53 53 22
Width: 600
Flags: W
LayerCount: 2
Fore
SplineSet
257 -12 m 0,0,1
 161 -12 161 -12 104.5 26.5 c 128,-1,2
 48 65 48 65 28 121 c 1,3,-1
 135 189 l 1,4,5
 162 99 162 99 264 99 c 0,6,7
 311 99 311 99 341 120 c 128,-1,8
 371 141 371 141 385 176.5 c 128,-1,9
 399 212 399 212 399 254 c 0,10,11
 399 340 399 340 304 342 c 0,12,13
 236 342 236 342 189 289 c 1,14,-1
 85 304 l 1,15,-1
 185 698 l 1,16,-1
 586 698 l 1,17,-1
 563 582 l 1,18,-1
 258 582 l 1,19,-1
 199 347 l 1,20,-1
 207 347 l 1,21,22
 231 398 231 398 269 424.5 c 128,-1,23
 307 451 307 451 367 451 c 0,24,25
 414 451 414 451 453.5 431.5 c 128,-1,26
 493 412 493 412 517 370 c 128,-1,27
 541 328 541 328 541 261 c 256,28,29
 541 194 541 194 508.5 131.5 c 128,-1,30
 476 69 476 69 412.5 28.5 c 128,-1,31
 349 -12 349 -12 257 -12 c 0,0,1
EndSplineSet
EndChar

StartChar: six
Encoding: 54 54 23
Width: 600
GlyphClass: 2
Flags: W
LayerCount: 2
Fore
SplineSet
265 -12 m 0,0,1
 155 -12 155 -12 102.5 52.5 c 128,-1,2
 50 117 50 117 50 219 c 0,3,4
 50 319 50 319 97.5 410.5 c 128,-1,5
 145 502 145 502 218.5 576 c 128,-1,6
 292 650 292 650 375 698 c 1,7,-1
 564 698 l 1,8,9
 429 619 429 619 337.5 535 c 128,-1,10
 246 451 246 451 207 345 c 1,11,-1
 214 342 l 1,12,13
 269 447 269 447 375 447 c 0,14,15
 459 447 459 447 501.5 391 c 128,-1,16
 544 335 544 335 544 255 c 0,17,18
 544 189 544 189 513 128 c 128,-1,19
 482 67 482 67 419.5 27.5 c 128,-1,20
 357 -12 357 -12 265 -12 c 0,0,1
276 94 m 0,21,22
 343 94 343 94 375 139 c 128,-1,23
 407 184 407 184 407 247 c 0,24,25
 407 342 407 342 312 342 c 0,26,27
 265 342 265 342 235.5 321 c 128,-1,28
 206 300 206 300 193 265 c 128,-1,29
 180 230 180 230 180 189 c 0,30,31
 180 94 180 94 276 94 c 0,21,22
EndSplineSet
EndChar

StartChar: seven
Encoding: 55 55 24
Width: 600
Flags: W
LayerCount: 2
Fore
SplineSet
256 0 m 1,0,-1
 115 0 l 1,1,-1
 468 588 l 1,2,-1
 124 588 l 1,3,-1
 146 698 l 1,4,-1
 622 698 l 1,5,-1
 598 581 l 1,6,-1
 256 0 l 1,0,-1
EndSplineSet
EndChar

StartChar: eight
Encoding: 56 56 25
Width: 600
Flags: W
LayerCount: 2
Fore
SplineSet
258 -12 m 0,0,1
 145 -12 145 -12 90 38.5 c 128,-1,2
 35 89 35 89 35 166 c 0,3,4
 35 249 35 249 82.5 297.5 c 128,-1,5
 130 346 130 346 204 362 c 1,6,-1
 205 369 l 1,7,8
 120 403 120 403 120 505 c 0,9,10
 120 554 120 554 146.5 601.5 c 128,-1,11
 173 649 173 649 229.5 679.5 c 128,-1,12
 286 710 286 710 375 710 c 0,13,14
 481 710 481 710 529 664.5 c 128,-1,15
 577 619 577 619 577 550 c 0,16,17
 577 480 577 480 536 434.5 c 128,-1,18
 495 389 495 389 432 368 c 1,19,-1
 431 360 l 1,20,21
 533 328 533 328 533 212 c 0,22,23
 533 121 533 121 456.5 54.5 c 128,-1,24
 380 -12 380 -12 258 -12 c 0,0,1
267 92 m 0,25,26
 390 92 390 92 397 226 c 1,27,28
 395 309 395 309 300 309 c 0,29,30
 246 309 246 309 208 278.5 c 128,-1,31
 170 248 170 248 170 175 c 0,32,33
 172 92 172 92 267 92 c 0,25,26
329 409 m 0,34,35
 392 409 392 409 420.5 445.5 c 128,-1,36
 449 482 449 482 449 533 c 0,37,38
 449 565 449 565 427.5 585.5 c 128,-1,39
 406 606 406 606 358 606 c 0,40,41
 295 606 295 606 266.5 569.5 c 128,-1,42
 238 533 238 533 238 482 c 0,43,44
 238 450 238 450 259.5 429.5 c 128,-1,45
 281 409 281 409 329 409 c 0,34,35
EndSplineSet
EndChar

StartChar: nine
Encoding: 57 57 26
Width: 600
GlyphClass: 1
Flags: W
LayerCount: 2
Fore
SplineSet
255 0 m 1,0,-1
 66 0 l 1,1,2
 201 77 201 77 292 162.5 c 128,-1,3
 383 248 383 248 423 353 c 1,4,-1
 416 356 l 1,5,6
 360 251 360 251 256 251 c 0,7,8
 173 251 173 251 129.5 305.5 c 128,-1,9
 86 360 86 360 86 443 c 0,10,11
 86 509 86 509 117.5 570.5 c 128,-1,12
 149 632 149 632 211 671 c 128,-1,13
 273 710 273 710 365 710 c 0,14,15
 440 710 440 710 487.5 680 c 128,-1,16
 535 650 535 650 557.5 597.5 c 128,-1,17
 580 545 580 545 580 479 c 0,18,19
 580 379 580 379 532.5 287 c 128,-1,20
 485 195 485 195 411.5 121 c 128,-1,21
 338 47 338 47 255 0 c 1,0,-1
318 356 m 0,22,23
 387 356 387 356 418.5 401 c 128,-1,24
 450 446 450 446 450 509 c 0,25,26
 450 551 450 551 427.5 577.5 c 128,-1,27
 405 604 405 604 354 604 c 0,28,29
 308 604 308 604 279 583 c 128,-1,30
 250 562 250 562 236.5 527 c 128,-1,31
 223 492 223 492 223 451 c 0,32,33
 223 356 223 356 318 356 c 0,22,23
EndSplineSet
EndChar

StartChar: colon
Encoding: 58 58 27
Width: 320
Flags: W
LayerCount: 2
Fore
SplineSet
109 -11 m 0,0,1
 38 -11 38 -11 38 45 c 0,2,3
 38 159 38 159 135 159 c 0,4,5
 206 159 206 159 206 103 c 0,6,7
 206 -11 206 -11 109 -11 c 0,0,1
184 364 m 0,8,9
 143 364 143 364 127.5 381.5 c 128,-1,10
 112 399 112 399 112 420 c 0,11,12
 112 468 112 468 134 501 c 128,-1,13
 156 534 156 534 210 534 c 0,14,15
 250 534 250 534 265.5 516.5 c 128,-1,16
 281 499 281 499 281 478 c 0,17,18
 281 364 281 364 184 364 c 0,8,9
EndSplineSet
EndChar

StartChar: semicolon
Encoding: 59 59 28
Width: 320
GlyphClass: 2
Flags: W
LayerCount: 2
Fore
SplineSet
67 -144 m 1,0,-1
 -31 -144 l 1,1,2
 50 -81 50 -81 89 -8 c 1,3,4
 41 4 41 4 41 46 c 0,5,6
 41 90 41 90 63 124.5 c 128,-1,7
 85 159 85 159 137 159 c 0,8,9
 177 159 177 159 193 140.5 c 128,-1,10
 209 122 209 122 209 98 c 0,11,12
 209 43 209 43 172 -25 c 128,-1,13
 135 -93 135 -93 67 -144 c 1,0,-1
184 364 m 0,14,15
 143 364 143 364 127.5 381.5 c 128,-1,16
 112 399 112 399 112 420 c 0,17,18
 112 468 112 468 134 501 c 128,-1,19
 156 534 156 534 210 534 c 0,20,21
 250 534 250 534 265.5 516.5 c 128,-1,22
 281 499 281 499 281 478 c 0,23,24
 281 364 281 364 184 364 c 0,14,15
EndSplineSet
EndChar

StartChar: less
Encoding: 60 60 29
Width: 600
Flags: W
LayerCount: 2
Fore
SplineSet
442 -3 m 1,0,-1
 97 255 l 1,1,-1
 115 340 l 1,2,-1
 563 596 l 1,3,-1
 534 451 l 1,4,-1
 246 292 l 1,5,-1
 244 285 l 1,6,-1
 468 124 l 1,7,-1
 442 -3 l 1,0,-1
EndSplineSet
EndChar

StartChar: equal
Encoding: 61 61 30
Width: 600
GlyphClass: 2
Flags: W
LayerCount: 2
Fore
SplineSet
551 365 m 1,0,-1
 91 365 l 1,1,-1
 112 472 l 1,2,-1
 573 472 l 1,3,-1
 551 365 l 1,0,-1
507 140 m 1,4,-1
 46 140 l 1,5,-1
 67 246 l 1,6,-1
 528 246 l 1,7,-1
 507 140 l 1,4,-1
EndSplineSet
EndChar

StartChar: greater
Encoding: 62 62 31
Width: 600
GlyphClass: 5
Flags: W
LayerCount: 2
Fore
SplineSet
53 -3 m 1,0,-1
 82 142 l 1,1,-1
 370 302 l 1,2,-1
 372 309 l 1,3,-1
 148 468 l 1,4,-1
 174 596 l 1,5,-1
 518 339 l 1,6,-1
 501 254 l 1,7,-1
 53 -3 l 1,0,-1
EndSplineSet
EndChar

StartChar: question
Encoding: 63 63 32
Width: 486
GlyphClass: 3
Flags: W
LayerCount: 2
Fore
SplineSet
278 228 m 1,0,-1
 153 228 l 1,1,-1
 185 384 l 1,2,3
 371 396 371 396 371 528 c 0,4,5
 371 564 371 564 346.5 581 c 128,-1,6
 322 598 322 598 291 598 c 0,7,8
 210 598 210 598 173 503 c 1,9,-1
 68 549 l 1,10,11
 135 710 135 710 308 710 c 0,12,13
 409 710 409 710 458 663 c 128,-1,14
 507 616 507 616 507 543 c 0,15,16
 507 454 507 454 447 391.5 c 128,-1,17
 387 329 387 329 296 310 c 1,18,-1
 278 228 l 1,0,-1
174 -12 m 0,19,20
 102 -12 102 -12 102 43 c 0,21,22
 102 156 102 156 201 156 c 0,23,24
 273 156 273 156 273 101 c 0,25,26
 273 -12 273 -12 174 -12 c 0,19,20
EndSplineSet
EndChar

StartChar: at
Encoding: 64 64 33
Width: 886
Flags: W
LayerCount: 2
Fore
SplineSet
574 -121 m 1,0,-1
 379 -121 l 2,1,2
 228 -121 228 -121 144 -29.5 c 128,-1,3
 60 62 60 62 60 208 c 0,4,5
 60 353 60 353 121.5 466.5 c 128,-1,6
 183 580 183 580 288 644.5 c 128,-1,7
 393 709 393 709 521 709 c 0,8,9
 662 709 662 709 753.5 624 c 128,-1,10
 845 539 845 539 845 396 c 0,11,12
 845 319 845 319 816.5 246 c 128,-1,13
 788 173 788 173 736.5 126 c 128,-1,14
 685 79 685 79 615 79 c 0,15,16
 558 82 558 82 532.5 105 c 128,-1,17
 507 128 507 128 507 163 c 2,18,-1
 507 174 l 1,19,-1
 503 174 l 1,20,21
 491 136 491 136 460.5 108.5 c 128,-1,22
 430 81 430 81 381 81 c 0,23,24
 322 81 322 81 286 117 c 128,-1,25
 250 153 250 153 250 232 c 0,26,27
 250 284 250 284 272 347 c 0,28,29
 324 500 324 500 444 500 c 0,30,31
 526 500 526 500 543 429 c 1,32,-1
 547 429 l 1,33,-1
 560 491 l 1,34,-1
 662 491 l 1,35,36
 605 202 605 202 605 193 c 0,37,38
 605 160 605 160 637 160 c 0,39,40
 715 160 715 160 749 333 c 0,41,42
 758 382 758 382 758 402 c 0,43,44
 758 542 758 542 643 600 c 0,45,46
 585 629 585 629 509 629 c 0,47,48
 419 629 419 629 349 590.5 c 128,-1,49
 279 552 279 552 232.5 484.5 c 128,-1,50
 186 417 186 417 167 330 c 2,51,-1
 161 302 l 2,52,53
 155 280 155 280 152 260.5 c 128,-1,54
 149 241 149 241 149 206 c 0,55,56
 149 91 149 91 214.5 25 c 128,-1,57
 280 -41 280 -41 394 -41 c 2,58,-1
 590 -41 l 1,59,-1
 574 -121 l 1,0,-1
419 166 m 0,60,61
 455 166 455 166 479 190 c 128,-1,62
 503 214 503 214 511 245 c 0,63,64
 532 338 532 338 532 359 c 0,65,66
 532 386 532 386 510.5 400.5 c 128,-1,67
 489 415 489 415 462 415 c 0,68,69
 389 415 389 415 372 327 c 0,70,71
 355 234 355 234 355 230 c 0,72,73
 356 166 356 166 419 166 c 0,60,61
EndSplineSet
EndChar

StartChar: A
Encoding: 65 65 34
Width: 651
GlyphClass: 5
Flags: W
LayerCount: 2
Fore
SplineSet
580 0 m 1,0,-1
 446 0 l 1,1,-1
 428 176 l 1,2,-1
 196 176 l 1,3,-1
 109 0 l 1,4,-1
 -33 0 l 1,5,-1
 328 698 l 1,6,-1
 498 698 l 1,7,-1
 580 0 l 1,0,-1
418 288 m 1,8,-1
 393 577 l 1,9,-1
 385 577 l 1,10,-1
 249 288 l 1,11,-1
 418 288 l 1,8,-1
EndSplineSet
EndChar

StartChar: B
Encoding: 66 66 35
Width: 646
GlyphClass: 7
Flags: W
LayerCount: 2
Fore
SplineSet
355 0 m 2,0,-1
 25 0 l 1,1,-1
 165 698 l 1,2,-1
 455 698 l 2,3,4
 502 698 502 698 541.5 683.5 c 128,-1,5
 581 669 581 669 604.5 637.5 c 128,-1,6
 628 606 628 606 628 554 c 0,7,8
 628 490 628 490 596.5 438 c 128,-1,9
 565 386 565 386 491 363 c 1,10,-1
 490 358 l 1,11,12
 593 330 593 330 593 225 c 0,13,14
 593 161 593 161 567.5 110 c 128,-1,15
 542 59 542 59 489 29.5 c 128,-1,16
 436 0 436 0 355 0 c 2,0,-1
355 114 m 2,17,18
 434 114 434 114 448 188 c 2,19,-1
 457 245 l 1,20,21
 457 278 457 278 431.5 288 c 128,-1,22
 406 298 406 298 370 298 c 2,23,-1
 218 298 l 1,24,-1
 182 114 l 1,25,-1
 355 114 l 2,17,18
386 407 m 2,26,27
 466 407 466 407 480 476 c 2,28,-1
 484 500 l 2,29,30
 489 517 489 517 489 531 c 0,31,32
 489 563 489 563 468 573.5 c 128,-1,33
 447 584 447 584 404 584 c 2,34,-1
 276 584 l 1,35,-1
 240 407 l 1,36,-1
 386 407 l 2,26,27
EndSplineSet
EndChar

StartChar: C
Encoding: 67 67 36
Width: 629
Flags: W
LayerCount: 2
Fore
SplineSet
303 -12 m 0,0,1
 194 -12 194 -12 125.5 58.5 c 128,-1,2
 57 129 57 129 57 271 c 0,3,4
 57 394 57 394 102.5 493.5 c 128,-1,5
 148 593 148 593 228 651.5 c 128,-1,6
 308 710 308 710 410 710 c 0,7,8
 593 710 593 710 644 542 c 1,9,-1
 526 492 l 1,10,11
 512 542 512 542 482.5 567 c 128,-1,12
 453 592 453 592 400 592 c 0,13,14
 321 592 321 592 277 540.5 c 128,-1,15
 233 489 233 489 218 410 c 2,16,-1
 196 299 l 2,17,18
 191 268 191 268 191 246 c 0,19,20
 191 106 191 106 314 106 c 0,21,22
 426 106 426 106 475 215 c 1,23,-1
 586 164 l 1,24,25
 491 -12 491 -12 303 -12 c 0,0,1
EndSplineSet
EndChar

StartChar: D
Encoding: 68 68 37
Width: 676
Flags: W
LayerCount: 2
Fore
SplineSet
286 0 m 2,0,-1
 25 0 l 1,1,-1
 165 698 l 1,2,-1
 386 698 l 2,3,4
 463 698 463 698 522 670 c 128,-1,5
 581 642 581 642 614.5 584 c 128,-1,6
 648 526 648 526 648 435 c 0,7,8
 648 352 648 352 626 274 c 128,-1,9
 604 196 604 196 559.5 134.5 c 128,-1,10
 515 73 515 73 447 36.5 c 128,-1,11
 379 0 379 0 286 0 c 2,0,-1
296 118 m 2,12,13
 364 118 364 118 415 159.5 c 128,-1,14
 466 201 466 201 487 295 c 0,15,16
 507 398 507 398 509.5 413.5 c 128,-1,17
 512 429 512 429 513 446 c 2,18,-1
 513 453 l 2,19,20
 513 580 513 580 392 580 c 2,21,-1
 275 580 l 1,22,-1
 182 118 l 1,23,-1
 296 118 l 2,12,13
EndSplineSet
EndChar

StartChar: E
Encoding: 69 69 38
Width: 576
Flags: W
LayerCount: 2
Fore
SplineSet
478 0 m 1,0,-1
 25 0 l 1,1,-1
 165 698 l 1,2,-1
 607 698 l 1,3,-1
 583 581 l 1,4,-1
 275 581 l 1,5,-1
 241 411 l 1,6,-1
 514 411 l 1,7,-1
 491 294 l 1,8,-1
 217 294 l 1,9,-1
 182 117 l 1,10,-1
 502 117 l 1,11,-1
 478 0 l 1,0,-1
EndSplineSet
EndChar

StartChar: F
Encoding: 70 70 39
Width: 554
GlyphClass: 2
Flags: W
LayerCount: 2
Fore
SplineSet
158 0 m 1,0,-1
 25 0 l 1,1,-1
 165 698 l 1,2,-1
 595 698 l 1,3,-1
 571 581 l 1,4,-1
 274 581 l 1,5,-1
 240 411 l 1,6,-1
 504 411 l 1,7,-1
 480 294 l 1,8,-1
 217 294 l 1,9,-1
 158 0 l 1,0,-1
EndSplineSet
EndChar

StartChar: G
Encoding: 71 71 40
Width: 693
Flags: W
LayerCount: 2
Fore
SplineSet
282 -12 m 0,0,1
 217 -12 217 -12 166.5 18 c 128,-1,2
 116 48 116 48 86.5 109.5 c 128,-1,3
 57 171 57 171 57 268 c 0,4,5
 57 382 57 382 98.5 483 c 128,-1,6
 140 584 140 584 221 647 c 128,-1,7
 302 710 302 710 421 710 c 0,8,9
 503 710 503 710 570.5 672 c 128,-1,10
 638 634 638 634 670 546 c 1,11,-1
 558 488 l 1,12,13
 530 592 530 592 413 592 c 0,14,15
 252 592 252 592 218 409 c 0,16,17
 204 348 204 348 197 310.5 c 128,-1,18
 190 273 190 273 190 243 c 0,19,20
 190 171 190 171 227 138.5 c 128,-1,21
 264 106 264 106 315 106 c 0,22,23
 377 106 377 106 426 137.5 c 128,-1,24
 475 169 475 169 491 230 c 1,25,-1
 498 268 l 1,26,-1
 368 268 l 1,27,-1
 390 381 l 1,28,-1
 647 381 l 1,29,-1
 571 0 l 1,30,-1
 460 0 l 1,31,-1
 482 109 l 1,32,-1
 475 109 l 1,33,34
 451 57 451 57 404 22.5 c 128,-1,35
 357 -12 357 -12 282 -12 c 0,0,1
EndSplineSet
EndChar

StartChar: H
Encoding: 72 72 41
Width: 697
GlyphClass: 5
Flags: W
LayerCount: 2
Fore
SplineSet
566 0 m 1,0,-1
 433 0 l 1,1,-1
 493 294 l 1,2,-1
 217 294 l 1,3,-1
 158 0 l 1,4,-1
 25 0 l 1,5,-1
 165 698 l 1,6,-1
 298 698 l 1,7,-1
 241 411 l 1,8,-1
 516 411 l 1,9,-1
 573 698 l 1,10,-1
 706 698 l 1,11,-1
 566 0 l 1,0,-1
EndSplineSet
EndChar

StartChar: I
Encoding: 73 73 42
Width: 289
Flags: W
LayerCount: 2
Fore
SplineSet
158 0 m 1,0,-1
 25 0 l 1,1,-1
 166 698 l 1,2,-1
 299 698 l 1,3,-1
 158 0 l 1,0,-1
EndSplineSet
EndChar

StartChar: J
Encoding: 74 74 43
Width: 529
GlyphClass: 2
Flags: W
LayerCount: 2
Fore
SplineSet
207 -11 m 0,0,1
 107 -11 107 -11 58.5 41 c 128,-1,2
 10 93 10 93 5 175 c 1,3,-1
 131 200 l 1,4,5
 137 105 137 105 207 105 c 0,6,7
 284 105 284 105 306 203 c 2,8,-1
 405 698 l 1,9,-1
 539 698 l 1,10,-1
 436 189 l 2,11,12
 419 98 419 98 363.5 43.5 c 128,-1,13
 308 -11 308 -11 207 -11 c 0,0,1
EndSplineSet
EndChar

StartChar: K
Encoding: 75 75 44
Width: 649
GlyphClass: 5
Flags: W
LayerCount: 2
Fore
SplineSet
587 0 m 1,0,-1
 441 0 l 1,1,-1
 314 307 l 1,2,-1
 196 189 l 1,3,-1
 158 0 l 1,4,-1
 25 0 l 1,5,-1
 165 698 l 1,6,-1
 298 698 l 1,7,-1
 230 360 l 1,8,-1
 237 360 l 1,9,-1
 349 488 l 1,10,-1
 548 698 l 1,11,-1
 710 698 l 1,12,-1
 418 397 l 1,13,-1
 587 0 l 1,0,-1
EndSplineSet
EndChar

StartChar: L
Encoding: 76 76 45
Width: 506
GlyphClass: 3
Flags: W
LayerCount: 2
Fore
SplineSet
420 0 m 1,0,-1
 25 0 l 1,1,-1
 165 698 l 1,2,-1
 298 698 l 1,3,-1
 182 117 l 1,4,-1
 444 117 l 1,5,-1
 420 0 l 1,0,-1
EndSplineSet
EndChar

StartChar: M
Encoding: 77 77 46
Width: 798
GlyphClass: 5
Flags: W
LayerCount: 2
Fore
SplineSet
667 0 m 1,0,-1
 540 0 l 1,1,-1
 638 485 l 1,2,-1
 632 485 l 1,3,4
 526 334 526 334 489 285 c 2,5,-1
 372 125 l 1,6,-1
 255 486 l 1,7,-1
 250 486 l 1,8,-1
 152 0 l 1,9,-1
 25 0 l 1,10,-1
 165 698 l 1,11,-1
 308 698 l 1,12,-1
 413 357 l 1,13,-1
 416 357 l 1,14,-1
 655 698 l 1,15,-1
 807 698 l 1,16,-1
 667 0 l 1,0,-1
EndSplineSet
EndChar

StartChar: N
Encoding: 78 78 47
Width: 697
GlyphClass: 5
Flags: W
LayerCount: 2
Fore
SplineSet
566 0 m 1,0,-1
 421 0 l 1,1,-1
 301 352 l 1,2,-1
 256 497 l 1,3,-1
 250 497 l 1,4,-1
 151 0 l 1,5,-1
 25 0 l 1,6,-1
 165 698 l 1,7,-1
 310 698 l 1,8,-1
 431 346 l 1,9,-1
 475 201 l 1,10,-1
 481 201 l 1,11,-1
 580 698 l 1,12,-1
 706 698 l 1,13,-1
 566 0 l 1,0,-1
EndSplineSet
EndChar

StartChar: O
Encoding: 79 79 48
Width: 692
GlyphClass: 5
Flags: W
LayerCount: 2
Fore
SplineSet
306 -12 m 0,0,1
 234 -12 234 -12 178 20 c 128,-1,2
 122 52 122 52 89.5 114.5 c 128,-1,3
 57 177 57 177 57 269 c 0,4,5
 57 347 57 347 80 425.5 c 128,-1,6
 103 504 103 504 148 568 c 128,-1,7
 193 632 193 632 260 671 c 128,-1,8
 327 710 327 710 415 710 c 0,9,10
 534 710 534 710 599.5 633.5 c 128,-1,11
 665 557 665 557 665 429 c 0,12,13
 665 347 665 347 641 268 c 128,-1,14
 617 189 617 189 570.5 126 c 128,-1,15
 524 63 524 63 457.5 25.5 c 128,-1,16
 391 -12 391 -12 306 -12 c 0,0,1
316 106 m 0,17,18
 402 106 402 106 447.5 162 c 128,-1,19
 493 218 493 218 507 308 c 1,20,-1
 514 338 l 2,21,22
 522 373 522 373 525.5 394.5 c 128,-1,23
 529 416 529 416 531 455 c 0,24,25
 529 592 529 592 406 592 c 0,26,27
 322 592 322 592 275.5 536.5 c 128,-1,28
 229 481 229 481 215 389 c 1,29,-1
 209 364 l 2,30,31
 191 290 191 290 191 243 c 0,32,33
 191 106 191 106 316 106 c 0,17,18
EndSplineSet
EndChar

StartChar: P
Encoding: 80 80 49
Width: 628
GlyphClass: 7
Flags: W
LayerCount: 2
Fore
SplineSet
158 0 m 1,0,-1
 25 0 l 1,1,-1
 165 698 l 1,2,-1
 426 698 l 2,3,4
 538 698 538 698 587.5 646.5 c 128,-1,5
 637 595 637 595 637 515 c 0,6,7
 637 433 637 433 599.5 377 c 128,-1,8
 562 321 562 321 501.5 292 c 128,-1,9
 441 263 441 263 373 263 c 2,10,-1
 211 263 l 1,11,-1
 158 0 l 1,0,-1
390 380 m 2,12,13
 430 380 430 380 454 404.5 c 128,-1,14
 478 429 478 429 488.5 462 c 128,-1,15
 499 495 499 495 499 522 c 0,16,17
 499 547 499 547 483 564 c 128,-1,18
 467 581 467 581 429 581 c 2,19,-1
 274 581 l 1,20,-1
 235 380 l 1,21,-1
 390 380 l 2,12,13
EndSplineSet
EndChar

StartChar: Q
Encoding: 81 81 50
Width: 705
GlyphClass: 7
Flags: W
LayerCount: 2
Fore
SplineSet
316 106 m 0,0,1
 402 106 402 106 447.5 162 c 128,-1,2
 493 218 493 218 507 308 c 1,3,-1
 514 338 l 2,4,5
 522 373 522 373 525.5 394.5 c 128,-1,6
 529 416 529 416 531 455 c 0,7,8
 529 592 529 592 406 592 c 0,9,10
 322 592 322 592 275.5 536.5 c 128,-1,11
 229 481 229 481 215 389 c 1,12,-1
 209 364 l 2,13,14
 191 290 191 290 191 243 c 0,15,16
 191 106 191 106 316 106 c 0,0,1
551 -96 m 1,17,-1
 402 2 l 1,18,19
 357 -12 357 -12 306 -12 c 0,20,21
 234 -12 234 -12 178 20 c 128,-1,22
 122 52 122 52 89.5 114.5 c 128,-1,23
 57 177 57 177 57 269 c 0,24,25
 57 347 57 347 80 425.5 c 128,-1,26
 103 504 103 504 148 568 c 128,-1,27
 193 632 193 632 260 671 c 128,-1,28
 327 710 327 710 415 710 c 0,29,30
 534 710 534 710 599.5 633.5 c 128,-1,31
 665 557 665 557 665 429 c 0,32,33
 665 214 665 214 521 72 c 1,34,-1
 628 2 l 1,35,-1
 551 -96 l 1,17,-1
EndSplineSet
EndChar

StartChar: R
Encoding: 82 82 51
Width: 649
GlyphClass: 5
Flags: W
LayerCount: 2
Fore
SplineSet
551 0 m 1,0,-1
 409 0 l 1,1,-1
 335 267 l 1,2,-1
 212 267 l 1,3,-1
 158 0 l 1,4,-1
 25 0 l 1,5,-1
 165 698 l 1,6,-1
 433 698 l 2,7,8
 541 698 541 698 589 647.5 c 128,-1,9
 637 597 637 597 637 520 c 256,10,11
 637 443 637 443 593 377.5 c 128,-1,12
 549 312 549 312 463 283 c 1,13,-1
 551 0 l 1,0,-1
390 380 m 2,14,15
 430 380 430 380 454 404.5 c 128,-1,16
 478 429 478 429 488.5 462 c 128,-1,17
 499 495 499 495 499 522 c 0,18,19
 499 547 499 547 483 564 c 128,-1,20
 467 581 467 581 429 581 c 2,21,-1
 274 581 l 1,22,-1
 235 380 l 1,23,-1
 390 380 l 2,14,15
EndSplineSet
EndChar

StartChar: S
Encoding: 83 83 52
Width: 615
GlyphClass: 7
Flags: W
LayerCount: 2
Fore
SplineSet
270 -12 m 0,0,1
 105 -12 105 -12 9 103 c 1,2,-1
 101 194 l 1,3,4
 175 111 175 111 279 111 c 0,5,6
 397 111 397 111 397 202 c 0,7,8
 397 256 397 256 323 284 c 2,9,-1
 259 307 l 2,10,11
 88 369 88 369 88 501 c 0,12,13
 88 524 88 524 95 549 c 0,14,15
 102 579 102 579 118 607 c 0,16,17
 179 710 179 710 346 710 c 0,18,19
 502 710 502 710 586 609 c 1,20,-1
 492 518 l 1,21,22
 436 587 436 587 338 587 c 0,23,24
 280 587 280 587 254 565.5 c 128,-1,25
 228 544 228 544 228 513 c 0,26,27
 228 455 228 455 305 431 c 1,28,-1
 368 406 l 2,29,30
 538 342 538 342 538 214 c 0,31,32
 538 150 538 150 506 98 c 0,33,34
 441 -12 441 -12 270 -12 c 0,0,1
EndSplineSet
EndChar

StartChar: T
Encoding: 84 84 53
Width: 566
GlyphClass: 1
Flags: W
LayerCount: 2
Fore
SplineSet
297 0 m 1,0,-1
 164 0 l 1,1,-1
 280 581 l 1,2,-1
 91 581 l 1,3,-1
 114 698 l 1,4,-1
 626 698 l 1,5,-1
 602 581 l 1,6,-1
 413 581 l 1,7,-1
 297 0 l 1,0,-1
EndSplineSet
EndChar

StartChar: U
Encoding: 85 85 54
Width: 674
GlyphClass: 3
Flags: W
LayerCount: 2
Fore
SplineSet
303 -12 m 0,0,1
 74 -12 74 -12 74 209 c 0,2,3
 74 251 74 251 83 301 c 2,4,-1
 163 698 l 1,5,-1
 294 698 l 1,6,-1
 211 280 l 2,7,8
 203 243 203 243 203 216 c 0,9,10
 204 109 204 109 310 109 c 0,11,12
 442 109 442 109 467 273 c 0,13,14
 484 366 484 366 495.5 422 c 128,-1,15
 507 478 507 478 519.5 538 c 128,-1,16
 532 598 532 598 552 698 c 1,17,-1
 684 698 l 1,18,-1
 599 276 l 2,19,20
 570 121 570 121 498.5 54.5 c 128,-1,21
 427 -12 427 -12 303 -12 c 0,0,1
EndSplineSet
EndChar

StartChar: V
Encoding: 86 86 55
Width: 624
Flags: W
LayerCount: 2
Fore
SplineSet
335 0 m 1,0,-1
 183 0 l 1,1,-1
 101 698 l 1,2,-1
 235 698 l 1,3,-1
 261 424 l 2,4,5
 267 364 267 364 282 141 c 1,6,-1
 288 141 l 1,7,-1
 347 270 l 2,8,9
 394 376 394 376 461 507 c 2,10,-1
 556 698 l 1,11,-1
 697 698 l 1,12,-1
 335 0 l 1,0,-1
EndSplineSet
EndChar

StartChar: W
Encoding: 87 87 56
Width: 926
Flags: W
LayerCount: 2
Fore
SplineSet
690 0 m 1,0,-1
 536 0 l 1,1,2
 533 93 533 93 529.5 184.5 c 128,-1,3
 526 276 526 276 526 327 c 2,4,-1
 524 549 l 1,5,-1
 516 549 l 1,6,-1
 287 0 l 1,7,-1
 130 0 l 1,8,-1
 114 698 l 1,9,-1
 245 698 l 1,10,-1
 243 478 l 2,11,12
 242 376 242 376 235 136 c 1,13,-1
 244 136 l 1,14,-1
 338 376 l 2,15,16
 352 412 352 412 372 460 c 2,17,-1
 475 698 l 1,18,-1
 622 698 l 1,19,-1
 630 414 l 1,20,-1
 627 128 l 1,21,-1
 636 128 l 1,22,-1
 720 357 l 1,23,-1
 851 698 l 1,24,-1
 985 698 l 1,25,-1
 690 0 l 1,0,-1
EndSplineSet
EndChar

StartChar: X
Encoding: 88 88 57
Width: 632
Flags: W
LayerCount: 2
Fore
SplineSet
559 0 m 1,0,-1
 416 0 l 1,1,-1
 313 251 l 1,2,-1
 306 251 l 1,3,-1
 117 0 l 1,4,-1
 -37 0 l 1,5,-1
 253 367 l 1,6,-1
 107 698 l 1,7,-1
 250 698 l 1,8,-1
 349 457 l 1,9,-1
 357 457 l 1,10,-1
 542 698 l 1,11,-1
 696 698 l 1,12,-1
 408 346 l 1,13,-1
 559 0 l 1,0,-1
EndSplineSet
EndChar

StartChar: Y
Encoding: 89 89 58
Width: 615
Flags: W
LayerCount: 2
Fore
SplineSet
320 0 m 1,0,-1
 187 0 l 1,1,-1
 241 271 l 1,2,-1
 94 698 l 1,3,-1
 229 698 l 1,4,-1
 327 395 l 1,5,-1
 334 395 l 1,6,-1
 544 698 l 1,7,-1
 691 698 l 1,8,-1
 372 261 l 1,9,-1
 320 0 l 1,0,-1
EndSplineSet
EndChar

StartChar: Z
Encoding: 90 90 59
Width: 571
Flags: W
LayerCount: 2
Fore
SplineSet
483 0 m 1,0,-1
 -12 0 l 1,1,-1
 12 118 l 1,2,-1
 438 581 l 1,3,-1
 119 581 l 1,4,-1
 143 698 l 1,5,-1
 619 698 l 1,6,-1
 595 580 l 1,7,-1
 170 117 l 1,8,-1
 507 117 l 1,9,-1
 483 0 l 1,0,-1
EndSplineSet
EndChar

StartChar: bracketleft
Encoding: 91 91 60
Width: 322
Flags: W
LayerCount: 2
Fore
SplineSet
205 -138 m 1,0,-1
 -2 -138 l 1,1,-1
 178 760 l 1,2,-1
 384 760 l 1,3,-1
 366 669 l 1,4,-1
 276 669 l 1,5,-1
 132 -47 l 1,6,-1
 223 -47 l 1,7,-1
 205 -138 l 1,0,-1
EndSplineSet
EndChar

StartChar: backslash
Encoding: 92 92 61
Width: 460
Flags: W
LayerCount: 2
Fore
SplineSet
360 -151 m 1,0,-1
 255 -151 l 1,1,-1
 147 740 l 1,2,-1
 252 740 l 1,3,-1
 360 -151 l 1,0,-1
EndSplineSet
EndChar

StartChar: bracketright
Encoding: 93 93 62
Width: 322
Flags: W
LayerCount: 2
Fore
SplineSet
163 -138 m 1,0,-1
 -43 -138 l 1,1,-1
 -25 -47 l 1,2,-1
 65 -47 l 1,3,-1
 210 669 l 1,4,-1
 119 669 l 1,5,-1
 137 760 l 1,6,-1
 343 760 l 1,7,-1
 163 -138 l 1,0,-1
EndSplineSet
EndChar

StartChar: asciicircum
Encoding: 94 94 63
Width: 600
Flags: W
LayerCount: 2
Fore
SplineSet
471 283 m 1,0,-1
 367 564 l 1,1,-1
 357 564 l 1,2,-1
 149 283 l 1,3,-1
 54 341 l 1,4,-1
 319 698 l 1,5,-1
 441 698 l 1,6,-1
 578 325 l 1,7,-1
 471 283 l 1,0,-1
EndSplineSet
EndChar

StartChar: underscore
Encoding: 95 95 64
Width: 548
Flags: W
LayerCount: 2
Fore
SplineSet
431 -182 m 1,0,-1
 -60 -182 l 1,1,-1
 -39 -74 l 1,2,-1
 453 -74 l 1,3,-1
 431 -182 l 1,0,-1
EndSplineSet
EndChar

StartChar: grave
Encoding: 96 96 65
Width: 587
Flags: W
LayerCount: 2
Fore
SplineSet
281 581 m 1,0,-1
 180 754 l 1,1,-1
 295 808 l 1,2,-1
 362 616 l 1,3,-1
 281 581 l 1,0,-1
EndSplineSet
EndChar

StartChar: a
Encoding: 97 97 66
Width: 589
Flags: W
LayerCount: 2
Fore
SplineSet
178 -12 m 0,0,1
 128 -12 128 -12 96.5 13 c 128,-1,2
 65 38 65 38 50 80 c 128,-1,3
 35 122 35 122 35 173 c 0,4,5
 35 266 35 266 64.5 348.5 c 128,-1,6
 94 431 94 431 149 483 c 128,-1,7
 204 535 204 535 280 535 c 0,8,9
 334 535 334 535 369.5 507 c 128,-1,10
 405 479 405 479 412 434 c 1,11,-1
 417 434 l 1,12,-1
 435 523 l 1,13,-1
 563 523 l 1,14,-1
 478 104 l 1,15,-1
 540 104 l 1,16,-1
 520 0 l 1,17,-1
 431 0 l 1,18,19
 348 4 348 4 348 76 c 0,20,21
 348 83 348 83 354 120 c 1,22,-1
 348 120 l 1,23,24
 319 56 319 56 279 22 c 128,-1,25
 239 -12 239 -12 178 -12 c 0,0,1
237 94 m 0,26,27
 289 94 289 94 327 139.5 c 128,-1,28
 365 185 365 185 380 251 c 0,29,30
 399 346 399 346 399 356 c 0,31,32
 399 391 399 391 373 410 c 128,-1,33
 347 429 347 429 310 429 c 0,34,35
 210 429 210 429 186 304 c 0,36,37
 180 269 180 269 175 245 c 0,38,39
 166 206 166 206 166 177 c 0,40,41
 167 94 167 94 237 94 c 0,26,27
EndSplineSet
EndChar

StartChar: b
Encoding: 98 98 67
Width: 581
Flags: W
LayerCount: 2
Fore
SplineSet
301 -12 m 0,0,1
 253 -12 253 -12 216 13.5 c 128,-1,2
 179 39 179 39 169 90 c 1,3,-1
 164 90 l 1,4,-1
 146 0 l 1,5,-1
 18 0 l 1,6,-1
 166 740 l 1,7,-1
 294 740 l 1,8,-1
 227 403 l 1,9,-1
 233 403 l 1,10,11
 287 535 287 535 403 535 c 0,12,13
 454 535 454 535 485.5 510 c 128,-1,14
 517 485 517 485 531.5 443 c 128,-1,15
 546 401 546 401 546 350 c 0,16,17
 546 196 546 196 475 92 c 128,-1,18
 404 -12 404 -12 301 -12 c 0,0,1
272 94 m 0,19,20
 371 94 371 94 395 219 c 2,21,-1
 408 291 l 2,22,23
 414 318 414 318 415 334 c 0,24,25
 415 429 415 429 343 429 c 0,26,27
 289 429 289 429 252 382 c 128,-1,28
 215 335 215 335 201 273 c 0,29,30
 185 190 185 190 182 167 c 0,31,32
 182 129 182 129 208 111.5 c 128,-1,33
 234 94 234 94 272 94 c 0,19,20
EndSplineSet
EndChar

StartChar: c
Encoding: 99 99 68
Width: 493
Flags: W
LayerCount: 2
Fore
SplineSet
237 -12 m 0,0,1
 147 -12 147 -12 91 43.5 c 128,-1,2
 35 99 35 99 35 212 c 0,3,4
 35 349 35 349 112 442 c 128,-1,5
 189 535 189 535 309 535 c 0,6,7
 385 535 385 535 432.5 499 c 128,-1,8
 480 463 480 463 493 402 c 1,9,-1
 386 361 l 1,10,11
 377 394 377 394 358.5 412.5 c 128,-1,12
 340 431 340 431 302 431 c 0,13,14
 208 431 208 431 184 314 c 0,15,16
 169 234 169 234 165.5 214 c 128,-1,17
 162 194 162 194 162 183 c 0,18,19
 162 93 162 93 248 93 c 0,20,21
 289 93 289 93 312.5 115.5 c 128,-1,22
 336 138 336 138 358 179 c 1,23,-1
 456 133 l 1,24,25
 384 -12 384 -12 237 -12 c 0,0,1
EndSplineSet
EndChar

StartChar: d
Encoding: 100 100 69
Width: 589
Flags: W
LayerCount: 2
Fore
SplineSet
178 -12 m 0,0,1
 128 -12 128 -12 96.5 13 c 128,-1,2
 65 38 65 38 50 80 c 128,-1,3
 35 122 35 122 35 173 c 0,4,5
 35 274 35 274 66.5 356 c 128,-1,6
 98 438 98 438 153 486.5 c 128,-1,7
 208 535 208 535 280 535 c 0,8,9
 335 535 335 535 369.5 507 c 128,-1,10
 404 479 404 479 412 434 c 1,11,-1
 417 434 l 1,12,-1
 478 740 l 1,13,-1
 606 740 l 1,14,-1
 478 104 l 1,15,-1
 540 104 l 1,16,-1
 520 0 l 1,17,-1
 431 0 l 2,18,19
 381 2 381 2 364 36 c 1,20,21
 348 53 348 53 348 79 c 2,22,-1
 354 120 l 1,23,-1
 348 120 l 1,24,25
 317 53 317 53 277 20.5 c 128,-1,26
 237 -12 237 -12 178 -12 c 0,0,1
238 94 m 0,27,28
 292 94 292 94 329.5 141 c 128,-1,29
 367 188 367 188 380 251 c 0,30,31
 397 336 397 336 399 357 c 0,32,33
 399 388 399 388 376.5 408.5 c 128,-1,34
 354 429 354 429 309 429 c 0,35,36
 210 429 210 429 186 304 c 2,37,-1
 177 256 l 2,38,39
 166 209 166 209 166 177 c 0,40,41
 170 94 170 94 238 94 c 0,27,28
EndSplineSet
EndChar

StartChar: e
Encoding: 101 101 70
Width: 514
Flags: W
LayerCount: 2
Fore
SplineSet
251 -12 m 0,0,1
 137 -12 137 -12 86 50 c 128,-1,2
 35 112 35 112 35 212 c 0,3,4
 35 296 35 296 73.5 376 c 128,-1,5
 112 456 112 456 197 507 c 0,6,7
 249 535 249 535 317 535 c 0,8,9
 367 535 367 535 408.5 520 c 128,-1,10
 450 505 450 505 475 473 c 128,-1,11
 500 441 500 441 500 391 c 0,12,13
 500 219 500 219 164 210 c 1,14,15
 162 196 162 196 162 184 c 0,16,17
 162 93 162 93 260 93 c 0,18,19
 336 93 336 93 394 167 c 1,20,-1
 473 104 l 1,21,22
 388 -12 388 -12 251 -12 c 0,0,1
178 294 m 1,23,24
 285 298 285 298 330 318 c 128,-1,25
 375 338 375 338 375 380 c 0,26,27
 375 436 375 436 309 436 c 0,28,29
 205 436 205 436 181 309 c 2,30,-1
 178 294 l 1,23,24
EndSplineSet
EndChar

StartChar: f
Encoding: 102 102 71
Width: 344
Flags: W
LayerCount: 2
Fore
SplineSet
-11 -200 m 2,0,-1
 -85 -200 l 1,1,-1
 -63 -96 l 1,2,-1
 32 -96 l 1,3,-1
 136 420 l 1,4,-1
 64 420 l 1,5,-1
 84 523 l 1,6,-1
 156 523 l 1,7,-1
 171 597 l 2,8,9
 185 669 185 669 228.5 704.5 c 128,-1,10
 272 740 272 740 350 740 c 2,11,-1
 427 740 l 1,12,-1
 405 636 l 1,13,-1
 307 636 l 1,14,-1
 285 523 l 1,15,-1
 387 523 l 1,16,-1
 366 420 l 1,17,-1
 264 420 l 1,18,-1
 169 -57 l 2,19,20
 153 -129 153 -129 109.5 -164.5 c 128,-1,21
 66 -200 66 -200 -11 -200 c 2,0,-1
EndSplineSet
EndChar

StartChar: g
Encoding: 103 103 72
Width: 570
Flags: W
LayerCount: 2
Fore
SplineSet
205 -212 m 0,0,1
 67 -212 67 -212 -2 -119 c 1,2,-1
 81 -44 l 1,3,4
 123 -108 123 -108 202 -108 c 0,5,6
 306 -108 306 -108 333 21 c 2,7,-1
 355 131 l 1,8,-1
 350 131 l 1,9,10
 293 -1 293 -1 180 -1 c 0,11,12
 129 -1 129 -1 97.5 23.5 c 128,-1,13
 66 48 66 48 51.5 90 c 128,-1,14
 37 132 37 132 37 184 c 0,15,16
 37 285 37 285 66.5 364 c 128,-1,17
 96 443 96 443 151 489 c 128,-1,18
 206 535 206 535 280 535 c 0,19,20
 338 535 338 535 371 506 c 128,-1,21
 404 477 404 477 411 434 c 1,22,-1
 416 434 l 1,23,-1
 434 523 l 1,24,-1
 562 523 l 1,25,-1
 460 14 l 2,26,27
 441 -95 441 -95 382 -153.5 c 128,-1,28
 323 -212 323 -212 205 -212 c 0,0,1
240 106 m 0,29,30
 291 106 291 106 329 150.5 c 128,-1,31
 367 195 367 195 382 262 c 2,32,-1
 391 315 l 2,33,34
 397 345 397 345 397 353 c 0,35,36
 397 380 397 380 378.5 404.5 c 128,-1,37
 360 429 360 429 309 429 c 0,38,39
 209 429 209 429 185 304 c 2,40,-1
 183 293 l 2,41,42
 168 225 168 225 168 189 c 0,43,44
 168 110 168 110 240 106 c 0,29,30
EndSplineSet
EndChar

StartChar: h
Encoding: 104 104 73
Width: 583
Flags: W
LayerCount: 2
Fore
SplineSet
515 0 m 1,0,-1
 428 0 l 2,1,2
 392 0 392 0 370 18 c 128,-1,3
 348 36 348 36 348 73 c 0,4,5
 348 97 348 97 364 166 c 2,6,-1
 379 244 l 2,7,8
 399 331 399 331 399 369 c 0,9,10
 399 427 399 427 341 427 c 0,11,12
 291 427 291 427 252.5 380 c 128,-1,13
 214 333 214 333 201 273 c 2,14,-1
 146 0 l 1,15,-1
 18 0 l 1,16,-1
 166 740 l 1,17,-1
 294 740 l 1,18,-1
 228 405 l 1,19,-1
 233 405 l 1,20,21
 289 535 289 535 404 535 c 0,22,23
 473 535 473 535 502.5 496 c 128,-1,24
 532 457 532 457 532 398 c 0,25,26
 532 362 532 362 523 325 c 2,27,-1
 479 104 l 1,28,-1
 535 104 l 1,29,-1
 515 0 l 1,0,-1
EndSplineSet
EndChar

StartChar: i
Encoding: 105 105 74
Width: 278
Flags: W
LayerCount: 2
Fore
SplineSet
203 593 m 0,0,1
 136 593 136 593 136 642 c 0,2,3
 136 682 136 682 157 714 c 128,-1,4
 178 746 178 746 230 746 c 0,5,6
 296 746 296 746 296 697 c 0,7,8
 296 656 296 656 275.5 624.5 c 128,-1,9
 255 593 255 593 203 593 c 0,0,1
208 0 m 1,10,-1
 122 0 l 2,11,12
 76 0 76 0 56 22.5 c 128,-1,13
 36 45 36 45 36 77 c 0,14,15
 36 86 36 86 123 523 c 1,16,-1
 251 523 l 1,17,-1
 167 104 l 1,18,-1
 228 104 l 1,19,-1
 208 0 l 1,10,-1
EndSplineSet
EndChar

StartChar: j
Encoding: 106 106 75
Width: 272
Flags: W
LayerCount: 2
Fore
SplineSet
-18 -200 m 2,0,-1
 -95 -200 l 1,1,-1
 -75 -97 l 1,2,-1
 2 -97 l 1,3,-1
 126 523 l 1,4,-1
 254 523 l 1,5,-1
 135 -68 l 2,6,7
 122 -135 122 -135 85.5 -167.5 c 128,-1,8
 49 -200 49 -200 -18 -200 c 2,0,-1
206 593 m 0,9,10
 140 593 140 593 140 642 c 0,11,12
 140 682 140 682 160.5 714 c 128,-1,13
 181 746 181 746 233 746 c 0,14,15
 300 746 300 746 300 698 c 0,16,17
 300 655 300 655 279.5 624 c 128,-1,18
 259 593 259 593 206 593 c 0,9,10
EndSplineSet
EndChar

StartChar: k
Encoding: 107 107 76
Width: 544
Flags: W
LayerCount: 2
Fore
SplineSet
475 0 m 1,0,-1
 406 0 l 2,1,2
 334 0 334 0 309 75 c 128,-1,3
 284 150 284 150 257 225 c 1,4,-1
 176 149 l 1,5,-1
 146 0 l 1,6,-1
 18 0 l 1,7,-1
 166 740 l 1,8,-1
 294 740 l 1,9,-1
 206 300 l 1,10,-1
 213 300 l 1,11,-1
 289 389 l 1,12,-1
 424 523 l 1,13,-1
 573 523 l 1,14,-1
 357 311 l 1,15,-1
 435 104 l 1,16,-1
 497 104 l 1,17,-1
 475 0 l 1,0,-1
EndSplineSet
EndChar

StartChar: l
Encoding: 108 108 77
Width: 277
Flags: W
LayerCount: 2
Fore
SplineSet
211 0 m 1,0,-1
 121 0 l 2,1,2
 76 0 76 0 55.5 22 c 128,-1,3
 35 44 35 44 35 77 c 0,4,5
 35 85 35 85 166 740 c 1,6,-1
 294 740 l 1,7,-1
 166 104 l 1,8,-1
 232 104 l 1,9,-1
 211 0 l 1,0,-1
EndSplineSet
EndChar

StartChar: m
Encoding: 109 109 78
Width: 871
Flags: W
LayerCount: 2
Fore
SplineSet
803 0 m 1,0,-1
 716 0 l 2,1,2
 681 0 681 0 658 17.5 c 128,-1,3
 635 35 635 35 635 72 c 0,4,5
 635 86 635 86 680 305 c 0,6,7
 688 347 688 347 688 368 c 0,8,9
 688 427 688 427 638 427 c 256,10,11
 588 427 588 427 552 380 c 128,-1,12
 516 333 516 333 503 273 c 2,13,-1
 449 0 l 1,14,-1
 321 0 l 1,15,-1
 383 313 l 2,16,17
 390 344 390 344 390 368 c 0,18,19
 390 427 390 427 338 427 c 0,20,21
 288 427 288 427 251.5 380 c 128,-1,22
 215 333 215 333 201 273 c 2,23,-1
 146 0 l 1,24,-1
 18 0 l 1,25,-1
 123 523 l 1,26,-1
 251 523 l 1,27,-1
 228 405 l 1,28,-1
 233 405 l 1,29,30
 288 535 288 535 400 535 c 0,31,32
 516 535 516 535 522 405 c 1,33,-1
 527 405 l 1,34,35
 555 463 555 463 594.5 499 c 128,-1,36
 634 535 634 535 698 535 c 0,37,38
 764 535 764 535 792 496 c 128,-1,39
 820 457 820 457 820 401 c 0,40,41
 820 360 820 360 809 314 c 2,42,-1
 767 104 l 1,43,-1
 823 104 l 1,44,-1
 803 0 l 1,0,-1
EndSplineSet
EndChar

StartChar: n
Encoding: 110 110 79
Width: 583
Flags: W
LayerCount: 2
Fore
SplineSet
515 0 m 1,0,-1
 428 0 l 2,1,2
 392 0 392 0 370 18 c 128,-1,3
 348 36 348 36 348 73 c 0,4,5
 348 98 348 98 365 170 c 2,6,-1
 378 235 l 2,7,8
 389 283 389 283 394 313.5 c 128,-1,9
 399 344 399 344 399 369 c 0,10,11
 399 427 399 427 341 427 c 0,12,13
 291 427 291 427 252.5 380 c 128,-1,14
 214 333 214 333 201 273 c 2,15,-1
 146 0 l 1,16,-1
 18 0 l 1,17,-1
 123 523 l 1,18,-1
 251 523 l 1,19,-1
 228 405 l 1,20,-1
 233 405 l 1,21,22
 262 468 262 468 303.5 501.5 c 128,-1,23
 345 535 345 535 404 535 c 0,24,25
 473 535 473 535 502.5 496 c 128,-1,26
 532 457 532 457 532 398 c 0,27,28
 532 352 532 352 519 305 c 2,29,-1
 479 104 l 1,30,-1
 535 104 l 1,31,-1
 515 0 l 1,0,-1
EndSplineSet
EndChar

StartChar: o
Encoding: 111 111 80
Width: 544
Flags: W
LayerCount: 2
Fore
SplineSet
239 -12 m 0,0,1
 147 -12 147 -12 91 43 c 128,-1,2
 35 98 35 98 35 206 c 0,3,4
 35 290 35 290 66.5 365.5 c 128,-1,5
 98 441 98 441 158 488 c 128,-1,6
 218 535 218 535 305 535 c 0,7,8
 362 535 362 535 408.5 513 c 128,-1,9
 455 491 455 491 482 443 c 128,-1,10
 509 395 509 395 509 318 c 0,11,12
 509 222 509 222 472.5 147.5 c 128,-1,13
 436 73 436 73 374.5 30.5 c 128,-1,14
 313 -12 313 -12 239 -12 c 0,0,1
245 93 m 0,15,16
 299 93 299 93 324 130.5 c 128,-1,17
 349 168 349 168 364 233 c 2,18,-1
 378 303 l 2,19,20
 382 320 382 320 382 340 c 0,21,22
 381 431 381 431 299 431 c 0,23,24
 248 431 248 431 220 394.5 c 128,-1,25
 192 358 192 358 180 290 c 2,26,-1
 166 221 l 2,27,28
 162 204 162 204 162 183 c 0,29,30
 162 93 162 93 245 93 c 0,15,16
EndSplineSet
EndChar

StartChar: p
Encoding: 112 112 81
Width: 581
Flags: W
LayerCount: 2
Fore
SplineSet
106 -200 m 1,0,-1
 -22 -200 l 1,1,-1
 123 523 l 1,2,-1
 251 523 l 1,3,-1
 227 403 l 1,4,-1
 233 403 l 1,5,6
 287 535 287 535 403 535 c 0,7,8
 454 535 454 535 485.5 510 c 128,-1,9
 517 485 517 485 531.5 443 c 128,-1,10
 546 401 546 401 546 350 c 0,11,12
 546 196 546 196 475 92 c 128,-1,13
 404 -12 404 -12 301 -12 c 0,14,15
 242 -12 242 -12 209 17 c 128,-1,16
 176 46 176 46 169 90 c 1,17,-1
 164 90 l 1,18,-1
 106 -200 l 1,0,-1
272 94 m 0,19,20
 371 94 371 94 395 219 c 2,21,-1
 408 291 l 2,22,23
 414 318 414 318 415 334 c 0,24,25
 415 429 415 429 343 429 c 0,26,27
 291 429 291 429 252.5 383 c 128,-1,28
 214 337 214 337 201 273 c 0,29,30
 185 190 185 190 182 167 c 0,31,32
 182 129 182 129 208 111.5 c 128,-1,33
 234 94 234 94 272 94 c 0,19,20
EndSplineSet
EndChar

StartChar: q
Encoding: 113 113 82
Width: 581
Flags: W
LayerCount: 2
Fore
SplineSet
418 -200 m 1,0,-1
 290 -200 l 1,1,-1
 354 120 l 1,2,-1
 348 120 l 1,3,4
 317 52 317 52 276 20 c 128,-1,5
 235 -12 235 -12 178 -12 c 0,6,7
 128 -12 128 -12 96.5 13 c 128,-1,8
 65 38 65 38 50 80 c 128,-1,9
 35 122 35 122 35 173 c 0,10,11
 35 328 35 328 104.5 431.5 c 128,-1,12
 174 535 174 535 280 535 c 0,13,14
 335 535 335 535 369.5 506.5 c 128,-1,15
 404 478 404 478 412 434 c 1,16,-1
 417 434 l 1,17,-1
 435 523 l 1,18,-1
 563 523 l 1,19,-1
 418 -200 l 1,0,-1
238 94 m 0,20,21
 288 94 288 94 327 139.5 c 128,-1,22
 366 185 366 185 380 251 c 0,23,24
 399 350 399 350 399 357 c 0,25,26
 399 388 399 388 376.5 408.5 c 128,-1,27
 354 429 354 429 309 429 c 0,28,29
 210 429 210 429 186 304 c 0,30,31
 180 269 180 269 175 245 c 0,32,33
 166 206 166 206 166 177 c 0,34,35
 167 94 167 94 238 94 c 0,20,21
EndSplineSet
EndChar

StartChar: r
Encoding: 114 114 83
Width: 388
Flags: W
LayerCount: 2
Fore
SplineSet
146 0 m 1,0,-1
 18 0 l 1,1,-1
 123 523 l 1,2,-1
 251 523 l 1,3,-1
 226 399 l 1,4,-1
 233 399 l 1,5,6
 252 448 252 448 291.5 485.5 c 128,-1,7
 331 523 331 523 389 523 c 2,8,-1
 415 523 l 1,9,-1
 390 398 l 1,10,-1
 355 398 l 2,11,12
 218 398 218 398 203 282 c 1,13,-1
 146 0 l 1,0,-1
EndSplineSet
EndChar

StartChar: s
Encoding: 115 115 84
Width: 501
Flags: W
LayerCount: 2
Fore
SplineSet
225 -12 m 0,0,1
 87 -12 87 -12 7 83 c 1,2,-1
 88 163 l 1,3,4
 145 94 145 94 230 94 c 0,5,6
 303 94 303 94 311 134 c 0,7,8
 313 140 313 140 313 147 c 0,9,10
 313 182 313 182 263 199 c 2,11,-1
 211 216 l 2,12,13
 69 264 69 264 67 368 c 0,14,15
 67 440 67 440 116.5 487.5 c 128,-1,16
 166 535 166 535 267 535 c 0,17,18
 338 535 338 535 387 515.5 c 128,-1,19
 436 496 436 496 474 453 c 1,20,-1
 395 374 l 1,21,22
 341 429 341 429 272 429 c 0,23,24
 207 429 207 429 199 391 c 1,25,-1
 198 379 l 2,26,27
 198 342 198 342 250 325 c 2,28,-1
 304 307 l 2,29,30
 444 258 444 258 444 155 c 0,31,32
 444 78 444 78 380.5 33 c 128,-1,33
 317 -12 317 -12 225 -12 c 0,0,1
EndSplineSet
EndChar

StartChar: t
Encoding: 116 116 85
Width: 347
Flags: W
LayerCount: 2
Fore
SplineSet
264 0 m 1,0,-1
 174 0 l 2,1,2
 61 0 61 0 61 96 c 0,3,4
 61 113 61 113 122 420 c 1,5,-1
 47 420 l 1,6,-1
 68 523 l 1,7,-1
 104 523 l 2,8,9
 134 523 134 523 146 535 c 128,-1,10
 158 547 158 547 162 576 c 2,11,-1
 180 665 l 1,12,-1
 299 665 l 1,13,-1
 271 523 l 1,14,-1
 376 523 l 1,15,-1
 355 420 l 1,16,-1
 249 420 l 1,17,-1
 187 104 l 1,18,-1
 284 104 l 1,19,-1
 264 0 l 1,0,-1
EndSplineSet
EndChar

StartChar: u
Encoding: 117 117 86
Width: 578
Flags: W
LayerCount: 2
Fore
SplineSet
170 -12 m 0,0,1
 102 -12 102 -12 73 27 c 128,-1,2
 44 66 44 66 44 125 c 0,3,4
 44 164 44 164 53 200 c 2,5,-1
 118 523 l 1,6,-1
 246 523 l 1,7,-1
 183 210 l 2,8,9
 177 180 177 180 177 157 c 0,10,11
 177 96 177 96 231 96 c 0,12,13
 281 96 281 96 318.5 143 c 128,-1,14
 356 190 356 190 369 251 c 2,15,-1
 423 523 l 1,16,-1
 551 523 l 1,17,-1
 467 104 l 1,18,-1
 529 104 l 1,19,-1
 508 0 l 1,20,-1
 420 0 l 2,21,22
 383 1 383 1 359.5 19 c 128,-1,23
 336 37 336 37 336 74 c 0,24,25
 336 91 336 91 339 103 c 2,26,-1
 342 118 l 1,27,-1
 336 118 l 1,28,29
 280 -12 280 -12 170 -12 c 0,0,1
EndSplineSet
EndChar

StartChar: v
Encoding: 118 118 87
Width: 507
Flags: W
LayerCount: 2
Fore
SplineSet
272 0 m 1,0,-1
 118 0 l 1,1,-1
 50 523 l 1,2,-1
 177 523 l 1,3,4
 185 444 185 444 189 403.5 c 128,-1,5
 193 363 193 363 195 341.5 c 128,-1,6
 197 320 197 320 199 299 c 128,-1,7
 201 278 201 278 204 237.5 c 128,-1,8
 207 197 207 197 214 115 c 1,9,-1
 220 115 l 1,10,-1
 309 314 l 1,11,12
 361 418 361 418 411 523 c 1,13,-1
 547 523 l 1,14,-1
 272 0 l 1,0,-1
EndSplineSet
EndChar

StartChar: w
Encoding: 119 119 88
Width: 781
Flags: W
LayerCount: 2
Fore
SplineSet
572 0 m 1,0,-1
 435 0 l 1,1,-1
 406 361 l 1,2,-1
 401 361 l 1,3,4
 319 180 319 180 235 0 c 1,5,-1
 96 0 l 1,6,-1
 58 523 l 1,7,-1
 185 523 l 1,8,-1
 196 141 l 1,9,-1
 202 141 l 1,10,-1
 373 523 l 1,11,-1
 493 523 l 1,12,13
 507 333 507 333 519 136 c 1,14,-1
 525 136 l 1,15,-1
 685 523 l 1,16,-1
 811 523 l 1,17,-1
 572 0 l 1,0,-1
EndSplineSet
EndChar

StartChar: x
Encoding: 120 120 89
Width: 513
Flags: W
LayerCount: 2
Fore
SplineSet
449 0 m 1,0,-1
 310 0 l 1,1,-1
 239 179 l 1,2,-1
 233 179 l 1,3,-1
 94 0 l 1,4,-1
 -47 0 l 1,5,-1
 183 273 l 1,6,-1
 68 523 l 1,7,-1
 206 523 l 1,8,-1
 274 344 l 1,9,-1
 280 344 l 1,10,-1
 417 523 l 1,11,-1
 558 523 l 1,12,-1
 330 254 l 1,13,-1
 449 0 l 1,0,-1
EndSplineSet
EndChar

StartChar: y
Encoding: 121 121 90
Width: 504
Flags: W
LayerCount: 2
Fore
SplineSet
51 -200 m 2,0,-1
 -27 -200 l 1,1,-1
 -6 -97 l 1,2,-1
 90 -97 l 1,3,-1
 125 -27 l 1,4,-1
 49 523 l 1,5,-1
 176 523 l 1,6,-1
 217 120 l 1,7,-1
 222 120 l 1,8,-1
 302 294 l 2,9,10
 321 337 321 337 365 424 c 2,11,-1
 414 523 l 1,12,-1
 550 523 l 1,13,-1
 223 -91 l 1,14,15
 171 -200 171 -200 51 -200 c 2,0,-1
EndSplineSet
EndChar

StartChar: z
Encoding: 122 122 91
Width: 483
Flags: W
LayerCount: 2
Fore
SplineSet
405 0 m 1,0,-1
 -10 0 l 1,1,-1
 10 103 l 1,2,-1
 323 420 l 1,3,-1
 77 420 l 1,4,-1
 97 523 l 1,5,-1
 497 523 l 1,6,-1
 477 420 l 1,7,-1
 163 103 l 1,8,-1
 425 103 l 1,9,-1
 405 0 l 1,0,-1
EndSplineSet
EndChar

StartChar: braceleft
Encoding: 123 123 92
Width: 355
Flags: W
LayerCount: 2
Fore
SplineSet
236 -138 m 1,0,-1
 134 -138 l 2,1,2
 68 -135 68 -135 58 -83 c 2,3,-1
 55 -67 l 1,4,-1
 58 -41 l 1,5,6
 99 169 99 169 100 181 c 0,7,8
 100 204 100 204 92 217 c 1,9,10
 80 258 80 258 24 258 c 1,11,-1
 45 365 l 1,12,13
 138 365 138 365 156 453 c 2,14,-1
 199 664 l 2,15,16
 209 720 209 720 241.5 740 c 128,-1,17
 274 760 274 760 319 760 c 2,18,-1
 415 760 l 1,19,-1
 396 664 l 1,20,-1
 317 664 l 1,21,-1
 272 438 l 2,22,23
 252 327 252 327 146 314 c 1,24,-1
 145 308 l 1,25,26
 180 300 180 300 202 276.5 c 128,-1,27
 224 253 224 253 224 212 c 0,28,29
 224 202 224 202 176 -42 c 1,30,-1
 255 -42 l 1,31,-1
 236 -138 l 1,0,-1
EndSplineSet
EndChar

StartChar: bar
Encoding: 124 124 93
Width: 378
Flags: W
LayerCount: 2
Fore
SplineSet
166 -138 m 1,0,-1
 52 -138 l 1,1,-1
 232 760 l 1,2,-1
 346 760 l 1,3,-1
 166 -138 l 1,0,-1
EndSplineSet
EndChar

StartChar: braceright
Encoding: 125 125 94
Width: 355
Flags: W
LayerCount: 2
Fore
SplineSet
70 -138 m 2,0,-1
 -42 -138 l 1,1,-1
 -23 -42 l 1,2,-1
 57 -42 l 1,3,-1
 102 184 l 2,4,5
 113 234 113 234 141.5 268 c 128,-1,6
 170 302 170 302 228 308 c 1,7,-1
 228 314 l 1,8,9
 193 322 193 322 171 345.5 c 128,-1,10
 149 369 149 369 149 410 c 0,11,12
 152 433 152 433 198 664 c 1,13,-1
 118 664 l 1,14,-1
 138 760 l 1,15,-1
 240 760 l 2,16,17
 276 759 276 759 297 741 c 128,-1,18
 318 723 318 723 318 687 c 0,19,20
 318 675 318 675 316 663 c 0,21,22
 275 460 275 460 274.5 451.5 c 128,-1,23
 274 443 274 443 273 434 c 2,24,-1
 275 418 l 2,25,26
 284 364 284 364 350 364 c 1,27,-1
 328 257 l 1,28,29
 235 257 235 257 217 169 c 2,30,-1
 175 -42 l 2,31,32
 165 -91 165 -91 137.5 -114.5 c 128,-1,33
 110 -138 110 -138 70 -138 c 2,0,-1
EndSplineSet
EndChar

StartChar: asciitilde
Encoding: 126 126 95
Width: 600
Flags: W
LayerCount: 2
Fore
SplineSet
402 216 m 0,0,1
 338 216 338 216 281 253 c 0,2,3
 253 270 253 270 231 279.5 c 128,-1,4
 209 289 209 289 182 289 c 0,5,6
 158 289 158 289 139.5 281.5 c 128,-1,7
 121 274 121 274 98 259 c 1,8,-1
 63 338 l 1,9,10
 110 395 110 395 202 395 c 0,11,12
 238 395 238 395 265.5 383.5 c 128,-1,13
 293 372 293 372 317 357.5 c 128,-1,14
 341 343 341 343 365.5 332.5 c 128,-1,15
 390 322 390 322 422 322 c 0,16,17
 445 322 445 322 464 329.5 c 128,-1,18
 483 337 483 337 506 352 c 1,19,-1
 540 273 l 1,20,21
 490 216 490 216 402 216 c 0,0,1
EndSplineSet
EndChar

StartChar: exclamdown
Encoding: 161 161 97
Width: 306
Flags: W
LayerCount: 2
Fore
SplineSet
135 -175 m 1,0,-1
 -6 -175 l 1,1,-1
 33 21 l 1,2,-1
 132 310 l 1,3,-1
 190 310 l 1,4,-1
 175 21 l 1,5,-1
 135 -175 l 1,0,-1
173 368 m 0,6,7
 101 368 101 368 101 423 c 0,8,9
 101 535 101 535 200 535 c 0,10,11
 272 535 272 535 272 480 c 0,12,13
 272 368 272 368 173 368 c 0,6,7
EndSplineSet
EndChar

StartChar: cent
Encoding: 162 162 98
Width: 527
Flags: W
LayerCount: 2
Fore
SplineSet
261 -114 m 1,0,-1
 159 -114 l 1,1,-1
 181 -4 l 1,2,3
 114 14 114 14 75 68.5 c 128,-1,4
 36 123 36 123 36 218 c 0,5,6
 36 331 36 331 101 417.5 c 128,-1,7
 166 504 166 504 286 525 c 1,8,-1
 307 630 l 1,9,-1
 409 630 l 1,10,-1
 387 521 l 1,11,12
 489 494 489 494 517 401 c 1,13,-1
 417 352 l 1,14,15
 405 402 405 402 359 420 c 1,16,-1
 294 94 l 1,17,18
 351 112 351 112 388 170 c 1,19,-1
 474 117 l 1,20,21
 411 10 411 10 282 -9 c 1,22,-1
 261 -114 l 1,0,-1
209 98 m 1,23,-1
 273 419 l 1,24,25
 199 392 199 392 181 305 c 2,26,-1
 174 272 l 2,27,28
 160 220 160 220 160 185 c 0,29,30
 160 119 160 119 209 98 c 1,23,-1
EndSplineSet
EndChar

StartChar: sterling
Encoding: 163 163 99
Width: 589
Flags: W
LayerCount: 2
Fore
SplineSet
493 0 m 1,0,-1
 29 0 l 1,1,-1
 55 128 l 1,2,3
 108 153 108 153 132.5 195.5 c 128,-1,4
 157 238 157 238 157 291 c 1,5,-1
 57 291 l 1,6,-1
 79 398 l 1,7,-1
 144 398 l 1,8,9
 140 425 140 425 140 454 c 0,10,11
 140 519 140 519 170.5 578 c 128,-1,12
 201 637 201 637 260.5 673.5 c 128,-1,13
 320 710 320 710 407 710 c 0,14,15
 557 710 557 710 620 591 c 1,16,-1
 514 521 l 1,17,18
 479 593 479 593 397 593 c 0,19,20
 331 593 331 593 302 550.5 c 128,-1,21
 273 508 273 508 273 446 c 0,22,23
 273 420 273 420 276 398 c 1,24,-1
 471 398 l 1,25,-1
 449 291 l 1,26,-1
 291 291 l 1,27,28
 274 163 274 163 189 124 c 1,29,-1
 187 115 l 1,30,-1
 516 115 l 1,31,-1
 493 0 l 1,0,-1
EndSplineSet
EndChar

StartChar: yen
Encoding: 165 165 100
Width: 620
Flags: W
LayerCount: 2
Fore
SplineSet
324 0 m 1,0,-1
 191 0 l 1,1,-1
 217 137 l 1,2,-1
 55 137 l 1,3,-1
 72 221 l 1,4,-1
 235 221 l 1,5,-1
 249 296 l 1,6,-1
 87 296 l 1,7,-1
 104 380 l 1,8,-1
 214 380 l 1,9,-1
 112 698 l 1,10,-1
 253 698 l 1,11,-1
 337 418 l 1,12,-1
 341 418 l 1,13,-1
 534 698 l 1,14,-1
 688 698 l 1,15,-1
 455 380 l 1,16,-1
 566 380 l 1,17,-1
 549 296 l 1,18,-1
 383 296 l 1,19,-1
 369 221 l 1,20,-1
 534 221 l 1,21,-1
 517 137 l 1,22,-1
 351 137 l 1,23,-1
 324 0 l 1,0,-1
EndSplineSet
EndChar

StartChar: brokenbar
Encoding: 166 166 101
Width: 378
Flags: W
LayerCount: 2
Fore
SplineSet
274 402 m 1,0,-1
 160 402 l 1,1,-1
 232 760 l 1,2,-1
 346 760 l 1,3,-1
 274 402 l 1,0,-1
166 -138 m 1,4,-1
 52 -138 l 1,5,-1
 124 220 l 1,6,-1
 238 220 l 1,7,-1
 166 -138 l 1,4,-1
EndSplineSet
EndChar

StartChar: section
Encoding: 167 167 102
Width: 557
Flags: W
LayerCount: 2
Fore
SplineSet
206 -160 m 0,0,1
 81 -160 81 -160 15 -88 c 1,2,-1
 92 -12 l 1,3,4
 133 -65 133 -65 218 -65 c 0,5,6
 254 -65 254 -65 279.5 -45.5 c 128,-1,7
 305 -26 305 -26 310 3 c 2,8,-1
 312 18 l 1,9,10
 310 42 310 42 296 57.5 c 128,-1,11
 282 73 282 73 247 85 c 0,12,13
 201 100 201 100 162 116 c 0,14,15
 112 134 112 134 84 161 c 128,-1,16
 56 188 56 188 56 239 c 0,17,18
 56 356 56 356 186 396 c 1,19,-1
 188 405 l 1,20,21
 133 450 133 450 133 517 c 0,22,23
 133 580 133 580 164.5 623 c 128,-1,24
 196 666 196 666 247.5 688 c 128,-1,25
 299 710 299 710 357 710 c 0,26,27
 482 710 482 710 547 636 c 1,28,-1
 471 562 l 1,29,30
 429 615 429 615 345 615 c 0,31,32
 306 615 306 615 278 594 c 128,-1,33
 250 573 250 573 250 539 c 0,34,35
 250 516 250 516 263 500 c 128,-1,36
 276 484 276 484 316 471 c 0,37,38
 423 437 423 437 465 405 c 128,-1,39
 507 373 507 373 507 315 c 0,40,41
 507 199 507 199 376 159 c 1,42,-1
 375 149 l 1,43,44
 429 106 429 106 429 35 c 0,45,46
 429 -49 429 -49 368 -104.5 c 128,-1,47
 307 -160 307 -160 206 -160 c 0,0,1
336 171 m 1,48,49
 394 211 394 211 394 271 c 0,50,51
 394 333 394 333 308 356 c 2,52,-1
 277 365 l 2,53,54
 237 376 237 376 227 383 c 1,55,56
 169 343 169 343 169 284 c 0,57,58
 169 245 169 245 191.5 226.5 c 128,-1,59
 214 208 214 208 257 198 c 0,60,61
 324 177 324 177 336 171 c 1,48,49
EndSplineSet
EndChar

StartChar: dieresis
Encoding: 168 168 103
Width: 586
Flags: W
LayerCount: 2
Fore
SplineSet
209 603 m 0,0,1
 148 603 148 603 148 649 c 0,2,3
 148 745 148 745 234 745 c 0,4,5
 294 745 294 745 294 700 c 0,6,7
 294 603 294 603 209 603 c 0,0,1
405 603 m 0,8,9
 345 603 345 603 345 649 c 0,10,11
 345 745 345 745 430 745 c 0,12,13
 490 745 490 745 490 700 c 0,14,15
 490 603 490 603 405 603 c 0,8,9
EndSplineSet
EndChar

StartChar: copyright
Encoding: 169 169 104
Width: 773
Flags: W
LayerCount: 2
Fore
SplineSet
351 -12 m 0,0,1
 224 -12 224 -12 142 69 c 128,-1,2
 60 150 60 150 60 293 c 0,3,4
 60 427 60 427 118 520 c 0,5,6
 179 616 179 616 269 662.5 c 128,-1,7
 359 709 359 709 454 709 c 0,8,9
 550 709 550 709 615 665.5 c 128,-1,10
 680 622 680 622 712.5 552.5 c 128,-1,11
 745 483 745 483 745 405 c 0,12,13
 745 270 745 270 688 177 c 0,14,15
 625 80 625 80 534.5 34 c 128,-1,16
 444 -12 444 -12 351 -12 c 0,0,1
355 50 m 0,17,18
 435 50 435 50 497.5 84 c 128,-1,19
 560 118 560 118 601.5 173.5 c 128,-1,20
 643 229 643 229 658.5 296.5 c 128,-1,21
 674 364 674 364 674 405 c 0,22,23
 674 518 674 518 609.5 582.5 c 128,-1,24
 545 647 545 647 450 647 c 0,25,26
 373 647 373 647 310 614 c 128,-1,27
 247 581 247 581 204.5 525.5 c 128,-1,28
 162 470 162 470 145 401 c 0,29,30
 130 330 130 330 130 293 c 0,31,32
 130 216 130 216 160 161.5 c 128,-1,33
 190 107 190 107 241 78.5 c 128,-1,34
 292 50 292 50 355 50 c 0,17,18
382 138 m 0,35,36
 305 138 305 138 259 185.5 c 128,-1,37
 213 233 213 233 213 310 c 0,38,39
 213 374 213 374 240.5 431 c 128,-1,40
 268 488 268 488 317 524 c 128,-1,41
 366 560 366 560 431 560 c 0,42,43
 500 560 500 560 537.5 531 c 128,-1,44
 575 502 575 502 590 449 c 1,45,-1
 499 409 l 1,46,47
 487 467 487 467 431 467 c 0,48,49
 364 467 364 467 347 391 c 2,50,-1
 331 305 l 1,51,-1
 331 292 l 2,52,53
 331 231 331 231 396 230 c 0,54,55
 444 230 444 230 481 288 c 1,56,-1
 563 244 l 1,57,58
 504 138 504 138 382 138 c 0,35,36
EndSplineSet
EndChar

StartChar: ordfeminine
Encoding: 170 170 105
Width: 433
Flags: W
LayerCount: 2
Fore
SplineSet
179 335 m 0,0,1
 138 335 138 335 108.5 358.5 c 128,-1,2
 79 382 79 382 79 427 c 0,3,4
 80 550 80 550 260 550 c 2,5,-1
 315 550 l 1,6,7
 322 586 322 586 322 593 c 0,8,9
 322 640 322 640 266 640 c 0,10,11
 237 640 237 640 215.5 628 c 128,-1,12
 194 616 194 616 176 593 c 1,13,-1
 123 638 l 1,14,15
 177 710 177 710 279 710 c 0,16,17
 347 710 347 710 383 681 c 128,-1,18
 419 652 419 652 419 604 c 0,19,20
 419 594 419 594 384 413 c 1,21,-1
 422 413 l 1,22,-1
 408 343 l 1,23,-1
 354 343 l 2,24,25
 317 343 317 343 306 368 c 0,26,27
 299 375 299 375 297.5 383 c 128,-1,28
 296 391 296 391 296 405 c 1,29,-1
 292 405 l 1,30,31
 258 335 258 335 179 335 c 0,0,1
219 399 m 0,32,33
 281 399 281 399 297 462 c 2,34,-1
 304 498 l 1,35,-1
 245 498 l 2,36,37
 173 498 173 498 172 432 c 0,38,39
 172 399 172 399 219 399 c 0,32,33
EndSplineSet
EndChar

StartChar: guillemotleft
Encoding: 171 171 106
Width: 550
Flags: W
LayerCount: 2
Fore
SplineSet
189 55 m 1,0,-1
 34 217 l 1,1,-1
 57 335 l 1,2,-1
 263 493 l 1,3,-1
 299 407 l 1,4,-1
 145 267 l 1,5,-1
 241 132 l 1,6,-1
 189 55 l 1,0,-1
430 55 m 1,7,-1
 274 217 l 1,8,-1
 298 335 l 1,9,-1
 504 493 l 1,10,-1
 540 407 l 1,11,-1
 386 267 l 1,12,-1
 482 132 l 1,13,-1
 430 55 l 1,7,-1
EndSplineSet
EndChar

StartChar: logicalnot
Encoding: 172 172 107
Width: 600
Flags: W
LayerCount: 2
Fore
SplineSet
479 79 m 1,0,-1
 370 79 l 1,1,-1
 405 253 l 1,2,-1
 66 253 l 1,3,-1
 88 359 l 1,4,-1
 536 359 l 1,5,-1
 479 79 l 1,0,-1
EndSplineSet
EndChar

StartChar: u00AD
Encoding: 173 173 108
Width: 394
Flags: W
LayerCount: 2
Fore
SplineSet
336 243 m 1,0,-1
 50 243 l 1,1,-1
 75 367 l 1,2,-1
 361 367 l 1,3,-1
 336 243 l 1,0,-1
EndSplineSet
EndChar

StartChar: registered
Encoding: 174 174 109
Width: 456
Flags: W
LayerCount: 2
Fore
SplineSet
249 298 m 0,0,1
 172 298 172 298 121.5 346 c 128,-1,2
 71 394 71 394 71 471 c 256,3,4
 71 548 71 548 105 601 c 128,-1,5
 139 654 139 654 191.5 682 c 128,-1,6
 244 710 244 710 300 710 c 0,7,8
 383 710 383 710 430 658.5 c 128,-1,9
 477 607 477 607 477 536 c 0,10,11
 477 430 477 430 410 364 c 128,-1,12
 343 298 343 298 249 298 c 0,0,1
255 341 m 0,13,14
 308 341 308 341 341.5 365 c 128,-1,15
 375 389 375 389 394.5 422.5 c 128,-1,16
 414 456 414 456 421.5 489 c 128,-1,17
 429 522 429 522 429 540 c 0,18,19
 429 607 429 607 388.5 637 c 128,-1,20
 348 667 348 667 294 667 c 0,21,22
 230 667 230 667 191.5 631.5 c 128,-1,23
 153 596 153 596 136.5 550 c 128,-1,24
 120 504 120 504 120 468 c 0,25,26
 120 400 120 400 160 370.5 c 128,-1,27
 200 341 200 341 255 341 c 0,13,14
349 400 m 1,28,-1
 290 400 l 1,29,-1
 265 466 l 1,30,-1
 243 466 l 1,31,-1
 230 400 l 1,32,-1
 173 400 l 1,33,-1
 215 609 l 1,34,-1
 303 609 l 2,35,36
 375 609 375 609 375 545 c 0,37,38
 375 524 375 524 361.5 504.5 c 128,-1,39
 348 485 348 485 321 475 c 1,40,-1
 349 400 l 1,28,-1
281 507 m 2,41,42
 316 507 316 507 316 547 c 0,43,44
 316 565 316 565 292 565 c 2,45,-1
 263 565 l 1,46,-1
 252 507 l 1,47,-1
 281 507 l 2,41,42
EndSplineSet
EndChar

StartChar: macron
Encoding: 175 175 110
Width: 587
Flags: W
LayerCount: 2
Fore
SplineSet
449 627 m 1,0,-1
 172 627 l 1,1,-1
 191 723 l 1,2,-1
 468 723 l 1,3,-1
 449 627 l 1,0,-1
EndSplineSet
EndChar

StartChar: degree
Encoding: 176 176 111
Width: 458
Flags: W
LayerCount: 2
Fore
SplineSet
263 340 m 0,0,1
 188 340 188 340 144 390.5 c 128,-1,2
 100 441 100 441 100 507 c 0,3,4
 100 567 100 567 128.5 613 c 128,-1,5
 157 659 157 659 203 684.5 c 128,-1,6
 249 710 249 710 301 710 c 0,7,8
 376 710 376 710 420 658.5 c 128,-1,9
 464 607 464 607 464 543 c 0,10,11
 464 456 464 456 405.5 398 c 128,-1,12
 347 340 347 340 263 340 c 0,0,1
273 427 m 0,13,14
 318 427 318 427 343.5 461 c 128,-1,15
 369 495 369 495 369 542 c 0,16,17
 369 574 369 574 350 598.5 c 128,-1,18
 331 623 331 623 292 623 c 0,19,20
 245 623 245 623 220 587.5 c 128,-1,21
 195 552 195 552 195 508 c 0,22,23
 195 476 195 476 214 451.5 c 128,-1,24
 233 427 233 427 273 427 c 0,13,14
EndSplineSet
EndChar

StartChar: plusminus
Encoding: 177 177 112
Width: 600
Flags: W
LayerCount: 2
Fore
SplineSet
340 178 m 1,0,-1
 225 178 l 1,1,-1
 260 351 l 1,2,-1
 87 351 l 1,3,-1
 108 458 l 1,4,-1
 281 458 l 1,5,-1
 315 631 l 1,6,-1
 430 631 l 1,7,-1
 396 458 l 1,8,-1
 568 458 l 1,9,-1
 547 351 l 1,10,-1
 375 351 l 1,11,-1
 340 178 l 1,0,-1
478 0 m 1,12,-1
 18 0 l 1,13,-1
 39 106 l 1,14,-1
 499 106 l 1,15,-1
 478 0 l 1,12,-1
EndSplineSet
EndChar

StartChar: u00B2
Encoding: 178 178 113
Width: 340
Flags: W
LayerCount: 2
Fore
SplineSet
316 329 m 1,0,-1
 39 329 l 1,1,-1
 55 409 l 1,2,-1
 204 508 l 2,3,4
 240 532 240 532 250 546 c 0,5,6
 265 568 265 568 268 591 c 0,7,8
 268 621 268 621 226 626 c 0,9,10
 211 626 211 626 200 620 c 0,11,12
 172 612 172 612 160 579 c 1,13,-1
 83 608 l 1,14,15
 126 704 126 704 232 704 c 0,16,17
 286 704 286 704 324.5 678 c 128,-1,18
 363 652 363 652 363 600 c 256,19,20
 363 548 363 548 323 509 c 128,-1,21
 283 470 283 470 220 439 c 1,22,-1
 161 402 l 1,23,-1
 331 402 l 1,24,-1
 316 329 l 1,0,-1
EndSplineSet
EndChar

StartChar: u00B3
Encoding: 179 179 114
Width: 333
Flags: W
LayerCount: 2
Fore
SplineSet
172 323 m 0,0,1
 64 323 64 323 36 395 c 1,2,-1
 100 441 l 1,3,4
 119 394 119 394 173 394 c 0,5,6
 195 394 195 394 214 404.5 c 128,-1,7
 233 415 233 415 238 449 c 1,8,9
 238 482 238 482 186 482 c 2,10,-1
 145 482 l 1,11,-1
 159 554 l 1,12,-1
 197 554 l 2,13,14
 256 554 256 554 262 588 c 2,15,-1
 264 602 l 1,16,17
 262 633 262 633 219 633 c 0,18,19
 174 633 174 633 139 589 c 1,20,-1
 90 644 l 1,21,22
 140 704 140 704 231 704 c 0,23,24
 286 704 286 704 322 681.5 c 128,-1,25
 358 659 358 659 358 614 c 0,26,27
 358 540 358 540 268 521 c 1,28,-1
 268 519 l 1,29,30
 332 507 332 507 332 445 c 0,31,32
 332 395 332 395 293.5 359 c 128,-1,33
 255 323 255 323 172 323 c 0,0,1
EndSplineSet
EndChar

StartChar: acute
Encoding: 180 180 115
Width: 586
Flags: W
LayerCount: 2
Fore
SplineSet
320 580 m 1,0,-1
 243 622 l 1,1,-1
 359 808 l 1,2,-1
 463 753 l 1,3,-1
 320 580 l 1,0,-1
EndSplineSet
EndChar

StartChar: mu
Encoding: 181 181 116
Width: 583
Flags: W
LayerCount: 2
Fore
SplineSet
106 -200 m 1,0,-1
 -22 -200 l 1,1,-1
 123 523 l 1,2,-1
 251 523 l 1,3,-1
 188 206 l 2,4,5
 183 169 183 169 183 155 c 0,6,7
 183 98 183 98 239 96 c 0,8,9
 287 96 287 96 321 136 c 128,-1,10
 355 176 355 176 371 238 c 2,11,-1
 429 523 l 1,12,-1
 557 523 l 1,13,-1
 473 104 l 1,14,-1
 535 104 l 1,15,-1
 514 0 l 1,16,-1
 423 0 l 2,17,18
 388 0 388 0 364.5 19.5 c 128,-1,19
 341 39 341 39 341 78 c 0,20,21
 341 86 341 86 342.5 95 c 128,-1,22
 344 104 344 104 346 118 c 1,23,-1
 341 118 l 1,24,25
 314 56 314 56 281 22 c 128,-1,26
 248 -12 248 -12 199 -12 c 0,27,28
 142 -12 142 -12 131 36 c 1,29,-1
 126 36 l 1,30,-1
 126 -92 l 1,31,-1
 106 -200 l 1,0,-1
EndSplineSet
EndChar

StartChar: paragraph
Encoding: 182 182 117
Width: 643
Flags: W
LayerCount: 2
Fore
SplineSet
435 -149 m 1,0,-1
 339 -149 l 1,1,-1
 489 601 l 1,2,-1
 392 601 l 1,3,-1
 241 -149 l 1,4,-1
 145 -149 l 1,5,-1
 229 270 l 1,6,7
 159 270 159 270 114.5 327.5 c 128,-1,8
 70 385 70 385 70 457 c 0,9,10
 70 562 70 562 146 630 c 128,-1,11
 222 698 222 698 327 698 c 2,12,-1
 666 698 l 1,13,-1
 647 601 l 1,14,-1
 586 601 l 1,15,-1
 435 -149 l 1,0,-1
EndSplineSet
EndChar

StartChar: periodcentered
Encoding: 183 183 118
Width: 344
Flags: W
LayerCount: 2
Fore
SplineSet
165 218 m 0,0,1
 125 218 125 218 109.5 235.5 c 128,-1,2
 94 253 94 253 94 275 c 0,3,4
 94 389 94 389 191 389 c 0,5,6
 232 389 232 389 247.5 371 c 128,-1,7
 263 353 263 353 263 332 c 2,8,-1
 261 319 l 2,9,10
 260 303 260 303 257 291 c 0,11,12
 242 218 242 218 165 218 c 0,0,1
EndSplineSet
EndChar

StartChar: cedilla
Encoding: 184 184 119
Width: 587
Flags: W
LayerCount: 2
Fore
SplineSet
271 -211 m 0,0,1
 229 -211 229 -211 202 -198 c 128,-1,2
 175 -185 175 -185 162 -167 c 1,3,-1
 211 -117 l 1,4,5
 229 -144 229 -144 270 -144 c 0,6,7
 319 -142 319 -142 319 -112 c 0,8,9
 319 -93 319 -93 297.5 -85 c 128,-1,10
 276 -77 276 -77 232 -74 c 1,11,-1
 273 28 l 1,12,-1
 336 28 l 1,13,-1
 304 -56 l 1,14,-1
 306 -60 l 1,15,16
 325 -54 325 -54 347 -54 c 0,17,18
 370 -54 370 -54 389 -66.5 c 128,-1,19
 408 -79 408 -79 408 -110 c 0,20,21
 408 -161 408 -161 366.5 -186 c 128,-1,22
 325 -211 325 -211 271 -211 c 0,0,1
EndSplineSet
EndChar

StartChar: u00B9
Encoding: 185 185 120
Width: 313
Flags: W
LayerCount: 2
Fore
SplineSet
241 329 m 1,0,-1
 152 329 l 1,1,-1
 209 614 l 1,2,-1
 121 572 l 1,3,-1
 138 658 l 1,4,-1
 221 698 l 1,5,-1
 315 698 l 1,6,-1
 241 329 l 1,0,-1
EndSplineSet
EndChar

StartChar: ordmasculine
Encoding: 186 186 121
Width: 420
Flags: W
LayerCount: 2
Fore
SplineSet
233 334 m 0,0,1
 158 334 158 334 122.5 379.5 c 128,-1,2
 87 425 87 425 87 489 c 0,3,4
 87 545 87 545 110 595.5 c 128,-1,5
 133 646 133 646 178.5 678 c 128,-1,6
 224 710 224 710 290 710 c 0,7,8
 352 710 352 710 394.5 671.5 c 128,-1,9
 437 633 437 633 437 555 c 0,10,11
 437 496 437 496 412.5 446 c 128,-1,12
 388 396 388 396 342.5 365 c 128,-1,13
 297 334 297 334 233 334 c 0,0,1
243 406 m 0,14,15
 311 406 311 406 329 495 c 2,16,-1
 344 571 l 1,17,18
 344 606 344 606 327 622 c 128,-1,19
 310 638 310 638 281 638 c 0,20,21
 233 638 233 638 206.5 585.5 c 128,-1,22
 180 533 180 533 180 467 c 0,23,24
 182 406 182 406 243 406 c 0,14,15
EndSplineSet
EndChar

StartChar: guillemotright
Encoding: 187 187 122
Width: 550
Flags: W
LayerCount: 2
Fore
SplineSet
290 56 m 1,0,-1
 254 142 l 1,1,-1
 408 282 l 1,2,-1
 312 417 l 1,3,-1
 364 494 l 1,4,-1
 520 332 l 1,5,-1
 496 214 l 1,6,-1
 290 56 l 1,0,-1
49 56 m 1,7,-1
 14 142 l 1,8,-1
 167 282 l 1,9,-1
 71 417 l 1,10,-1
 123 494 l 1,11,-1
 279 332 l 1,12,-1
 255 214 l 1,13,-1
 49 56 l 1,7,-1
EndSplineSet
EndChar

StartChar: onequarter
Encoding: 188 188 123
Width: 834
Flags: W
LayerCount: 2
Fore
SplineSet
141 0 m 1,0,-1
 35 0 l 1,1,-1
 683 698 l 1,2,-1
 789 698 l 1,3,-1
 141 0 l 1,0,-1
669 0 m 1,4,-1
 582 0 l 1,5,-1
 596 71 l 1,6,-1
 424 71 l 1,7,-1
 440 146 l 1,8,-1
 638 369 l 1,9,-1
 743 369 l 1,10,-1
 696 137 l 1,11,-1
 743 137 l 1,12,-1
 728 71 l 1,13,-1
 683 71 l 1,14,-1
 669 0 l 1,4,-1
610 137 m 1,15,-1
 636 266 l 1,16,-1
 630 266 l 1,17,-1
 514 137 l 1,18,-1
 610 137 l 1,15,-1
241 329 m 1,19,-1
 152 329 l 1,20,-1
 209 614 l 1,21,-1
 121 572 l 1,22,-1
 138 658 l 1,23,-1
 221 698 l 1,24,-1
 315 698 l 1,25,-1
 241 329 l 1,19,-1
EndSplineSet
EndChar

StartChar: onehalf
Encoding: 189 189 124
Width: 831
Flags: W
LayerCount: 2
Fore
SplineSet
141 0 m 1,0,-1
 35 0 l 1,1,-1
 683 698 l 1,2,-1
 789 698 l 1,3,-1
 141 0 l 1,0,-1
739 0 m 1,4,-1
 461 0 l 1,5,-1
 477 80 l 1,6,-1
 626 179 l 2,7,8
 660 202 660 202 673 217 c 0,9,10
 688 238 688 238 690 262 c 0,11,12
 690 296 690 296 647 298 c 0,13,14
 633 298 633 298 622 291 c 0,15,16
 594 283 594 283 582 250 c 1,17,-1
 506 279 l 1,18,19
 549 375 549 375 654 375 c 0,20,21
 709 375 709 375 747.5 348 c 128,-1,22
 786 321 786 321 786 271 c 0,23,24
 786 219 786 219 746 180 c 128,-1,25
 706 141 706 141 643 110 c 1,26,-1
 584 73 l 1,27,-1
 753 73 l 1,28,-1
 739 0 l 1,4,-1
241 329 m 1,29,-1
 152 329 l 1,30,-1
 209 614 l 1,31,-1
 121 572 l 1,32,-1
 138 658 l 1,33,-1
 221 698 l 1,34,-1
 315 698 l 1,35,-1
 241 329 l 1,29,-1
EndSplineSet
EndChar

StartChar: threequarters
Encoding: 190 190 125
Width: 862
Flags: W
LayerCount: 2
Fore
SplineSet
172 323 m 0,0,1
 64 323 64 323 36 395 c 1,2,-1
 100 441 l 1,3,4
 119 394 119 394 173 394 c 0,5,6
 195 394 195 394 214 404.5 c 128,-1,7
 233 415 233 415 238 449 c 1,8,9
 238 482 238 482 186 482 c 2,10,-1
 145 482 l 1,11,-1
 159 554 l 1,12,-1
 197 554 l 2,13,14
 256 554 256 554 262 588 c 2,15,-1
 264 602 l 1,16,17
 262 633 262 633 219 633 c 0,18,19
 174 633 174 633 139 589 c 1,20,-1
 90 644 l 1,21,22
 140 704 140 704 231 704 c 0,23,24
 286 704 286 704 322 681.5 c 128,-1,25
 358 659 358 659 358 614 c 0,26,27
 358 540 358 540 268 521 c 1,28,-1
 268 519 l 1,29,30
 332 507 332 507 332 445 c 0,31,32
 332 395 332 395 293.5 359 c 128,-1,33
 255 323 255 323 172 323 c 0,0,1
170 0 m 1,34,-1
 63 0 l 1,35,-1
 711 698 l 1,36,-1
 817 698 l 1,37,-1
 170 0 l 1,34,-1
697 0 m 1,38,-1
 611 0 l 1,39,-1
 625 71 l 1,40,-1
 452 71 l 1,41,-1
 469 146 l 1,42,-1
 667 369 l 1,43,-1
 771 369 l 1,44,-1
 725 137 l 1,45,-1
 771 137 l 1,46,-1
 756 71 l 1,47,-1
 711 71 l 1,48,-1
 697 0 l 1,38,-1
638 137 m 1,49,-1
 665 266 l 1,50,-1
 658 266 l 1,51,-1
 542 137 l 1,52,-1
 638 137 l 1,49,-1
EndSplineSet
EndChar

StartChar: questiondown
Encoding: 191 191 126
Width: 487
Flags: W
LayerCount: 2
Fore
SplineSet
181 -187 m 0,0,1
 96 -187 96 -187 39 -146 c 128,-1,2
 -18 -105 -18 -105 -18 -20 c 0,3,4
 -18 67 -18 67 41.5 129 c 128,-1,5
 101 191 101 191 194 213 c 1,6,-1
 212 295 l 1,7,-1
 337 295 l 1,8,-1
 305 140 l 1,9,10
 119 124 119 124 119 -5 c 0,11,12
 119 -43 119 -43 143 -58.5 c 128,-1,13
 167 -74 167 -74 199 -74 c 0,14,15
 281 -74 281 -74 317 20 c 1,16,-1
 422 -26 l 1,17,18
 350 -187 350 -187 181 -187 c 0,0,1
287 368 m 0,19,20
 215 368 215 368 215 423 c 0,21,22
 215 535 215 535 315 535 c 0,23,24
 385 535 385 535 387 480 c 0,25,26
 387 368 387 368 287 368 c 0,19,20
EndSplineSet
EndChar

StartChar: Agrave
Encoding: 192 192 127
Width: 651
Flags: W
LayerCount: 2
Fore
SplineSet
580 0 m 1,0,-1
 446 0 l 1,1,-1
 428 176 l 1,2,-1
 196 176 l 1,3,-1
 109 0 l 1,4,-1
 -33 0 l 1,5,-1
 328 698 l 1,6,-1
 498 698 l 1,7,-1
 580 0 l 1,0,-1
418 288 m 1,8,-1
 393 577 l 1,9,-1
 385 577 l 1,10,-1
 249 288 l 1,11,-1
 418 288 l 1,8,-1
398 743 m 1,12,-1
 297 917 l 1,13,-1
 412 970 l 1,14,-1
 479 779 l 1,15,-1
 398 743 l 1,12,-1
EndSplineSet
EndChar

StartChar: Aacute
Encoding: 193 193 128
Width: 651
Flags: W
LayerCount: 2
Fore
SplineSet
580 0 m 1,0,-1
 446 0 l 1,1,-1
 428 176 l 1,2,-1
 196 176 l 1,3,-1
 109 0 l 1,4,-1
 -33 0 l 1,5,-1
 328 698 l 1,6,-1
 498 698 l 1,7,-1
 580 0 l 1,0,-1
418 288 m 1,8,-1
 393 577 l 1,9,-1
 385 577 l 1,10,-1
 249 288 l 1,11,-1
 418 288 l 1,8,-1
436 742 m 1,12,-1
 358 784 l 1,13,-1
 474 971 l 1,14,-1
 578 915 l 1,15,-1
 436 742 l 1,12,-1
EndSplineSet
EndChar

StartChar: Acircumflex
Encoding: 194 194 129
Width: 651
Flags: W
LayerCount: 2
Fore
SplineSet
580 0 m 1,0,-1
 446 0 l 1,1,-1
 428 176 l 1,2,-1
 196 176 l 1,3,-1
 109 0 l 1,4,-1
 -33 0 l 1,5,-1
 328 698 l 1,6,-1
 498 698 l 1,7,-1
 580 0 l 1,0,-1
418 288 m 1,8,-1
 393 577 l 1,9,-1
 385 577 l 1,10,-1
 249 288 l 1,11,-1
 418 288 l 1,8,-1
536 743 m 1,12,-1
 439 858 l 1,13,-1
 304 743 l 1,14,-1
 239 795 l 1,15,-1
 392 951 l 1,16,-1
 509 951 l 1,17,-1
 605 795 l 1,18,-1
 536 743 l 1,12,-1
EndSplineSet
EndChar

StartChar: Atilde
Encoding: 195 195 130
Width: 651
Flags: W
LayerCount: 2
Fore
SplineSet
580 0 m 1,0,-1
 446 0 l 1,1,-1
 428 176 l 1,2,-1
 196 176 l 1,3,-1
 109 0 l 1,4,-1
 -33 0 l 1,5,-1
 328 698 l 1,6,-1
 498 698 l 1,7,-1
 580 0 l 1,0,-1
418 288 m 1,8,-1
 393 577 l 1,9,-1
 385 577 l 1,10,-1
 249 288 l 1,11,-1
 418 288 l 1,8,-1
502 765 m 0,12,13
 482 765 482 765 463.5 772 c 128,-1,14
 445 779 445 779 427 788 c 128,-1,15
 409 797 409 797 391.5 803.5 c 128,-1,16
 374 810 374 810 355 810 c 0,17,18
 339 810 339 810 326 803.5 c 128,-1,19
 313 797 313 797 297 784 c 1,20,-1
 257 848 l 1,21,22
 303 908 303 908 369 908 c 0,23,24
 388 908 388 908 407 901 c 128,-1,25
 426 894 426 894 444 885.5 c 128,-1,26
 462 877 462 877 480 870.5 c 128,-1,27
 498 864 498 864 515 864 c 0,28,29
 533 864 533 864 545.5 870 c 128,-1,30
 558 876 558 876 574 889 c 1,31,-1
 614 826 l 1,32,33
 565 765 565 765 502 765 c 0,12,13
EndSplineSet
EndChar

StartChar: Adieresis
Encoding: 196 196 131
Width: 651
Flags: W
LayerCount: 2
Fore
SplineSet
580 0 m 1,0,-1
 446 0 l 1,1,-1
 428 176 l 1,2,-1
 196 176 l 1,3,-1
 109 0 l 1,4,-1
 -33 0 l 1,5,-1
 328 698 l 1,6,-1
 498 698 l 1,7,-1
 580 0 l 1,0,-1
418 288 m 1,8,-1
 393 577 l 1,9,-1
 385 577 l 1,10,-1
 249 288 l 1,11,-1
 418 288 l 1,8,-1
324 765 m 0,12,13
 264 765 264 765 264 811 c 0,14,15
 264 908 264 908 350 908 c 0,16,17
 409 908 409 908 409 862 c 0,18,19
 409 765 409 765 324 765 c 0,12,13
521 765 m 0,20,21
 460 765 460 765 460 811 c 0,22,23
 460 908 460 908 546 908 c 0,24,25
 606 908 606 908 606 862 c 0,26,27
 606 765 606 765 521 765 c 0,20,21
EndSplineSet
EndChar

StartChar: Aring
Encoding: 197 197 132
Width: 651
Flags: W
LayerCount: 2
Fore
SplineSet
580 0 m 1,0,-1
 446 0 l 1,1,-1
 428 176 l 1,2,-1
 196 176 l 1,3,-1
 109 0 l 1,4,-1
 -33 0 l 1,5,-1
 328 698 l 1,6,-1
 498 698 l 1,7,-1
 580 0 l 1,0,-1
418 288 m 1,8,-1
 393 577 l 1,9,-1
 385 577 l 1,10,-1
 249 288 l 1,11,-1
 418 288 l 1,8,-1
415 724 m 0,12,13
 358 724 358 724 325.5 757.5 c 128,-1,14
 293 791 293 791 293 842 c 0,15,16
 293 916 293 916 340.5 957.5 c 128,-1,17
 388 999 388 999 451 999 c 0,18,19
 502 999 502 999 538 968 c 128,-1,20
 574 937 574 937 574 882 c 0,21,22
 574 808 574 808 525.5 766 c 128,-1,23
 477 724 477 724 415 724 c 0,12,13
421 793 m 0,24,25
 446 793 446 793 460.5 809.5 c 128,-1,26
 475 826 475 826 481.5 849 c 128,-1,27
 488 872 488 872 488 891 c 0,28,29
 488 930 488 930 445 930 c 0,30,31
 417 930 417 930 403 912.5 c 128,-1,32
 389 895 389 895 384 872 c 128,-1,33
 379 849 379 849 379 833 c 0,34,35
 379 793 379 793 421 793 c 0,24,25
EndSplineSet
EndChar

StartChar: AE
Encoding: 198 198 133
Width: 913
Flags: W
LayerCount: 2
Fore
SplineSet
816 0 m 1,0,-1
 363 0 l 1,1,-1
 399 176 l 1,2,-1
 199 176 l 1,3,-1
 90 0 l 1,4,-1
 -53 0 l 1,5,-1
 398 698 l 1,6,-1
 945 698 l 1,7,-1
 921 581 l 1,8,-1
 613 581 l 1,9,-1
 579 411 l 1,10,-1
 852 411 l 1,11,-1
 829 294 l 1,12,-1
 555 294 l 1,13,-1
 520 117 l 1,14,-1
 840 117 l 1,15,-1
 816 0 l 1,0,-1
421 288 m 1,16,-1
 480 582 l 1,17,-1
 454 582 l 1,18,-1
 271 288 l 1,19,-1
 421 288 l 1,16,-1
EndSplineSet
EndChar

StartChar: Ccedilla
Encoding: 199 199 134
Width: 629
Flags: W
LayerCount: 2
Fore
SplineSet
268 -211 m 0,0,1
 225 -211 225 -211 197.5 -198 c 128,-1,2
 170 -185 170 -185 158 -167 c 1,3,-1
 208 -117 l 1,4,5
 215 -128 215 -128 229 -135.5 c 128,-1,6
 243 -143 243 -143 260 -144 c 0,7,8
 316 -144 316 -144 316 -112 c 0,9,10
 316 -93 316 -93 294.5 -85 c 128,-1,11
 273 -77 273 -77 229 -74 c 1,12,-1
 255 -8 l 1,13,14
 164 6 164 6 110.5 74.5 c 128,-1,15
 57 143 57 143 57 271 c 0,16,17
 57 391 57 391 107.5 500 c 128,-1,18
 158 609 158 609 266 674 c 0,19,20
 331 710 331 710 411 710 c 0,21,22
 594 710 594 710 644 542 c 1,23,-1
 526 492 l 1,24,25
 513 540 513 540 484 566 c 128,-1,26
 455 592 455 592 400 592 c 0,27,28
 346 592 346 592 308.5 566 c 128,-1,29
 271 540 271 540 248 495.5 c 128,-1,30
 225 451 225 451 216 395 c 2,31,-1
 196 299 l 2,32,33
 191 268 191 268 191 246 c 0,34,35
 194 106 194 106 315 106 c 0,36,37
 372 106 372 106 410.5 133.5 c 128,-1,38
 449 161 449 161 475 215 c 1,39,-1
 586 164 l 1,40,41
 494 -8 494 -8 317 -12 c 1,42,-1
 301 -56 l 1,43,-1
 303 -60 l 1,44,45
 323 -54 323 -54 343 -54 c 0,46,47
 367 -54 367 -54 386 -67 c 128,-1,48
 405 -80 405 -80 405 -110 c 0,49,50
 405 -163 405 -163 364 -187 c 128,-1,51
 323 -211 323 -211 268 -211 c 0,0,1
EndSplineSet
EndChar

StartChar: Egrave
Encoding: 200 200 135
Width: 576
Flags: W
LayerCount: 2
Fore
SplineSet
478 0 m 1,0,-1
 25 0 l 1,1,-1
 165 698 l 1,2,-1
 607 698 l 1,3,-1
 583 581 l 1,4,-1
 275 581 l 1,5,-1
 241 411 l 1,6,-1
 514 411 l 1,7,-1
 491 294 l 1,8,-1
 217 294 l 1,9,-1
 182 117 l 1,10,-1
 502 117 l 1,11,-1
 478 0 l 1,0,-1
374 743 m 1,12,-1
 273 917 l 1,13,-1
 388 970 l 1,14,-1
 455 779 l 1,15,-1
 374 743 l 1,12,-1
EndSplineSet
EndChar

StartChar: Eacute
Encoding: 201 201 136
Width: 576
Flags: W
LayerCount: 2
Fore
SplineSet
478 0 m 1,0,-1
 25 0 l 1,1,-1
 165 698 l 1,2,-1
 607 698 l 1,3,-1
 583 581 l 1,4,-1
 275 581 l 1,5,-1
 241 411 l 1,6,-1
 514 411 l 1,7,-1
 491 294 l 1,8,-1
 217 294 l 1,9,-1
 182 117 l 1,10,-1
 502 117 l 1,11,-1
 478 0 l 1,0,-1
412 742 m 1,12,-1
 334 784 l 1,13,-1
 450 971 l 1,14,-1
 554 915 l 1,15,-1
 412 742 l 1,12,-1
EndSplineSet
EndChar

StartChar: Ecircumflex
Encoding: 202 202 137
Width: 576
Flags: W
LayerCount: 2
Fore
SplineSet
478 0 m 1,0,-1
 25 0 l 1,1,-1
 165 698 l 1,2,-1
 607 698 l 1,3,-1
 583 581 l 1,4,-1
 275 581 l 1,5,-1
 241 411 l 1,6,-1
 514 411 l 1,7,-1
 491 294 l 1,8,-1
 217 294 l 1,9,-1
 182 117 l 1,10,-1
 502 117 l 1,11,-1
 478 0 l 1,0,-1
512 743 m 1,12,-1
 415 858 l 1,13,-1
 280 743 l 1,14,-1
 215 795 l 1,15,-1
 368 951 l 1,16,-1
 485 951 l 1,17,-1
 581 795 l 1,18,-1
 512 743 l 1,12,-1
EndSplineSet
EndChar

StartChar: Edieresis
Encoding: 203 203 138
Width: 576
Flags: W
LayerCount: 2
Fore
SplineSet
478 0 m 1,0,-1
 25 0 l 1,1,-1
 165 698 l 1,2,-1
 607 698 l 1,3,-1
 583 581 l 1,4,-1
 275 581 l 1,5,-1
 241 411 l 1,6,-1
 514 411 l 1,7,-1
 491 294 l 1,8,-1
 217 294 l 1,9,-1
 182 117 l 1,10,-1
 502 117 l 1,11,-1
 478 0 l 1,0,-1
300 765 m 0,12,13
 240 765 240 765 240 811 c 0,14,15
 240 908 240 908 326 908 c 0,16,17
 385 908 385 908 385 862 c 0,18,19
 385 765 385 765 300 765 c 0,12,13
497 765 m 0,20,21
 436 765 436 765 436 811 c 0,22,23
 436 908 436 908 522 908 c 0,24,25
 582 908 582 908 582 862 c 0,26,27
 582 765 582 765 497 765 c 0,20,21
EndSplineSet
EndChar

StartChar: Eth
Encoding: 208 208 143
Width: 681
Flags: W
LayerCount: 2
Fore
SplineSet
290 0 m 2,0,-1
 30 0 l 1,1,-1
 92 305 l 1,2,-1
 15 305 l 1,3,-1
 36 408 l 1,4,-1
 112 408 l 1,5,-1
 170 698 l 1,6,-1
 390 698 l 2,7,8
 466 698 466 698 525.5 671.5 c 128,-1,9
 585 645 585 645 619 587 c 128,-1,10
 653 529 653 529 653 435 c 0,11,12
 653 351 653 351 631 273 c 128,-1,13
 609 195 609 195 564 133.5 c 128,-1,14
 519 72 519 72 451 36 c 128,-1,15
 383 0 383 0 290 0 c 2,0,-1
300 118 m 2,16,17
 370 118 370 118 420.5 160 c 128,-1,18
 471 202 471 202 492 295 c 0,19,20
 499 335 499 335 504 354.5 c 128,-1,21
 509 374 509 374 512 394 c 128,-1,22
 515 414 515 414 518 453 c 0,23,24
 518 523 518 523 483 551.5 c 128,-1,25
 448 580 448 580 377 580 c 2,26,-1
 279 580 l 1,27,-1
 245 408 l 1,28,-1
 361 408 l 1,29,-1
 340 305 l 1,30,-1
 224 305 l 1,31,-1
 187 118 l 1,32,-1
 300 118 l 2,16,17
EndSplineSet
EndChar

StartChar: Ntilde
Encoding: 209 209 144
Width: 697
Flags: W
LayerCount: 2
Fore
SplineSet
566 0 m 1,0,-1
 421 0 l 1,1,-1
 301 352 l 1,2,-1
 256 497 l 1,3,-1
 250 497 l 1,4,-1
 151 0 l 1,5,-1
 25 0 l 1,6,-1
 165 698 l 1,7,-1
 310 698 l 1,8,-1
 431 346 l 1,9,-1
 475 201 l 1,10,-1
 481 201 l 1,11,-1
 580 698 l 1,12,-1
 706 698 l 1,13,-1
 566 0 l 1,0,-1
528 765 m 0,14,15
 495 765 495 765 434 797 c 0,16,17
 408 810 408 810 382 810 c 0,18,19
 366 810 366 810 353.5 803.5 c 128,-1,20
 341 797 341 797 323 784 c 1,21,-1
 283 848 l 1,22,23
 331 908 331 908 395 908 c 0,24,25
 416 908 416 908 435 901 c 128,-1,26
 454 894 454 894 471.5 885.5 c 128,-1,27
 489 877 489 877 506.5 870.5 c 128,-1,28
 524 864 524 864 542 864 c 256,29,30
 560 864 560 864 572.5 870 c 128,-1,31
 585 876 585 876 600 889 c 1,32,-1
 640 826 l 1,33,34
 591 765 591 765 528 765 c 0,14,15
EndSplineSet
EndChar

StartChar: Ograve
Encoding: 210 210 145
Width: 692
Flags: W
LayerCount: 2
Fore
SplineSet
306 -12 m 0,0,1
 234 -12 234 -12 178 20 c 128,-1,2
 122 52 122 52 89.5 114.5 c 128,-1,3
 57 177 57 177 57 269 c 0,4,5
 57 347 57 347 80 425.5 c 128,-1,6
 103 504 103 504 148 568 c 128,-1,7
 193 632 193 632 260 671 c 128,-1,8
 327 710 327 710 415 710 c 0,9,10
 534 710 534 710 599.5 633.5 c 128,-1,11
 665 557 665 557 665 429 c 0,12,13
 665 347 665 347 641 268 c 128,-1,14
 617 189 617 189 570.5 126 c 128,-1,15
 524 63 524 63 457.5 25.5 c 128,-1,16
 391 -12 391 -12 306 -12 c 0,0,1
316 106 m 0,17,18
 402 106 402 106 447.5 162 c 128,-1,19
 493 218 493 218 507 308 c 1,20,-1
 514 338 l 2,21,22
 522 373 522 373 525.5 394.5 c 128,-1,23
 529 416 529 416 531 455 c 0,24,25
 529 592 529 592 406 592 c 0,26,27
 322 592 322 592 275.5 536.5 c 128,-1,28
 229 481 229 481 215 389 c 1,29,-1
 209 364 l 2,30,31
 191 290 191 290 191 243 c 0,32,33
 191 106 191 106 316 106 c 0,17,18
423 743 m 1,34,-1
 322 917 l 1,35,-1
 436 970 l 1,36,-1
 503 779 l 1,37,-1
 423 743 l 1,34,-1
EndSplineSet
EndChar

StartChar: Oacute
Encoding: 211 211 146
Width: 692
Flags: W
LayerCount: 2
Fore
SplineSet
306 -12 m 0,0,1
 234 -12 234 -12 178 20 c 128,-1,2
 122 52 122 52 89.5 114.5 c 128,-1,3
 57 177 57 177 57 269 c 0,4,5
 57 347 57 347 80 425.5 c 128,-1,6
 103 504 103 504 148 568 c 128,-1,7
 193 632 193 632 260 671 c 128,-1,8
 327 710 327 710 415 710 c 0,9,10
 534 710 534 710 599.5 633.5 c 128,-1,11
 665 557 665 557 665 429 c 0,12,13
 665 347 665 347 641 268 c 128,-1,14
 617 189 617 189 570.5 126 c 128,-1,15
 524 63 524 63 457.5 25.5 c 128,-1,16
 391 -12 391 -12 306 -12 c 0,0,1
316 106 m 0,17,18
 402 106 402 106 447.5 162 c 128,-1,19
 493 218 493 218 507 308 c 1,20,-1
 514 338 l 2,21,22
 522 373 522 373 525.5 394.5 c 128,-1,23
 529 416 529 416 531 455 c 0,24,25
 529 592 529 592 406 592 c 0,26,27
 322 592 322 592 275.5 536.5 c 128,-1,28
 229 481 229 481 215 389 c 1,29,-1
 209 364 l 2,30,31
 191 290 191 290 191 243 c 0,32,33
 191 106 191 106 316 106 c 0,17,18
460 742 m 1,34,-1
 383 784 l 1,35,-1
 499 971 l 1,36,-1
 602 915 l 1,37,-1
 460 742 l 1,34,-1
EndSplineSet
EndChar

StartChar: Ocircumflex
Encoding: 212 212 147
Width: 692
Flags: W
LayerCount: 2
Fore
SplineSet
306 -12 m 0,0,1
 234 -12 234 -12 178 20 c 128,-1,2
 122 52 122 52 89.5 114.5 c 128,-1,3
 57 177 57 177 57 269 c 0,4,5
 57 347 57 347 80 425.5 c 128,-1,6
 103 504 103 504 148 568 c 128,-1,7
 193 632 193 632 260 671 c 128,-1,8
 327 710 327 710 415 710 c 0,9,10
 534 710 534 710 599.5 633.5 c 128,-1,11
 665 557 665 557 665 429 c 0,12,13
 665 347 665 347 641 268 c 128,-1,14
 617 189 617 189 570.5 126 c 128,-1,15
 524 63 524 63 457.5 25.5 c 128,-1,16
 391 -12 391 -12 306 -12 c 0,0,1
316 106 m 0,17,18
 402 106 402 106 447.5 162 c 128,-1,19
 493 218 493 218 507 308 c 1,20,-1
 514 338 l 2,21,22
 522 373 522 373 525.5 394.5 c 128,-1,23
 529 416 529 416 531 455 c 0,24,25
 529 592 529 592 406 592 c 0,26,27
 322 592 322 592 275.5 536.5 c 128,-1,28
 229 481 229 481 215 389 c 1,29,-1
 209 364 l 2,30,31
 191 290 191 290 191 243 c 0,32,33
 191 106 191 106 316 106 c 0,17,18
561 743 m 1,34,-1
 463 858 l 1,35,-1
 328 743 l 1,36,-1
 264 795 l 1,37,-1
 416 951 l 1,38,-1
 533 951 l 1,39,-1
 630 795 l 1,40,-1
 561 743 l 1,34,-1
EndSplineSet
EndChar

StartChar: Otilde
Encoding: 213 213 148
Width: 692
Flags: W
LayerCount: 2
Fore
SplineSet
306 -12 m 0,0,1
 234 -12 234 -12 178 20 c 128,-1,2
 122 52 122 52 89.5 114.5 c 128,-1,3
 57 177 57 177 57 269 c 0,4,5
 57 347 57 347 80 425.5 c 128,-1,6
 103 504 103 504 148 568 c 128,-1,7
 193 632 193 632 260 671 c 128,-1,8
 327 710 327 710 415 710 c 0,9,10
 534 710 534 710 599.5 633.5 c 128,-1,11
 665 557 665 557 665 429 c 0,12,13
 665 347 665 347 641 268 c 128,-1,14
 617 189 617 189 570.5 126 c 128,-1,15
 524 63 524 63 457.5 25.5 c 128,-1,16
 391 -12 391 -12 306 -12 c 0,0,1
316 106 m 0,17,18
 402 106 402 106 447.5 162 c 128,-1,19
 493 218 493 218 507 308 c 1,20,-1
 514 338 l 2,21,22
 522 373 522 373 525.5 394.5 c 128,-1,23
 529 416 529 416 531 455 c 0,24,25
 529 592 529 592 406 592 c 0,26,27
 322 592 322 592 275.5 536.5 c 128,-1,28
 229 481 229 481 215 389 c 1,29,-1
 209 364 l 2,30,31
 191 290 191 290 191 243 c 0,32,33
 191 106 191 106 316 106 c 0,17,18
526 765 m 0,34,35
 493 765 493 765 432 797 c 0,36,37
 406 810 406 810 379 810 c 0,38,39
 364 810 364 810 351.5 803.5 c 128,-1,40
 339 797 339 797 321 784 c 1,41,-1
 281 848 l 1,42,43
 327 908 327 908 393 908 c 0,44,45
 411 908 411 908 429.5 901.5 c 128,-1,46
 448 895 448 895 466.5 886 c 128,-1,47
 485 877 485 877 503 870.5 c 128,-1,48
 521 864 521 864 540 864 c 0,49,50
 556 864 556 864 569 870 c 128,-1,51
 582 876 582 876 598 889 c 1,52,-1
 638 826 l 1,53,54
 589 765 589 765 526 765 c 0,34,35
EndSplineSet
EndChar

StartChar: Odieresis
Encoding: 214 214 149
Width: 692
Flags: W
LayerCount: 2
Fore
SplineSet
306 -12 m 0,0,1
 234 -12 234 -12 178 20 c 128,-1,2
 122 52 122 52 89.5 114.5 c 128,-1,3
 57 177 57 177 57 269 c 0,4,5
 57 347 57 347 80 425.5 c 128,-1,6
 103 504 103 504 148 568 c 128,-1,7
 193 632 193 632 260 671 c 128,-1,8
 327 710 327 710 415 710 c 0,9,10
 534 710 534 710 599.5 633.5 c 128,-1,11
 665 557 665 557 665 429 c 0,12,13
 665 347 665 347 641 268 c 128,-1,14
 617 189 617 189 570.5 126 c 128,-1,15
 524 63 524 63 457.5 25.5 c 128,-1,16
 391 -12 391 -12 306 -12 c 0,0,1
316 106 m 0,17,18
 402 106 402 106 447.5 162 c 128,-1,19
 493 218 493 218 507 308 c 1,20,-1
 514 338 l 2,21,22
 522 373 522 373 525.5 394.5 c 128,-1,23
 529 416 529 416 531 455 c 0,24,25
 529 592 529 592 406 592 c 0,26,27
 322 592 322 592 275.5 536.5 c 128,-1,28
 229 481 229 481 215 389 c 1,29,-1
 209 364 l 2,30,31
 191 290 191 290 191 243 c 0,32,33
 191 106 191 106 316 106 c 0,17,18
349 765 m 0,34,35
 288 765 288 765 288 811 c 0,36,37
 288 908 288 908 374 908 c 0,38,39
 434 908 434 908 434 862 c 0,40,41
 434 765 434 765 349 765 c 0,34,35
545 765 m 0,42,43
 485 765 485 765 485 811 c 0,44,45
 485 908 485 908 570 908 c 0,46,47
 630 908 630 908 630 862 c 0,48,49
 630 765 630 765 545 765 c 0,42,43
EndSplineSet
EndChar

StartChar: multiply
Encoding: 215 215 150
Width: 600
Flags: W
LayerCount: 2
Fore
SplineSet
414 79 m 1,0,-1
 302 227 l 1,1,-1
 131 79 l 1,2,-1
 63 160 l 1,3,-1
 237 311 l 1,4,-1
 123 457 l 1,5,-1
 211 531 l 1,6,-1
 323 384 l 1,7,-1
 494 531 l 1,8,-1
 562 450 l 1,9,-1
 388 300 l 1,10,-1
 502 153 l 1,11,-1
 414 79 l 1,0,-1
EndSplineSet
EndChar

StartChar: Oslash
Encoding: 216 216 151
Width: 692
Flags: W
LayerCount: 2
Fore
SplineSet
74 -57 m 1,0,-1
 2 5 l 1,1,-1
 91 109 l 1,2,3
 57 171 57 171 57 269 c 0,4,5
 57 388 57 388 108.5 497.5 c 128,-1,6
 160 607 160 607 267 673 c 0,7,8
 333 710 333 710 416 710 c 0,9,10
 502 710 502 710 568 662 c 1,11,-1
 647 755 l 1,12,-1
 719 693 l 1,13,-1
 630 589 l 1,14,15
 665 529 665 529 665 429 c 0,16,17
 665 349 665 349 641.5 271 c 128,-1,18
 618 193 618 193 572.5 129 c 128,-1,19
 527 65 527 65 460 26.5 c 128,-1,20
 393 -12 393 -12 306 -12 c 0,21,22
 220 -12 220 -12 154 36 c 1,23,-1
 74 -57 l 1,0,-1
189 210 m 1,24,-1
 495 564 l 1,25,26
 460 596 460 596 407 596 c 0,27,28
 254 596 254 596 215 405 c 1,29,-1
 207 370 l 2,30,31
 189 292 189 292 186 232 c 0,32,33
 187 225 187 225 187 219.5 c 128,-1,34
 187 214 187 214 189 210 c 1,24,-1
315 102 m 0,35,36
 466 102 466 102 507 293 c 2,37,-1
 517 339 l 2,38,39
 526 381 526 381 531 409.5 c 128,-1,40
 536 438 536 438 536 465 c 0,41,42
 536 479 536 479 533 488 c 1,43,-1
 227 134 l 1,44,45
 262 102 262 102 315 102 c 0,35,36
EndSplineSet
EndChar

StartChar: Ugrave
Encoding: 217 217 152
Width: 674
Flags: W
LayerCount: 2
Fore
SplineSet
303 -12 m 0,0,1
 74 -12 74 -12 74 209 c 0,2,3
 74 251 74 251 83 301 c 2,4,-1
 163 698 l 1,5,-1
 294 698 l 1,6,-1
 211 280 l 2,7,8
 203 243 203 243 203 216 c 0,9,10
 204 109 204 109 310 109 c 0,11,12
 442 109 442 109 467 273 c 0,13,14
 484 366 484 366 495.5 422 c 128,-1,15
 507 478 507 478 519.5 538 c 128,-1,16
 532 598 532 598 552 698 c 1,17,-1
 684 698 l 1,18,-1
 599 276 l 2,19,20
 570 121 570 121 498.5 54.5 c 128,-1,21
 427 -12 427 -12 303 -12 c 0,0,1
409 743 m 1,22,-1
 308 917 l 1,23,-1
 422 970 l 1,24,-1
 489 779 l 1,25,-1
 409 743 l 1,22,-1
EndSplineSet
EndChar

StartChar: Uacute
Encoding: 218 218 153
Width: 674
Flags: W
LayerCount: 2
Fore
SplineSet
303 -12 m 0,0,1
 74 -12 74 -12 74 209 c 0,2,3
 74 251 74 251 83 301 c 2,4,-1
 163 698 l 1,5,-1
 294 698 l 1,6,-1
 211 280 l 2,7,8
 203 243 203 243 203 216 c 0,9,10
 204 109 204 109 310 109 c 0,11,12
 442 109 442 109 467 273 c 0,13,14
 484 366 484 366 495.5 422 c 128,-1,15
 507 478 507 478 519.5 538 c 128,-1,16
 532 598 532 598 552 698 c 1,17,-1
 684 698 l 1,18,-1
 599 276 l 2,19,20
 570 121 570 121 498.5 54.5 c 128,-1,21
 427 -12 427 -12 303 -12 c 0,0,1
446 742 m 1,22,-1
 369 784 l 1,23,-1
 485 971 l 1,24,-1
 588 915 l 1,25,-1
 446 742 l 1,22,-1
EndSplineSet
EndChar

StartChar: Ucircumflex
Encoding: 219 219 154
Width: 674
Flags: W
LayerCount: 2
Fore
SplineSet
303 -12 m 0,0,1
 74 -12 74 -12 74 209 c 0,2,3
 74 251 74 251 83 301 c 2,4,-1
 163 698 l 1,5,-1
 294 698 l 1,6,-1
 211 280 l 2,7,8
 203 243 203 243 203 216 c 0,9,10
 204 109 204 109 310 109 c 0,11,12
 442 109 442 109 467 273 c 0,13,14
 484 366 484 366 495.5 422 c 128,-1,15
 507 478 507 478 519.5 538 c 128,-1,16
 532 598 532 598 552 698 c 1,17,-1
 684 698 l 1,18,-1
 599 276 l 2,19,20
 570 121 570 121 498.5 54.5 c 128,-1,21
 427 -12 427 -12 303 -12 c 0,0,1
547 743 m 1,22,-1
 449 858 l 1,23,-1
 314 743 l 1,24,-1
 250 795 l 1,25,-1
 402 951 l 1,26,-1
 519 951 l 1,27,-1
 616 795 l 1,28,-1
 547 743 l 1,22,-1
EndSplineSet
EndChar

StartChar: Udieresis
Encoding: 220 220 155
Width: 674
Flags: W
LayerCount: 2
Fore
SplineSet
303 -12 m 0,0,1
 74 -12 74 -12 74 209 c 0,2,3
 74 251 74 251 83 301 c 2,4,-1
 163 698 l 1,5,-1
 294 698 l 1,6,-1
 211 280 l 2,7,8
 203 243 203 243 203 216 c 0,9,10
 204 109 204 109 310 109 c 0,11,12
 442 109 442 109 467 273 c 0,13,14
 484 366 484 366 495.5 422 c 128,-1,15
 507 478 507 478 519.5 538 c 128,-1,16
 532 598 532 598 552 698 c 1,17,-1
 684 698 l 1,18,-1
 599 276 l 2,19,20
 570 121 570 121 498.5 54.5 c 128,-1,21
 427 -12 427 -12 303 -12 c 0,0,1
335 765 m 0,22,23
 274 765 274 765 274 811 c 0,24,25
 274 908 274 908 360 908 c 0,26,27
 420 908 420 908 420 862 c 0,28,29
 420 765 420 765 335 765 c 0,22,23
531 765 m 0,30,31
 471 765 471 765 471 811 c 0,32,33
 471 908 471 908 556 908 c 0,34,35
 616 908 616 908 616 862 c 0,36,37
 616 765 616 765 531 765 c 0,30,31
EndSplineSet
EndChar

StartChar: Yacute
Encoding: 221 221 156
Width: 615
Flags: W
LayerCount: 2
Fore
SplineSet
320 0 m 1,0,-1
 187 0 l 1,1,-1
 241 271 l 1,2,-1
 94 698 l 1,3,-1
 229 698 l 1,4,-1
 327 395 l 1,5,-1
 334 395 l 1,6,-1
 544 698 l 1,7,-1
 691 698 l 1,8,-1
 372 261 l 1,9,-1
 320 0 l 1,0,-1
406 742 m 1,10,-1
 328 784 l 1,11,-1
 444 971 l 1,12,-1
 548 915 l 1,13,-1
 406 742 l 1,10,-1
EndSplineSet
EndChar

StartChar: Thorn
Encoding: 222 222 157
Width: 625
Flags: W
LayerCount: 2
Fore
SplineSet
158 0 m 1,0,-1
 25 0 l 1,1,-1
 165 698 l 1,2,-1
 298 698 l 1,3,-1
 273 573 l 1,4,-1
 402 573 l 2,5,6
 477 573 477 573 523.5 549 c 128,-1,7
 570 525 570 525 591.5 483.5 c 128,-1,8
 613 442 613 442 613 390 c 0,9,10
 613 275 613 275 537 206.5 c 128,-1,11
 461 138 461 138 349 138 c 2,12,-1
 185 138 l 1,13,-1
 158 0 l 1,0,-1
366 255 m 2,14,15
 444 255 444 255 464 331 c 0,16,17
 476 388 476 388 476 396 c 0,18,19
 476 455 476 455 405 455 c 2,20,-1
 248 455 l 1,21,-1
 210 255 l 1,22,-1
 366 255 l 2,14,15
EndSplineSet
EndChar

StartChar: germandbls
Encoding: 223 223 158
Width: 664
Flags: W
LayerCount: 2
Fore
SplineSet
414 -12 m 0,0,1
 287 -12 287 -12 234 68 c 1,2,-1
 316 141 l 1,3,4
 352 88 352 88 417 88 c 0,5,6
 494 92 494 92 499 159 c 1,7,8
 497 187 497 187 484 199 c 128,-1,9
 471 211 471 211 437 226 c 0,10,11
 396 245 396 245 376 257 c 0,12,13
 320 292 320 292 320 362 c 0,14,15
 320 424 320 424 363 469.5 c 128,-1,16
 406 515 406 515 503 528 c 1,17,-1
 507 553 l 1,18,-1
 507 570 l 2,19,20
 507 650 507 650 411 650 c 0,21,22
 291 650 291 650 272 530 c 1,23,24
 233 358 233 358 194 151 c 2,25,-1
 166 0 l 1,26,-1
 38 0 l 1,27,-1
 122 418 l 1,28,-1
 46 418 l 1,29,-1
 67 523 l 1,30,-1
 143 523 l 1,31,32
 145 529 145 529 146 535 c 128,-1,33
 147 541 147 541 149 546 c 0,34,35
 180 655 180 655 253.5 703.5 c 128,-1,36
 327 752 327 752 419 752 c 0,37,38
 489 752 489 752 536.5 728.5 c 128,-1,39
 584 705 584 705 608 666 c 128,-1,40
 632 627 632 627 632 581 c 0,41,42
 632 553 632 553 626.5 521 c 128,-1,43
 621 489 621 489 610 439 c 1,44,-1
 540 439 l 2,45,46
 441 439 441 439 441 386 c 0,47,48
 441 347 441 347 493 327 c 1,49,-1
 532 308 l 1,50,51
 620 274 620 274 620 182 c 0,52,53
 620 131 620 131 594.5 86.5 c 128,-1,54
 569 42 569 42 523 15 c 128,-1,55
 477 -12 477 -12 414 -12 c 0,0,1
EndSplineSet
EndChar

StartChar: agrave
Encoding: 224 224 159
Width: 589
Flags: W
LayerCount: 2
Fore
SplineSet
178 -12 m 0,0,1
 128 -12 128 -12 96.5 13 c 128,-1,2
 65 38 65 38 50 80 c 128,-1,3
 35 122 35 122 35 173 c 0,4,5
 35 266 35 266 64.5 348.5 c 128,-1,6
 94 431 94 431 149 483 c 128,-1,7
 204 535 204 535 280 535 c 0,8,9
 334 535 334 535 369.5 507 c 128,-1,10
 405 479 405 479 412 434 c 1,11,-1
 417 434 l 1,12,-1
 435 523 l 1,13,-1
 563 523 l 1,14,-1
 478 104 l 1,15,-1
 540 104 l 1,16,-1
 520 0 l 1,17,-1
 431 0 l 1,18,19
 348 4 348 4 348 76 c 0,20,21
 348 83 348 83 354 120 c 1,22,-1
 348 120 l 1,23,24
 319 56 319 56 279 22 c 128,-1,25
 239 -12 239 -12 178 -12 c 0,0,1
237 94 m 0,26,27
 289 94 289 94 327 139.5 c 128,-1,28
 365 185 365 185 380 251 c 0,29,30
 399 346 399 346 399 356 c 0,31,32
 399 391 399 391 373 410 c 128,-1,33
 347 429 347 429 310 429 c 0,34,35
 210 429 210 429 186 304 c 0,36,37
 180 269 180 269 175 245 c 0,38,39
 166 206 166 206 166 177 c 0,40,41
 167 94 167 94 237 94 c 0,26,27
321 581 m 1,42,-1
 220 754 l 1,43,-1
 335 808 l 1,44,-1
 402 616 l 1,45,-1
 321 581 l 1,42,-1
EndSplineSet
EndChar

StartChar: aacute
Encoding: 225 225 160
Width: 589
Flags: W
LayerCount: 2
Fore
SplineSet
178 -12 m 0,0,1
 128 -12 128 -12 96.5 13 c 128,-1,2
 65 38 65 38 50 80 c 128,-1,3
 35 122 35 122 35 173 c 0,4,5
 35 266 35 266 64.5 348.5 c 128,-1,6
 94 431 94 431 149 483 c 128,-1,7
 204 535 204 535 280 535 c 0,8,9
 334 535 334 535 369.5 507 c 128,-1,10
 405 479 405 479 412 434 c 1,11,-1
 417 434 l 1,12,-1
 435 523 l 1,13,-1
 563 523 l 1,14,-1
 478 104 l 1,15,-1
 540 104 l 1,16,-1
 520 0 l 1,17,-1
 431 0 l 1,18,19
 348 4 348 4 348 76 c 0,20,21
 348 83 348 83 354 120 c 1,22,-1
 348 120 l 1,23,24
 319 56 319 56 279 22 c 128,-1,25
 239 -12 239 -12 178 -12 c 0,0,1
237 94 m 0,26,27
 289 94 289 94 327 139.5 c 128,-1,28
 365 185 365 185 380 251 c 0,29,30
 399 346 399 346 399 356 c 0,31,32
 399 391 399 391 373 410 c 128,-1,33
 347 429 347 429 310 429 c 0,34,35
 210 429 210 429 186 304 c 0,36,37
 180 269 180 269 175 245 c 0,38,39
 166 206 166 206 166 177 c 0,40,41
 167 94 167 94 237 94 c 0,26,27
360 580 m 1,42,-1
 283 622 l 1,43,-1
 399 808 l 1,44,-1
 503 753 l 1,45,-1
 360 580 l 1,42,-1
EndSplineSet
EndChar

StartChar: acircumflex
Encoding: 226 226 161
Width: 589
Flags: W
LayerCount: 2
Fore
SplineSet
178 -12 m 0,0,1
 128 -12 128 -12 96.5 13 c 128,-1,2
 65 38 65 38 50 80 c 128,-1,3
 35 122 35 122 35 173 c 0,4,5
 35 266 35 266 64.5 348.5 c 128,-1,6
 94 431 94 431 149 483 c 128,-1,7
 204 535 204 535 280 535 c 0,8,9
 334 535 334 535 369.5 507 c 128,-1,10
 405 479 405 479 412 434 c 1,11,-1
 417 434 l 1,12,-1
 435 523 l 1,13,-1
 563 523 l 1,14,-1
 478 104 l 1,15,-1
 540 104 l 1,16,-1
 520 0 l 1,17,-1
 431 0 l 1,18,19
 348 4 348 4 348 76 c 0,20,21
 348 83 348 83 354 120 c 1,22,-1
 348 120 l 1,23,24
 319 56 319 56 279 22 c 128,-1,25
 239 -12 239 -12 178 -12 c 0,0,1
237 94 m 0,26,27
 289 94 289 94 327 139.5 c 128,-1,28
 365 185 365 185 380 251 c 0,29,30
 399 346 399 346 399 356 c 0,31,32
 399 391 399 391 373 410 c 128,-1,33
 347 429 347 429 310 429 c 0,34,35
 210 429 210 429 186 304 c 0,36,37
 180 269 180 269 175 245 c 0,38,39
 166 206 166 206 166 177 c 0,40,41
 167 94 167 94 237 94 c 0,26,27
460 581 m 1,42,-1
 363 696 l 1,43,-1
 228 581 l 1,44,-1
 164 634 l 1,45,-1
 316 789 l 1,46,-1
 433 789 l 1,47,-1
 529 633 l 1,48,-1
 460 581 l 1,42,-1
EndSplineSet
EndChar

StartChar: atilde
Encoding: 227 227 162
Width: 589
Flags: W
LayerCount: 2
Fore
SplineSet
178 -12 m 0,0,1
 128 -12 128 -12 96.5 13 c 128,-1,2
 65 38 65 38 50 80 c 128,-1,3
 35 122 35 122 35 173 c 0,4,5
 35 266 35 266 64.5 348.5 c 128,-1,6
 94 431 94 431 149 483 c 128,-1,7
 204 535 204 535 280 535 c 0,8,9
 334 535 334 535 369.5 507 c 128,-1,10
 405 479 405 479 412 434 c 1,11,-1
 417 434 l 1,12,-1
 435 523 l 1,13,-1
 563 523 l 1,14,-1
 478 104 l 1,15,-1
 540 104 l 1,16,-1
 520 0 l 1,17,-1
 431 0 l 1,18,19
 348 4 348 4 348 76 c 0,20,21
 348 83 348 83 354 120 c 1,22,-1
 348 120 l 1,23,24
 319 56 319 56 279 22 c 128,-1,25
 239 -12 239 -12 178 -12 c 0,0,1
237 94 m 0,26,27
 289 94 289 94 327 139.5 c 128,-1,28
 365 185 365 185 380 251 c 0,29,30
 399 346 399 346 399 356 c 0,31,32
 399 391 399 391 373 410 c 128,-1,33
 347 429 347 429 310 429 c 0,34,35
 210 429 210 429 186 304 c 0,36,37
 180 269 180 269 175 245 c 0,38,39
 166 206 166 206 166 177 c 0,40,41
 167 94 167 94 237 94 c 0,26,27
426 603 m 0,42,43
 390 603 390 603 353 623 c 0,44,45
 305 647 305 647 280 647 c 0,46,47
 264 647 264 647 251 640.5 c 128,-1,48
 238 634 238 634 221 622 c 1,49,-1
 181 685 l 1,50,51
 229 745 229 745 293 745 c 0,52,53
 315 745 315 745 333.5 738.5 c 128,-1,54
 352 732 352 732 368 724 c 2,55,-1
 373 721 l 2,56,57
 414 701 414 701 439 701 c 0,58,59
 456 701 456 701 469 707.5 c 128,-1,60
 482 714 482 714 498 727 c 1,61,-1
 538 663 l 1,62,63
 494 603 494 603 426 603 c 0,42,43
EndSplineSet
EndChar

StartChar: adieresis
Encoding: 228 228 163
Width: 589
Flags: W
LayerCount: 2
Fore
SplineSet
178 -12 m 0,0,1
 128 -12 128 -12 96.5 13 c 128,-1,2
 65 38 65 38 50 80 c 128,-1,3
 35 122 35 122 35 173 c 0,4,5
 35 266 35 266 64.5 348.5 c 128,-1,6
 94 431 94 431 149 483 c 128,-1,7
 204 535 204 535 280 535 c 0,8,9
 334 535 334 535 369.5 507 c 128,-1,10
 405 479 405 479 412 434 c 1,11,-1
 417 434 l 1,12,-1
 435 523 l 1,13,-1
 563 523 l 1,14,-1
 478 104 l 1,15,-1
 540 104 l 1,16,-1
 520 0 l 1,17,-1
 431 0 l 1,18,19
 348 4 348 4 348 76 c 0,20,21
 348 83 348 83 354 120 c 1,22,-1
 348 120 l 1,23,24
 319 56 319 56 279 22 c 128,-1,25
 239 -12 239 -12 178 -12 c 0,0,1
237 94 m 0,26,27
 289 94 289 94 327 139.5 c 128,-1,28
 365 185 365 185 380 251 c 0,29,30
 399 346 399 346 399 356 c 0,31,32
 399 391 399 391 373 410 c 128,-1,33
 347 429 347 429 310 429 c 0,34,35
 210 429 210 429 186 304 c 0,36,37
 180 269 180 269 175 245 c 0,38,39
 166 206 166 206 166 177 c 0,40,41
 167 94 167 94 237 94 c 0,26,27
249 603 m 0,42,43
 189 603 189 603 189 649 c 0,44,45
 189 745 189 745 274 745 c 0,46,47
 334 745 334 745 334 700 c 0,48,49
 334 603 334 603 249 603 c 0,42,43
445 603 m 0,50,51
 385 603 385 603 385 649 c 0,52,53
 385 745 385 745 471 745 c 0,54,55
 530 745 530 745 530 700 c 0,56,57
 530 603 530 603 445 603 c 0,50,51
EndSplineSet
EndChar

StartChar: aring
Encoding: 229 229 164
Width: 589
Flags: W
LayerCount: 2
Fore
SplineSet
178 -12 m 0,0,1
 128 -12 128 -12 96.5 13 c 128,-1,2
 65 38 65 38 50 80 c 128,-1,3
 35 122 35 122 35 173 c 0,4,5
 35 266 35 266 64.5 348.5 c 128,-1,6
 94 431 94 431 149 483 c 128,-1,7
 204 535 204 535 280 535 c 0,8,9
 334 535 334 535 369.5 507 c 128,-1,10
 405 479 405 479 412 434 c 1,11,-1
 417 434 l 1,12,-1
 435 523 l 1,13,-1
 563 523 l 1,14,-1
 478 104 l 1,15,-1
 540 104 l 1,16,-1
 520 0 l 1,17,-1
 431 0 l 1,18,19
 348 4 348 4 348 76 c 0,20,21
 348 83 348 83 354 120 c 1,22,-1
 348 120 l 1,23,24
 319 56 319 56 279 22 c 128,-1,25
 239 -12 239 -12 178 -12 c 0,0,1
237 94 m 0,26,27
 289 94 289 94 327 139.5 c 128,-1,28
 365 185 365 185 380 251 c 0,29,30
 399 346 399 346 399 356 c 0,31,32
 399 391 399 391 373 410 c 128,-1,33
 347 429 347 429 310 429 c 0,34,35
 210 429 210 429 186 304 c 0,36,37
 180 269 180 269 175 245 c 0,38,39
 166 206 166 206 166 177 c 0,40,41
 167 94 167 94 237 94 c 0,26,27
340 561 m 0,42,43
 288 561 288 561 252.5 592.5 c 128,-1,44
 217 624 217 624 217 679 c 0,45,46
 217 754 217 754 265 795.5 c 128,-1,47
 313 837 313 837 375 837 c 0,48,49
 431 837 431 837 464.5 803.5 c 128,-1,50
 498 770 498 770 498 719 c 0,51,52
 498 645 498 645 450 603 c 128,-1,53
 402 561 402 561 340 561 c 0,42,43
346 630 m 0,54,55
 380 630 380 630 396 660.5 c 128,-1,56
 412 691 412 691 412 728 c 0,57,58
 412 768 412 768 369 768 c 0,59,60
 343 768 343 768 328.5 751.5 c 128,-1,61
 314 735 314 735 308.5 712 c 128,-1,62
 303 689 303 689 303 670 c 0,63,64
 303 630 303 630 346 630 c 0,54,55
EndSplineSet
EndChar

StartChar: ae
Encoding: 230 230 165
Width: 823
Flags: W
LayerCount: 2
Fore
SplineSet
222 83 m 0,0,1
 255 83 255 83 287 101 c 128,-1,2
 319 119 319 119 331 157 c 2,3,-1
 344 219 l 1,4,-1
 324 218 l 2,5,6
 265 217 265 217 229 212 c 128,-1,7
 193 207 193 207 175 188.5 c 128,-1,8
 157 170 157 170 157 131 c 0,9,10
 159 83 159 83 222 83 c 0,0,1
487 298 m 1,11,12
 589 303 589 303 636.5 321 c 128,-1,13
 684 339 684 339 684 378 c 0,14,15
 684 436 684 436 623 436 c 0,16,17
 560 436 560 436 528 396.5 c 128,-1,18
 496 357 496 357 487 298 c 1,11,12
560 -12 m 0,19,20
 417 -12 417 -12 367 92 c 1,21,-1
 360 92 l 1,22,23
 308 -12 308 -12 179 -12 c 0,24,25
 97 -12 97 -12 60.5 26.5 c 128,-1,26
 24 65 24 65 24 124 c 0,27,28
 24 184 24 184 56 221 c 0,29,30
 119 291 119 291 281 292 c 1,31,-1
 359 296 l 1,32,33
 364 324 364 324 365 331 c 128,-1,34
 366 338 366 338 368 354 c 0,35,36
 368 377 368 377 360 389 c 0,37,38
 346 431 346 431 283 431 c 0,39,40
 201 431 201 431 158 362 c 1,41,-1
 83 435 l 1,42,43
 156 535 156 535 294 535 c 0,44,45
 408 535 408 535 449 456 c 1,46,-1
 456 456 l 1,47,48
 522 535 522 535 627 535 c 0,49,50
 704 535 704 535 756.5 499 c 128,-1,51
 809 463 809 463 809 392 c 0,52,53
 809 307 809 307 725 265 c 128,-1,54
 641 223 641 223 473 218 c 1,55,56
 470 207 470 207 470 183 c 0,57,58
 470 94 470 94 570 93 c 0,59,60
 649 93 649 93 703 167 c 1,61,-1
 782 104 l 1,62,63
 695 -12 695 -12 560 -12 c 0,19,20
EndSplineSet
EndChar

StartChar: ccedilla
Encoding: 231 231 166
Width: 493
Flags: W
LayerCount: 2
Fore
SplineSet
212 -211 m 0,0,1
 169 -211 169 -211 142 -198.5 c 128,-1,2
 115 -186 115 -186 103 -167 c 1,3,-1
 153 -117 l 1,4,5
 159 -128 159 -128 174 -136 c 128,-1,6
 189 -144 189 -144 211 -144 c 0,7,8
 239 -143 239 -143 248.5 -135.5 c 128,-1,9
 258 -128 258 -128 259 -114 c 0,10,11
 259 -93 259 -93 239.5 -85 c 128,-1,12
 220 -77 220 -77 173 -74 c 1,13,-1
 199 -9 l 1,14,15
 127 -1 127 -1 80.5 52 c 128,-1,16
 34 105 34 105 34 212 c 0,17,18
 34 301 34 301 68 374.5 c 128,-1,19
 102 448 102 448 163.5 491.5 c 128,-1,20
 225 535 225 535 308 535 c 0,21,22
 374 535 374 535 425 503 c 128,-1,23
 476 471 476 471 493 402 c 1,24,-1
 385 361 l 1,25,26
 376 395 376 395 357 413 c 128,-1,27
 338 431 338 431 301 431 c 0,28,29
 205 431 205 431 181 302 c 2,30,-1
 166 226 l 2,31,32
 161 201 161 201 161 183 c 0,33,34
 161 93 161 93 248 93 c 0,35,36
 285 93 285 93 310 114 c 128,-1,37
 335 135 335 135 357 179 c 1,38,-1
 455 133 l 1,39,40
 392 2 392 2 263 -10 c 1,41,-1
 245 -56 l 1,42,-1
 247 -60 l 1,43,44
 266 -54 266 -54 288 -54 c 0,45,46
 312 -54 312 -54 330.5 -67 c 128,-1,47
 349 -80 349 -80 349 -110 c 0,48,49
 349 -162 349 -162 308 -186.5 c 128,-1,50
 267 -211 267 -211 212 -211 c 0,0,1
EndSplineSet
EndChar

StartChar: egrave
Encoding: 232 232 167
Width: 514
Flags: W
LayerCount: 2
Fore
SplineSet
251 -12 m 0,0,1
 137 -12 137 -12 86 50 c 128,-1,2
 35 112 35 112 35 212 c 0,3,4
 35 296 35 296 73.5 376 c 128,-1,5
 112 456 112 456 197 507 c 0,6,7
 249 535 249 535 317 535 c 0,8,9
 367 535 367 535 408.5 520 c 128,-1,10
 450 505 450 505 475 473 c 128,-1,11
 500 441 500 441 500 391 c 0,12,13
 500 219 500 219 164 210 c 1,14,15
 162 196 162 196 162 184 c 0,16,17
 162 93 162 93 260 93 c 0,18,19
 336 93 336 93 394 167 c 1,20,-1
 473 104 l 1,21,22
 388 -12 388 -12 251 -12 c 0,0,1
178 294 m 1,23,24
 285 298 285 298 330 318 c 128,-1,25
 375 338 375 338 375 380 c 0,26,27
 375 436 375 436 309 436 c 0,28,29
 205 436 205 436 181 309 c 2,30,-1
 178 294 l 1,23,24
311 581 m 1,31,-1
 210 754 l 1,32,-1
 325 808 l 1,33,-1
 392 616 l 1,34,-1
 311 581 l 1,31,-1
EndSplineSet
EndChar

StartChar: eacute
Encoding: 233 233 168
Width: 514
Flags: W
LayerCount: 2
Fore
SplineSet
251 -12 m 0,0,1
 137 -12 137 -12 86 50 c 128,-1,2
 35 112 35 112 35 212 c 0,3,4
 35 296 35 296 73.5 376 c 128,-1,5
 112 456 112 456 197 507 c 0,6,7
 249 535 249 535 317 535 c 0,8,9
 367 535 367 535 408.5 520 c 128,-1,10
 450 505 450 505 475 473 c 128,-1,11
 500 441 500 441 500 391 c 0,12,13
 500 219 500 219 164 210 c 1,14,15
 162 196 162 196 162 184 c 0,16,17
 162 93 162 93 260 93 c 0,18,19
 336 93 336 93 394 167 c 1,20,-1
 473 104 l 1,21,22
 388 -12 388 -12 251 -12 c 0,0,1
178 294 m 1,23,24
 285 298 285 298 330 318 c 128,-1,25
 375 338 375 338 375 380 c 0,26,27
 375 436 375 436 309 436 c 0,28,29
 205 436 205 436 181 309 c 2,30,-1
 178 294 l 1,23,24
350 580 m 1,31,-1
 273 622 l 1,32,-1
 389 808 l 1,33,-1
 493 753 l 1,34,-1
 350 580 l 1,31,-1
EndSplineSet
EndChar

StartChar: ecircumflex
Encoding: 234 234 169
Width: 514
Flags: W
LayerCount: 2
Fore
SplineSet
251 -12 m 0,0,1
 137 -12 137 -12 86 50 c 128,-1,2
 35 112 35 112 35 212 c 0,3,4
 35 296 35 296 73.5 376 c 128,-1,5
 112 456 112 456 197 507 c 0,6,7
 249 535 249 535 317 535 c 0,8,9
 367 535 367 535 408.5 520 c 128,-1,10
 450 505 450 505 475 473 c 128,-1,11
 500 441 500 441 500 391 c 0,12,13
 500 219 500 219 164 210 c 1,14,15
 162 196 162 196 162 184 c 0,16,17
 162 93 162 93 260 93 c 0,18,19
 336 93 336 93 394 167 c 1,20,-1
 473 104 l 1,21,22
 388 -12 388 -12 251 -12 c 0,0,1
178 294 m 1,23,24
 285 298 285 298 330 318 c 128,-1,25
 375 338 375 338 375 380 c 0,26,27
 375 436 375 436 309 436 c 0,28,29
 205 436 205 436 181 309 c 2,30,-1
 178 294 l 1,23,24
450 581 m 1,31,-1
 353 696 l 1,32,-1
 218 581 l 1,33,-1
 154 634 l 1,34,-1
 306 789 l 1,35,-1
 423 789 l 1,36,-1
 519 633 l 1,37,-1
 450 581 l 1,31,-1
EndSplineSet
EndChar

StartChar: edieresis
Encoding: 235 235 170
Width: 514
Flags: W
LayerCount: 2
Fore
SplineSet
251 -12 m 0,0,1
 137 -12 137 -12 86 50 c 128,-1,2
 35 112 35 112 35 212 c 0,3,4
 35 296 35 296 73.5 376 c 128,-1,5
 112 456 112 456 197 507 c 0,6,7
 249 535 249 535 317 535 c 0,8,9
 367 535 367 535 408.5 520 c 128,-1,10
 450 505 450 505 475 473 c 128,-1,11
 500 441 500 441 500 391 c 0,12,13
 500 219 500 219 164 210 c 1,14,15
 162 196 162 196 162 184 c 0,16,17
 162 93 162 93 260 93 c 0,18,19
 336 93 336 93 394 167 c 1,20,-1
 473 104 l 1,21,22
 388 -12 388 -12 251 -12 c 0,0,1
178 294 m 1,23,24
 285 298 285 298 330 318 c 128,-1,25
 375 338 375 338 375 380 c 0,26,27
 375 436 375 436 309 436 c 0,28,29
 205 436 205 436 181 309 c 2,30,-1
 178 294 l 1,23,24
239 603 m 0,31,32
 179 603 179 603 179 649 c 0,33,34
 179 745 179 745 264 745 c 0,35,36
 324 745 324 745 324 700 c 0,37,38
 324 603 324 603 239 603 c 0,31,32
435 603 m 0,39,40
 375 603 375 603 375 649 c 0,41,42
 375 745 375 745 461 745 c 0,43,44
 520 745 520 745 520 700 c 0,45,46
 520 603 520 603 435 603 c 0,39,40
EndSplineSet
EndChar

StartChar: igrave
Encoding: 236 236 171
Width: 278
Flags: W
LayerCount: 2
Fore
SplineSet
208 0 m 1,0,-1
 122 0 l 2,1,2
 76 0 76 0 56 22.5 c 128,-1,3
 36 45 36 45 36 77 c 0,4,5
 36 84 36 84 123 523 c 1,6,-1
 251 523 l 1,7,-1
 167 104 l 1,8,-1
 228 104 l 1,9,-1
 208 0 l 1,0,-1
177 581 m 1,10,-1
 76 754 l 1,11,-1
 191 808 l 1,12,-1
 258 616 l 1,13,-1
 177 581 l 1,10,-1
EndSplineSet
EndChar

StartChar: iacute
Encoding: 237 237 172
Width: 278
Flags: W
LayerCount: 2
Fore
SplineSet
208 0 m 1,0,-1
 122 0 l 2,1,2
 76 0 76 0 56 22.5 c 128,-1,3
 36 45 36 45 36 77 c 0,4,5
 36 84 36 84 123 523 c 1,6,-1
 251 523 l 1,7,-1
 167 104 l 1,8,-1
 228 104 l 1,9,-1
 208 0 l 1,0,-1
217 580 m 1,10,-1
 140 622 l 1,11,-1
 256 808 l 1,12,-1
 359 753 l 1,13,-1
 217 580 l 1,10,-1
EndSplineSet
EndChar

StartChar: icircumflex
Encoding: 238 238 173
Width: 278
Flags: W
LayerCount: 2
Fore
SplineSet
208 0 m 1,0,-1
 122 0 l 2,1,2
 76 0 76 0 56 22.5 c 128,-1,3
 36 45 36 45 36 77 c 0,4,5
 36 84 36 84 123 523 c 1,6,-1
 251 523 l 1,7,-1
 167 104 l 1,8,-1
 228 104 l 1,9,-1
 208 0 l 1,0,-1
317 581 m 1,10,-1
 219 696 l 1,11,-1
 84 581 l 1,12,-1
 20 634 l 1,13,-1
 172 789 l 1,14,-1
 289 789 l 1,15,-1
 386 633 l 1,16,-1
 317 581 l 1,10,-1
EndSplineSet
EndChar

StartChar: idieresis
Encoding: 239 239 174
Width: 278
Flags: W
LayerCount: 2
Fore
SplineSet
208 0 m 1,0,-1
 122 0 l 2,1,2
 76 0 76 0 56 22.5 c 128,-1,3
 36 45 36 45 36 77 c 0,4,5
 36 84 36 84 123 523 c 1,6,-1
 251 523 l 1,7,-1
 167 104 l 1,8,-1
 228 104 l 1,9,-1
 208 0 l 1,0,-1
105 603 m 0,10,11
 45 603 45 603 45 649 c 0,12,13
 45 745 45 745 131 745 c 0,14,15
 190 745 190 745 190 700 c 0,16,17
 190 603 190 603 105 603 c 0,10,11
302 603 m 0,18,19
 241 603 241 603 241 649 c 0,20,21
 241 745 241 745 327 745 c 0,22,23
 387 745 387 745 387 700 c 0,24,25
 387 603 387 603 302 603 c 0,18,19
EndSplineSet
EndChar

StartChar: eth
Encoding: 240 240 175
Width: 571
Flags: W
LayerCount: 2
Fore
SplineSet
241 -12 m 0,0,1
 182 -12 182 -12 135 11 c 128,-1,2
 88 34 88 34 61 82.5 c 128,-1,3
 34 131 34 131 34 209 c 0,4,5
 34 332 34 332 102 416.5 c 128,-1,6
 170 501 170 501 264 501 c 0,7,8
 366 501 366 501 398 401 c 1,9,-1
 407 401 l 1,10,11
 389 508 389 508 332 588 c 1,12,-1
 228 532 l 1,13,-1
 197 591 l 1,14,-1
 289 641 l 1,15,16
 224 707 224 707 169 740 c 1,17,-1
 349 740 l 1,18,19
 374 720 374 720 396 698 c 1,20,-1
 493 751 l 1,21,-1
 525 692 l 1,22,-1
 441 646 l 1,23,24
 530 523 530 523 530 346 c 0,25,26
 530 232 530 232 492.5 152 c 128,-1,27
 455 72 455 72 390 30 c 128,-1,28
 325 -12 325 -12 241 -12 c 0,0,1
250 88 m 0,29,30
 292 88 292 88 321 116 c 128,-1,31
 350 144 350 144 369 211 c 0,32,33
 384 266 384 266 384 307 c 0,34,35
 384 397 384 397 298 399 c 0,36,37
 250 399 250 399 220.5 365 c 128,-1,38
 191 331 191 331 179 273 c 0,39,40
 165 217 165 217 163 188 c 1,41,-1
 164 180 l 1,42,43
 164 139 164 139 185 113.5 c 128,-1,44
 206 88 206 88 250 88 c 0,29,30
EndSplineSet
EndChar

StartChar: ntilde
Encoding: 241 241 176
Width: 583
Flags: W
LayerCount: 2
Fore
SplineSet
515 0 m 1,0,-1
 428 0 l 2,1,2
 392 0 392 0 370 18 c 128,-1,3
 348 36 348 36 348 73 c 0,4,5
 348 98 348 98 365 170 c 2,6,-1
 378 235 l 2,7,8
 389 283 389 283 394 313.5 c 128,-1,9
 399 344 399 344 399 369 c 0,10,11
 399 427 399 427 341 427 c 0,12,13
 291 427 291 427 252.5 380 c 128,-1,14
 214 333 214 333 201 273 c 2,15,-1
 146 0 l 1,16,-1
 18 0 l 1,17,-1
 123 523 l 1,18,-1
 251 523 l 1,19,-1
 228 405 l 1,20,-1
 233 405 l 1,21,22
 262 468 262 468 303.5 501.5 c 128,-1,23
 345 535 345 535 404 535 c 0,24,25
 473 535 473 535 502.5 496 c 128,-1,26
 532 457 532 457 532 398 c 0,27,28
 532 352 532 352 519 305 c 2,29,-1
 479 104 l 1,30,-1
 535 104 l 1,31,-1
 515 0 l 1,0,-1
439 603 m 0,32,33
 403 603 403 603 366 623 c 0,34,35
 318 647 318 647 293 647 c 0,36,37
 277 647 277 647 264 640.5 c 128,-1,38
 251 634 251 634 234 622 c 1,39,-1
 194 685 l 1,40,41
 242 745 242 745 306 745 c 0,42,43
 328 745 328 745 346.5 738.5 c 128,-1,44
 365 732 365 732 381 724 c 2,45,-1
 386 721 l 2,46,47
 427 701 427 701 452 701 c 0,48,49
 469 701 469 701 482 707.5 c 128,-1,50
 495 714 495 714 511 727 c 1,51,-1
 551 663 l 1,52,53
 507 603 507 603 439 603 c 0,32,33
EndSplineSet
EndChar

StartChar: ograve
Encoding: 242 242 177
Width: 544
Flags: W
LayerCount: 2
Fore
SplineSet
239 -12 m 0,0,1
 147 -12 147 -12 91 43 c 128,-1,2
 35 98 35 98 35 206 c 0,3,4
 35 290 35 290 66.5 365.5 c 128,-1,5
 98 441 98 441 158 488 c 128,-1,6
 218 535 218 535 305 535 c 0,7,8
 362 535 362 535 408.5 513 c 128,-1,9
 455 491 455 491 482 443 c 128,-1,10
 509 395 509 395 509 318 c 0,11,12
 509 222 509 222 472.5 147.5 c 128,-1,13
 436 73 436 73 374.5 30.5 c 128,-1,14
 313 -12 313 -12 239 -12 c 0,0,1
245 93 m 0,15,16
 299 93 299 93 324 130.5 c 128,-1,17
 349 168 349 168 364 233 c 2,18,-1
 378 303 l 2,19,20
 382 320 382 320 382 340 c 0,21,22
 381 431 381 431 299 431 c 0,23,24
 248 431 248 431 220 394.5 c 128,-1,25
 192 358 192 358 180 290 c 2,26,-1
 166 221 l 2,27,28
 162 204 162 204 162 183 c 0,29,30
 162 93 162 93 245 93 c 0,15,16
306 581 m 1,31,-1
 205 754 l 1,32,-1
 320 808 l 1,33,-1
 386 616 l 1,34,-1
 306 581 l 1,31,-1
EndSplineSet
EndChar

StartChar: oacute
Encoding: 243 243 178
Width: 544
Flags: W
LayerCount: 2
Fore
SplineSet
239 -12 m 0,0,1
 147 -12 147 -12 91 43 c 128,-1,2
 35 98 35 98 35 206 c 0,3,4
 35 290 35 290 66.5 365.5 c 128,-1,5
 98 441 98 441 158 488 c 128,-1,6
 218 535 218 535 305 535 c 0,7,8
 362 535 362 535 408.5 513 c 128,-1,9
 455 491 455 491 482 443 c 128,-1,10
 509 395 509 395 509 318 c 0,11,12
 509 222 509 222 472.5 147.5 c 128,-1,13
 436 73 436 73 374.5 30.5 c 128,-1,14
 313 -12 313 -12 239 -12 c 0,0,1
245 93 m 0,15,16
 299 93 299 93 324 130.5 c 128,-1,17
 349 168 349 168 364 233 c 2,18,-1
 378 303 l 2,19,20
 382 320 382 320 382 340 c 0,21,22
 381 431 381 431 299 431 c 0,23,24
 248 431 248 431 220 394.5 c 128,-1,25
 192 358 192 358 180 290 c 2,26,-1
 166 221 l 2,27,28
 162 204 162 204 162 183 c 0,29,30
 162 93 162 93 245 93 c 0,15,16
345 580 m 1,31,-1
 268 622 l 1,32,-1
 384 808 l 1,33,-1
 488 753 l 1,34,-1
 345 580 l 1,31,-1
EndSplineSet
EndChar

StartChar: ocircumflex
Encoding: 244 244 179
Width: 544
Flags: W
LayerCount: 2
Fore
SplineSet
239 -12 m 0,0,1
 147 -12 147 -12 91 43 c 128,-1,2
 35 98 35 98 35 206 c 0,3,4
 35 290 35 290 66.5 365.5 c 128,-1,5
 98 441 98 441 158 488 c 128,-1,6
 218 535 218 535 305 535 c 0,7,8
 362 535 362 535 408.5 513 c 128,-1,9
 455 491 455 491 482 443 c 128,-1,10
 509 395 509 395 509 318 c 0,11,12
 509 222 509 222 472.5 147.5 c 128,-1,13
 436 73 436 73 374.5 30.5 c 128,-1,14
 313 -12 313 -12 239 -12 c 0,0,1
245 93 m 0,15,16
 299 93 299 93 324 130.5 c 128,-1,17
 349 168 349 168 364 233 c 2,18,-1
 378 303 l 2,19,20
 382 320 382 320 382 340 c 0,21,22
 381 431 381 431 299 431 c 0,23,24
 248 431 248 431 220 394.5 c 128,-1,25
 192 358 192 358 180 290 c 2,26,-1
 166 221 l 2,27,28
 162 204 162 204 162 183 c 0,29,30
 162 93 162 93 245 93 c 0,15,16
445 581 m 1,31,-1
 347 696 l 1,32,-1
 212 581 l 1,33,-1
 148 634 l 1,34,-1
 301 789 l 1,35,-1
 417 789 l 1,36,-1
 514 633 l 1,37,-1
 445 581 l 1,31,-1
EndSplineSet
EndChar

StartChar: otilde
Encoding: 245 245 180
Width: 544
Flags: W
LayerCount: 2
Fore
SplineSet
239 -12 m 0,0,1
 147 -12 147 -12 91 43 c 128,-1,2
 35 98 35 98 35 206 c 0,3,4
 35 290 35 290 66.5 365.5 c 128,-1,5
 98 441 98 441 158 488 c 128,-1,6
 218 535 218 535 305 535 c 0,7,8
 362 535 362 535 408.5 513 c 128,-1,9
 455 491 455 491 482 443 c 128,-1,10
 509 395 509 395 509 318 c 0,11,12
 509 222 509 222 472.5 147.5 c 128,-1,13
 436 73 436 73 374.5 30.5 c 128,-1,14
 313 -12 313 -12 239 -12 c 0,0,1
245 93 m 0,15,16
 299 93 299 93 324 130.5 c 128,-1,17
 349 168 349 168 364 233 c 2,18,-1
 378 303 l 2,19,20
 382 320 382 320 382 340 c 0,21,22
 381 431 381 431 299 431 c 0,23,24
 248 431 248 431 220 394.5 c 128,-1,25
 192 358 192 358 180 290 c 2,26,-1
 166 221 l 2,27,28
 162 204 162 204 162 183 c 0,29,30
 162 93 162 93 245 93 c 0,15,16
411 603 m 0,31,32
 388 603 388 603 368 610.5 c 128,-1,33
 348 618 348 618 330.5 626.5 c 128,-1,34
 313 635 313 635 297 641 c 128,-1,35
 281 647 281 647 264 647 c 0,36,37
 249 647 249 647 236 641 c 128,-1,38
 223 635 223 635 206 622 c 1,39,-1
 166 685 l 1,40,41
 214 745 214 745 278 745 c 0,42,43
 300 745 300 745 318.5 738.5 c 128,-1,44
 337 732 337 732 353 724 c 2,45,-1
 358 721 l 2,46,47
 399 701 399 701 424 701 c 0,48,49
 439 701 439 701 452 707.5 c 128,-1,50
 465 714 465 714 482 727 c 1,51,-1
 523 663 l 1,52,53
 479 603 479 603 411 603 c 0,31,32
EndSplineSet
EndChar

StartChar: odieresis
Encoding: 246 246 181
Width: 544
Flags: W
LayerCount: 2
Fore
SplineSet
239 -12 m 0,0,1
 147 -12 147 -12 91 43 c 128,-1,2
 35 98 35 98 35 206 c 0,3,4
 35 290 35 290 66.5 365.5 c 128,-1,5
 98 441 98 441 158 488 c 128,-1,6
 218 535 218 535 305 535 c 0,7,8
 362 535 362 535 408.5 513 c 128,-1,9
 455 491 455 491 482 443 c 128,-1,10
 509 395 509 395 509 318 c 0,11,12
 509 222 509 222 472.5 147.5 c 128,-1,13
 436 73 436 73 374.5 30.5 c 128,-1,14
 313 -12 313 -12 239 -12 c 0,0,1
245 93 m 0,15,16
 299 93 299 93 324 130.5 c 128,-1,17
 349 168 349 168 364 233 c 2,18,-1
 378 303 l 2,19,20
 382 320 382 320 382 340 c 0,21,22
 381 431 381 431 299 431 c 0,23,24
 248 431 248 431 220 394.5 c 128,-1,25
 192 358 192 358 180 290 c 2,26,-1
 166 221 l 2,27,28
 162 204 162 204 162 183 c 0,29,30
 162 93 162 93 245 93 c 0,15,16
234 603 m 0,31,32
 173 603 173 603 173 649 c 0,33,34
 173 745 173 745 259 745 c 0,35,36
 319 745 319 745 319 700 c 0,37,38
 319 603 319 603 234 603 c 0,31,32
430 603 m 0,39,40
 370 603 370 603 370 649 c 0,41,42
 370 745 370 745 455 745 c 0,43,44
 515 745 515 745 515 700 c 0,45,46
 515 603 515 603 430 603 c 0,39,40
EndSplineSet
EndChar

StartChar: divide
Encoding: 247 247 182
Width: 600
Flags: W
LayerCount: 2
Fore
SplineSet
529 253 m 1,0,-1
 68 253 l 1,1,-1
 89 359 l 1,2,-1
 550 359 l 1,3,-1
 529 253 l 1,0,-1
259 34 m 0,4,5
 188 34 188 34 188 82 c 0,6,7
 188 186 188 186 282 186 c 0,8,9
 353 186 353 186 353 138 c 0,10,11
 353 34 353 34 259 34 c 0,4,5
336 425 m 0,12,13
 265 425 265 425 265 473 c 0,14,15
 265 577 265 577 359 577 c 0,16,17
 430 577 430 577 430 530 c 0,18,19
 430 427 430 427 336 425 c 0,12,13
EndSplineSet
EndChar

StartChar: oslash
Encoding: 248 248 183
Width: 545
Flags: W
LayerCount: 2
Fore
SplineSet
35 -43 m 1,0,-1
 -31 16 l 1,1,-1
 53 103 l 1,2,3
 35 146 35 146 35 206 c 0,4,5
 35 291 35 291 67 366 c 128,-1,6
 99 441 99 441 159.5 488 c 128,-1,7
 220 535 220 535 305 535 c 0,8,9
 385 535 385 535 438 493 c 1,10,-1
 509 566 l 1,11,-1
 575 507 l 1,12,-1
 491 420 l 1,13,14
 510 376 510 376 510 318 c 0,15,16
 510 179 510 179 433.5 83.5 c 128,-1,17
 357 -12 357 -12 239 -12 c 0,18,19
 158 -12 158 -12 106 31 c 1,20,-1
 35 -43 l 1,0,-1
245 88 m 0,21,22
 293 88 293 88 319 122.5 c 128,-1,23
 345 157 345 157 358 202 c 0,24,25
 374 256 374 256 381 317 c 1,26,-1
 181 114 l 1,27,28
 205 88 205 88 245 88 c 0,21,22
163 206 m 1,29,-1
 363 409 l 1,30,31
 339 435 339 435 299 435 c 0,32,33
 212 435 212 435 181 308 c 0,34,35
 171 257 171 257 163 206 c 1,29,-1
EndSplineSet
EndChar

StartChar: ugrave
Encoding: 249 249 184
Width: 578
Flags: W
LayerCount: 2
Fore
SplineSet
170 -12 m 0,0,1
 102 -12 102 -12 73 27 c 128,-1,2
 44 66 44 66 44 125 c 0,3,4
 44 164 44 164 53 200 c 2,5,-1
 118 523 l 1,6,-1
 246 523 l 1,7,-1
 183 210 l 2,8,9
 177 180 177 180 177 157 c 0,10,11
 177 96 177 96 231 96 c 0,12,13
 281 96 281 96 318.5 143 c 128,-1,14
 356 190 356 190 369 251 c 2,15,-1
 423 523 l 1,16,-1
 551 523 l 1,17,-1
 467 104 l 1,18,-1
 529 104 l 1,19,-1
 508 0 l 1,20,-1
 420 0 l 2,21,22
 383 1 383 1 359.5 19 c 128,-1,23
 336 37 336 37 336 74 c 0,24,25
 336 91 336 91 339 103 c 2,26,-1
 342 118 l 1,27,-1
 336 118 l 1,28,29
 280 -12 280 -12 170 -12 c 0,0,1
323 581 m 1,30,-1
 222 754 l 1,31,-1
 337 808 l 1,32,-1
 403 616 l 1,33,-1
 323 581 l 1,30,-1
EndSplineSet
EndChar

StartChar: uacute
Encoding: 250 250 185
Width: 578
Flags: W
LayerCount: 2
Fore
SplineSet
170 -12 m 0,0,1
 102 -12 102 -12 73 27 c 128,-1,2
 44 66 44 66 44 125 c 0,3,4
 44 164 44 164 53 200 c 2,5,-1
 118 523 l 1,6,-1
 246 523 l 1,7,-1
 183 210 l 2,8,9
 177 180 177 180 177 157 c 0,10,11
 177 96 177 96 231 96 c 0,12,13
 281 96 281 96 318.5 143 c 128,-1,14
 356 190 356 190 369 251 c 2,15,-1
 423 523 l 1,16,-1
 551 523 l 1,17,-1
 467 104 l 1,18,-1
 529 104 l 1,19,-1
 508 0 l 1,20,-1
 420 0 l 2,21,22
 383 1 383 1 359.5 19 c 128,-1,23
 336 37 336 37 336 74 c 0,24,25
 336 91 336 91 339 103 c 2,26,-1
 342 118 l 1,27,-1
 336 118 l 1,28,29
 280 -12 280 -12 170 -12 c 0,0,1
362 580 m 1,30,-1
 285 622 l 1,31,-1
 401 808 l 1,32,-1
 505 753 l 1,33,-1
 362 580 l 1,30,-1
EndSplineSet
EndChar

StartChar: ucircumflex
Encoding: 251 251 186
Width: 578
Flags: W
LayerCount: 2
Fore
SplineSet
170 -12 m 0,0,1
 102 -12 102 -12 73 27 c 128,-1,2
 44 66 44 66 44 125 c 0,3,4
 44 164 44 164 53 200 c 2,5,-1
 118 523 l 1,6,-1
 246 523 l 1,7,-1
 183 210 l 2,8,9
 177 180 177 180 177 157 c 0,10,11
 177 96 177 96 231 96 c 0,12,13
 281 96 281 96 318.5 143 c 128,-1,14
 356 190 356 190 369 251 c 2,15,-1
 423 523 l 1,16,-1
 551 523 l 1,17,-1
 467 104 l 1,18,-1
 529 104 l 1,19,-1
 508 0 l 1,20,-1
 420 0 l 2,21,22
 383 1 383 1 359.5 19 c 128,-1,23
 336 37 336 37 336 74 c 0,24,25
 336 91 336 91 339 103 c 2,26,-1
 342 118 l 1,27,-1
 336 118 l 1,28,29
 280 -12 280 -12 170 -12 c 0,0,1
462 581 m 1,30,-1
 364 696 l 1,31,-1
 229 581 l 1,32,-1
 165 634 l 1,33,-1
 318 789 l 1,34,-1
 434 789 l 1,35,-1
 531 633 l 1,36,-1
 462 581 l 1,30,-1
EndSplineSet
EndChar

StartChar: udieresis
Encoding: 252 252 187
Width: 578
Flags: W
LayerCount: 2
Fore
SplineSet
170 -12 m 0,0,1
 102 -12 102 -12 73 27 c 128,-1,2
 44 66 44 66 44 125 c 0,3,4
 44 164 44 164 53 200 c 2,5,-1
 118 523 l 1,6,-1
 246 523 l 1,7,-1
 183 210 l 2,8,9
 177 180 177 180 177 157 c 0,10,11
 177 96 177 96 231 96 c 0,12,13
 281 96 281 96 318.5 143 c 128,-1,14
 356 190 356 190 369 251 c 2,15,-1
 423 523 l 1,16,-1
 551 523 l 1,17,-1
 467 104 l 1,18,-1
 529 104 l 1,19,-1
 508 0 l 1,20,-1
 420 0 l 2,21,22
 383 1 383 1 359.5 19 c 128,-1,23
 336 37 336 37 336 74 c 0,24,25
 336 91 336 91 339 103 c 2,26,-1
 342 118 l 1,27,-1
 336 118 l 1,28,29
 280 -12 280 -12 170 -12 c 0,0,1
251 603 m 0,30,31
 190 603 190 603 190 649 c 0,32,33
 190 745 190 745 276 745 c 0,34,35
 336 745 336 745 336 700 c 0,36,37
 336 603 336 603 251 603 c 0,30,31
447 603 m 0,38,39
 387 603 387 603 387 649 c 0,40,41
 387 745 387 745 472 745 c 0,42,43
 532 745 532 745 532 700 c 0,44,45
 532 603 532 603 447 603 c 0,38,39
EndSplineSet
EndChar

StartChar: yacute
Encoding: 253 253 188
Width: 504
Flags: W
LayerCount: 2
Fore
SplineSet
51 -200 m 2,0,-1
 -27 -200 l 1,1,-1
 -6 -97 l 1,2,-1
 90 -97 l 1,3,-1
 125 -27 l 1,4,-1
 49 523 l 1,5,-1
 176 523 l 1,6,-1
 217 120 l 1,7,-1
 222 120 l 1,8,-1
 302 294 l 2,9,10
 321 337 321 337 365 424 c 2,11,-1
 414 523 l 1,12,-1
 550 523 l 1,13,-1
 223 -91 l 1,14,15
 171 -200 171 -200 51 -200 c 2,0,-1
316 580 m 1,16,-1
 239 622 l 1,17,-1
 355 808 l 1,18,-1
 459 753 l 1,19,-1
 316 580 l 1,16,-1
EndSplineSet
EndChar

StartChar: thorn
Encoding: 254 254 189
Width: 581
Flags: W
LayerCount: 2
Fore
SplineSet
106 -200 m 1,0,-1
 -22 -200 l 1,1,-1
 166 740 l 1,2,-1
 294 740 l 1,3,-1
 227 403 l 1,4,-1
 233 403 l 1,5,6
 263 470 263 470 304 502.5 c 128,-1,7
 345 535 345 535 403 535 c 0,8,9
 454 535 454 535 485.5 510 c 128,-1,10
 517 485 517 485 531.5 443 c 128,-1,11
 546 401 546 401 546 350 c 0,12,13
 546 196 546 196 475 92 c 128,-1,14
 404 -12 404 -12 301 -12 c 0,15,16
 251 -12 251 -12 214.5 13 c 128,-1,17
 178 38 178 38 169 90 c 1,18,-1
 164 90 l 1,19,-1
 106 -200 l 1,0,-1
272 94 m 0,20,21
 371 94 371 94 395 219 c 2,22,-1
 408 291 l 2,23,24
 414 318 414 318 415 334 c 0,25,26
 415 429 415 429 343 429 c 0,27,28
 289 429 289 429 252 382 c 128,-1,29
 215 335 215 335 201 273 c 0,30,31
 185 190 185 190 182 167 c 0,32,33
 182 129 182 129 208 111.5 c 128,-1,34
 234 94 234 94 272 94 c 0,20,21
EndSplineSet
EndChar

StartChar: ydieresis
Encoding: 255 255 190
Width: 504
Flags: W
LayerCount: 2
Fore
SplineSet
51 -200 m 2,0,-1
 -27 -200 l 1,1,-1
 -6 -97 l 1,2,-1
 90 -97 l 1,3,-1
 125 -27 l 1,4,-1
 49 523 l 1,5,-1
 176 523 l 1,6,-1
 217 120 l 1,7,-1
 222 120 l 1,8,-1
 302 294 l 2,9,10
 321 337 321 337 365 424 c 2,11,-1
 414 523 l 1,12,-1
 550 523 l 1,13,-1
 223 -91 l 1,14,15
 171 -200 171 -200 51 -200 c 2,0,-1
205 603 m 0,16,17
 144 603 144 603 144 649 c 0,18,19
 144 745 144 745 230 745 c 0,20,21
 290 745 290 745 290 700 c 0,22,23
 290 603 290 603 205 603 c 0,16,17
401 603 m 0,24,25
 341 603 341 603 341 649 c 0,26,27
 341 745 341 745 426 745 c 0,28,29
 486 745 486 745 486 700 c 0,30,31
 486 603 486 603 401 603 c 0,24,25
EndSplineSet
EndChar

StartChar: Amacron
Encoding: 256 256 191
Width: 651
Flags: W
LayerCount: 2
Fore
SplineSet
580 0 m 1,0,-1
 446 0 l 1,1,-1
 428 176 l 1,2,-1
 196 176 l 1,3,-1
 109 0 l 1,4,-1
 -33 0 l 1,5,-1
 328 698 l 1,6,-1
 498 698 l 1,7,-1
 580 0 l 1,0,-1
418 288 m 1,8,-1
 393 577 l 1,9,-1
 385 577 l 1,10,-1
 249 288 l 1,11,-1
 418 288 l 1,8,-1
564 790 m 1,12,-1
 287 790 l 1,13,-1
 306 885 l 1,14,-1
 583 885 l 1,15,-1
 564 790 l 1,12,-1
EndSplineSet
EndChar

StartChar: amacron
Encoding: 257 257 192
Width: 589
Flags: W
LayerCount: 2
Fore
SplineSet
178 -12 m 0,0,1
 128 -12 128 -12 96.5 13 c 128,-1,2
 65 38 65 38 50 80 c 128,-1,3
 35 122 35 122 35 173 c 0,4,5
 35 266 35 266 64.5 348.5 c 128,-1,6
 94 431 94 431 149 483 c 128,-1,7
 204 535 204 535 280 535 c 0,8,9
 334 535 334 535 369.5 507 c 128,-1,10
 405 479 405 479 412 434 c 1,11,-1
 417 434 l 1,12,-1
 435 523 l 1,13,-1
 563 523 l 1,14,-1
 478 104 l 1,15,-1
 540 104 l 1,16,-1
 520 0 l 1,17,-1
 431 0 l 1,18,19
 348 4 348 4 348 76 c 0,20,21
 348 83 348 83 354 120 c 1,22,-1
 348 120 l 1,23,24
 319 56 319 56 279 22 c 128,-1,25
 239 -12 239 -12 178 -12 c 0,0,1
237 94 m 0,26,27
 289 94 289 94 327 139.5 c 128,-1,28
 365 185 365 185 380 251 c 0,29,30
 399 346 399 346 399 356 c 0,31,32
 399 391 399 391 373 410 c 128,-1,33
 347 429 347 429 310 429 c 0,34,35
 210 429 210 429 186 304 c 0,36,37
 180 269 180 269 175 245 c 0,38,39
 166 206 166 206 166 177 c 0,40,41
 167 94 167 94 237 94 c 0,26,27
489 627 m 1,42,-1
 212 627 l 1,43,-1
 231 723 l 1,44,-1
 508 723 l 1,45,-1
 489 627 l 1,42,-1
EndSplineSet
EndChar

StartChar: Abreve
Encoding: 258 258 193
Width: 651
Flags: W
LayerCount: 2
Fore
SplineSet
580 0 m 1,0,-1
 446 0 l 1,1,-1
 428 176 l 1,2,-1
 196 176 l 1,3,-1
 109 0 l 1,4,-1
 -33 0 l 1,5,-1
 328 698 l 1,6,-1
 498 698 l 1,7,-1
 580 0 l 1,0,-1
418 288 m 1,8,-1
 393 577 l 1,9,-1
 385 577 l 1,10,-1
 249 288 l 1,11,-1
 418 288 l 1,8,-1
422 744 m 0,12,13
 352 744 352 744 310 790.5 c 128,-1,14
 268 837 268 837 259 908 c 1,15,-1
 332 945 l 1,16,-1
 344 920 l 2,17,18
 351 902 351 902 359 888.5 c 128,-1,19
 367 875 367 875 381.5 856.5 c 128,-1,20
 396 838 396 838 424 838 c 0,21,22
 459 839 459 839 482.5 860 c 128,-1,23
 506 881 506 881 537 924 c 2,24,-1
 553 945 l 1,25,-1
 629 904 l 1,26,27
 550 744 550 744 422 744 c 0,12,13
EndSplineSet
EndChar

StartChar: abreve
Encoding: 259 259 194
Width: 589
Flags: W
LayerCount: 2
Fore
SplineSet
178 -12 m 0,0,1
 128 -12 128 -12 96.5 13 c 128,-1,2
 65 38 65 38 50 80 c 128,-1,3
 35 122 35 122 35 173 c 0,4,5
 35 266 35 266 64.5 348.5 c 128,-1,6
 94 431 94 431 149 483 c 128,-1,7
 204 535 204 535 280 535 c 0,8,9
 334 535 334 535 369.5 507 c 128,-1,10
 405 479 405 479 412 434 c 1,11,-1
 417 434 l 1,12,-1
 435 523 l 1,13,-1
 563 523 l 1,14,-1
 478 104 l 1,15,-1
 540 104 l 1,16,-1
 520 0 l 1,17,-1
 431 0 l 1,18,19
 348 4 348 4 348 76 c 0,20,21
 348 83 348 83 354 120 c 1,22,-1
 348 120 l 1,23,24
 319 56 319 56 279 22 c 128,-1,25
 239 -12 239 -12 178 -12 c 0,0,1
237 94 m 0,26,27
 289 94 289 94 327 139.5 c 128,-1,28
 365 185 365 185 380 251 c 0,29,30
 399 346 399 346 399 356 c 0,31,32
 399 391 399 391 373 410 c 128,-1,33
 347 429 347 429 310 429 c 0,34,35
 210 429 210 429 186 304 c 0,36,37
 180 269 180 269 175 245 c 0,38,39
 166 206 166 206 166 177 c 0,40,41
 167 94 167 94 237 94 c 0,26,27
345 582 m 0,42,43
 295 582 295 582 261 605.5 c 128,-1,44
 227 629 227 629 207.5 666.5 c 128,-1,45
 188 704 188 704 183 746 c 1,46,-1
 256 783 l 1,47,-1
 273 748 l 2,48,49
 287 711 287 711 305 693.5 c 128,-1,50
 323 676 323 676 352 676 c 0,51,52
 370 676 370 676 385 683.5 c 128,-1,53
 400 691 400 691 421.5 714.5 c 128,-1,54
 443 738 443 738 477 783 c 1,55,-1
 553 742 l 1,56,57
 472 582 472 582 345 582 c 0,42,43
EndSplineSet
EndChar

StartChar: Aogonek
Encoding: 260 260 195
Width: 651
Flags: W
LayerCount: 2
Fore
SplineSet
480 -211 m 0,0,1
 437 -211 437 -211 401 -192.5 c 128,-1,2
 365 -174 365 -174 365 -130 c 0,3,4
 365 -45 365 -45 501 -4 c 1,5,-1
 500 0 l 1,6,-1
 446 0 l 1,7,-1
 428 176 l 1,8,-1
 196 176 l 1,9,-1
 109 0 l 1,10,-1
 -33 0 l 1,11,-1
 328 698 l 1,12,-1
 498 698 l 1,13,-1
 580 0 l 1,14,15
 512 -43 512 -43 487 -67.5 c 128,-1,16
 462 -92 462 -92 462 -113 c 0,17,18
 462 -142 462 -142 496 -142 c 0,19,20
 532 -142 532 -142 550 -115 c 1,21,-1
 599 -164 l 1,22,23
 566 -211 566 -211 480 -211 c 0,0,1
418 288 m 1,24,-1
 393 577 l 1,25,-1
 385 577 l 1,26,-1
 249 288 l 1,27,-1
 418 288 l 1,24,-1
EndSplineSet
EndChar

StartChar: aogonek
Encoding: 261 261 196
Width: 589
Flags: W
LayerCount: 2
Fore
SplineSet
419 -211 m 0,0,1
 374 -211 374 -211 339.5 -191.5 c 128,-1,2
 305 -172 305 -172 305 -130 c 0,3,4
 305 -47 305 -47 440 -4 c 1,5,-1
 439 0 l 1,6,7
 369 0 369 0 355 46 c 0,8,9
 348 63 348 63 348 78 c 2,10,-1
 354 120 l 1,11,-1
 348 120 l 1,12,13
 317 53 317 53 277 20.5 c 128,-1,14
 237 -12 237 -12 178 -12 c 0,15,16
 128 -12 128 -12 96.5 13 c 128,-1,17
 65 38 65 38 50 80 c 128,-1,18
 35 122 35 122 35 173 c 0,19,20
 35 273 35 273 66.5 355 c 128,-1,21
 98 437 98 437 153 486 c 128,-1,22
 208 535 208 535 280 535 c 0,23,24
 336 535 336 535 370.5 506 c 128,-1,25
 405 477 405 477 412 434 c 1,26,-1
 417 434 l 1,27,-1
 435 523 l 1,28,-1
 563 523 l 1,29,-1
 478 104 l 1,30,-1
 540 104 l 1,31,-1
 520 0 l 1,32,33
 454 -40 454 -40 427.5 -65 c 128,-1,34
 401 -90 401 -90 401 -113 c 0,35,36
 401 -141 401 -141 436 -142 c 0,37,38
 471 -142 471 -142 490 -115 c 1,39,-1
 539 -164 l 1,40,41
 505 -211 505 -211 419 -211 c 0,0,1
237 94 m 0,42,43
 289 94 289 94 327 139.5 c 128,-1,44
 365 185 365 185 380 251 c 0,45,46
 399 346 399 346 399 356 c 0,47,48
 399 391 399 391 372.5 410 c 128,-1,49
 346 429 346 429 310 429 c 0,50,51
 210 429 210 429 186 304 c 0,52,53
 167 207 167 207 167 200 c 2,54,-1
 166 177 l 1,55,56
 170 94 170 94 237 94 c 0,42,43
EndSplineSet
EndChar

StartChar: Cacute
Encoding: 262 262 197
Width: 629
Flags: W
LayerCount: 2
Fore
SplineSet
303 -12 m 0,0,1
 194 -12 194 -12 125.5 58.5 c 128,-1,2
 57 129 57 129 57 271 c 0,3,4
 57 394 57 394 102.5 493.5 c 128,-1,5
 148 593 148 593 228 651.5 c 128,-1,6
 308 710 308 710 410 710 c 0,7,8
 593 710 593 710 644 542 c 1,9,-1
 526 492 l 1,10,11
 512 542 512 542 482.5 567 c 128,-1,12
 453 592 453 592 400 592 c 0,13,14
 321 592 321 592 277 540.5 c 128,-1,15
 233 489 233 489 218 410 c 2,16,-1
 196 299 l 2,17,18
 191 268 191 268 191 246 c 0,19,20
 191 106 191 106 314 106 c 0,21,22
 426 106 426 106 475 215 c 1,23,-1
 586 164 l 1,24,25
 491 -12 491 -12 303 -12 c 0,0,1
442 742 m 1,26,-1
 364 784 l 1,27,-1
 480 971 l 1,28,-1
 584 915 l 1,29,-1
 442 742 l 1,26,-1
EndSplineSet
EndChar

StartChar: cacute
Encoding: 263 263 198
Width: 493
Flags: W
LayerCount: 2
Fore
SplineSet
237 -12 m 0,0,1
 147 -12 147 -12 91 43.5 c 128,-1,2
 35 99 35 99 35 212 c 0,3,4
 35 349 35 349 112 442 c 128,-1,5
 189 535 189 535 309 535 c 0,6,7
 385 535 385 535 432.5 499 c 128,-1,8
 480 463 480 463 493 402 c 1,9,-1
 386 361 l 1,10,11
 377 394 377 394 358.5 412.5 c 128,-1,12
 340 431 340 431 302 431 c 0,13,14
 208 431 208 431 184 314 c 0,15,16
 169 234 169 234 165.5 214 c 128,-1,17
 162 194 162 194 162 183 c 0,18,19
 162 93 162 93 248 93 c 0,20,21
 289 93 289 93 312.5 115.5 c 128,-1,22
 336 138 336 138 358 179 c 1,23,-1
 456 133 l 1,24,25
 384 -12 384 -12 237 -12 c 0,0,1
339 580 m 1,26,-1
 262 622 l 1,27,-1
 378 808 l 1,28,-1
 482 753 l 1,29,-1
 339 580 l 1,26,-1
EndSplineSet
EndChar

StartChar: Ccircumflex
Encoding: 264 264 199
Width: 629
Flags: W
LayerCount: 2
Fore
SplineSet
303 -12 m 0,0,1
 194 -12 194 -12 125.5 58.5 c 128,-1,2
 57 129 57 129 57 271 c 0,3,4
 57 394 57 394 102.5 493.5 c 128,-1,5
 148 593 148 593 228 651.5 c 128,-1,6
 308 710 308 710 410 710 c 0,7,8
 593 710 593 710 644 542 c 1,9,-1
 526 492 l 1,10,11
 512 542 512 542 482.5 567 c 128,-1,12
 453 592 453 592 400 592 c 0,13,14
 321 592 321 592 277 540.5 c 128,-1,15
 233 489 233 489 218 410 c 2,16,-1
 196 299 l 2,17,18
 191 268 191 268 191 246 c 0,19,20
 191 106 191 106 314 106 c 0,21,22
 426 106 426 106 475 215 c 1,23,-1
 586 164 l 1,24,25
 491 -12 491 -12 303 -12 c 0,0,1
542 743 m 1,26,-1
 445 858 l 1,27,-1
 310 743 l 1,28,-1
 245 795 l 1,29,-1
 398 951 l 1,30,-1
 515 951 l 1,31,-1
 611 795 l 1,32,-1
 542 743 l 1,26,-1
EndSplineSet
EndChar

StartChar: ccircumflex
Encoding: 265 265 200
Width: 493
Flags: W
LayerCount: 2
Fore
SplineSet
237 -12 m 0,0,1
 147 -12 147 -12 91 43.5 c 128,-1,2
 35 99 35 99 35 212 c 0,3,4
 35 349 35 349 112 442 c 128,-1,5
 189 535 189 535 309 535 c 0,6,7
 385 535 385 535 432.5 499 c 128,-1,8
 480 463 480 463 493 402 c 1,9,-1
 386 361 l 1,10,11
 377 394 377 394 358.5 412.5 c 128,-1,12
 340 431 340 431 302 431 c 0,13,14
 208 431 208 431 184 314 c 0,15,16
 169 234 169 234 165.5 214 c 128,-1,17
 162 194 162 194 162 183 c 0,18,19
 162 93 162 93 248 93 c 0,20,21
 289 93 289 93 312.5 115.5 c 128,-1,22
 336 138 336 138 358 179 c 1,23,-1
 456 133 l 1,24,25
 384 -12 384 -12 237 -12 c 0,0,1
439 581 m 1,26,-1
 342 696 l 1,27,-1
 207 581 l 1,28,-1
 143 634 l 1,29,-1
 295 789 l 1,30,-1
 412 789 l 1,31,-1
 508 633 l 1,32,-1
 439 581 l 1,26,-1
EndSplineSet
EndChar

StartChar: Cdotaccent
Encoding: 266 266 201
Width: 629
Flags: W
LayerCount: 2
Fore
SplineSet
303 -12 m 0,0,1
 194 -12 194 -12 125.5 58.5 c 128,-1,2
 57 129 57 129 57 271 c 0,3,4
 57 394 57 394 102.5 493.5 c 128,-1,5
 148 593 148 593 228 651.5 c 128,-1,6
 308 710 308 710 410 710 c 0,7,8
 593 710 593 710 644 542 c 1,9,-1
 526 492 l 1,10,11
 512 542 512 542 482.5 567 c 128,-1,12
 453 592 453 592 400 592 c 0,13,14
 321 592 321 592 277 540.5 c 128,-1,15
 233 489 233 489 218 410 c 2,16,-1
 196 299 l 2,17,18
 191 268 191 268 191 246 c 0,19,20
 191 106 191 106 314 106 c 0,21,22
 426 106 426 106 475 215 c 1,23,-1
 586 164 l 1,24,25
 491 -12 491 -12 303 -12 c 0,0,1
430 758 m 0,26,27
 360 758 360 758 360 812 c 0,28,29
 360 854 360 854 378 884 c 128,-1,30
 396 914 396 914 453 914 c 0,31,32
 513 914 513 914 521 872 c 1,33,-1
 523 866 l 2,34,35
 522 857 522 857 522 850.5 c 128,-1,36
 522 844 522 844 520 841 c 0,37,38
 517 805 517 805 499 781.5 c 128,-1,39
 481 758 481 758 430 758 c 0,26,27
EndSplineSet
EndChar

StartChar: cdotaccent
Encoding: 267 267 202
Width: 493
Flags: W
LayerCount: 2
Fore
SplineSet
237 -12 m 0,0,1
 147 -12 147 -12 91 43.5 c 128,-1,2
 35 99 35 99 35 212 c 0,3,4
 35 349 35 349 112 442 c 128,-1,5
 189 535 189 535 309 535 c 0,6,7
 385 535 385 535 432.5 499 c 128,-1,8
 480 463 480 463 493 402 c 1,9,-1
 386 361 l 1,10,11
 377 394 377 394 358.5 412.5 c 128,-1,12
 340 431 340 431 302 431 c 0,13,14
 208 431 208 431 184 314 c 0,15,16
 169 234 169 234 165.5 214 c 128,-1,17
 162 194 162 194 162 183 c 0,18,19
 162 93 162 93 248 93 c 0,20,21
 289 93 289 93 312.5 115.5 c 128,-1,22
 336 138 336 138 358 179 c 1,23,-1
 456 133 l 1,24,25
 384 -12 384 -12 237 -12 c 0,0,1
327 596 m 0,26,27
 257 596 257 596 257 650 c 0,28,29
 257 692 257 692 275 722 c 128,-1,30
 293 752 293 752 350 752 c 0,31,32
 410 752 410 752 418 710 c 2,33,-1
 420 703 l 2,34,35
 419 700 419 700 419 695 c 128,-1,36
 419 690 419 690 419 686 c 0,37,38
 414 638 414 638 394.5 617 c 128,-1,39
 375 596 375 596 327 596 c 0,26,27
EndSplineSet
EndChar

StartChar: Ccaron
Encoding: 268 268 203
Width: 629
Flags: W
LayerCount: 2
Fore
SplineSet
303 -12 m 0,0,1
 194 -12 194 -12 125.5 58.5 c 128,-1,2
 57 129 57 129 57 271 c 0,3,4
 57 394 57 394 102.5 493.5 c 128,-1,5
 148 593 148 593 228 651.5 c 128,-1,6
 308 710 308 710 410 710 c 0,7,8
 593 710 593 710 644 542 c 1,9,-1
 526 492 l 1,10,11
 512 542 512 542 482.5 567 c 128,-1,12
 453 592 453 592 400 592 c 0,13,14
 321 592 321 592 277 540.5 c 128,-1,15
 233 489 233 489 218 410 c 2,16,-1
 196 299 l 2,17,18
 191 268 191 268 191 246 c 0,19,20
 191 106 191 106 314 106 c 0,21,22
 426 106 426 106 475 215 c 1,23,-1
 586 164 l 1,24,25
 491 -12 491 -12 303 -12 c 0,0,1
484 752 m 1,26,-1
 366 752 l 1,27,-1
 269 907 l 1,28,-1
 337 960 l 1,29,-1
 432 844 l 1,30,-1
 570 960 l 1,31,-1
 636 907 l 1,32,-1
 484 752 l 1,26,-1
EndSplineSet
EndChar

StartChar: ccaron
Encoding: 269 269 204
Width: 493
Flags: W
LayerCount: 2
Fore
SplineSet
237 -12 m 0,0,1
 147 -12 147 -12 91 43.5 c 128,-1,2
 35 99 35 99 35 212 c 0,3,4
 35 349 35 349 112 442 c 128,-1,5
 189 535 189 535 309 535 c 0,6,7
 385 535 385 535 432.5 499 c 128,-1,8
 480 463 480 463 493 402 c 1,9,-1
 386 361 l 1,10,11
 377 394 377 394 358.5 412.5 c 128,-1,12
 340 431 340 431 302 431 c 0,13,14
 208 431 208 431 184 314 c 0,15,16
 169 234 169 234 165.5 214 c 128,-1,17
 162 194 162 194 162 183 c 0,18,19
 162 93 162 93 248 93 c 0,20,21
 289 93 289 93 312.5 115.5 c 128,-1,22
 336 138 336 138 358 179 c 1,23,-1
 456 133 l 1,24,25
 384 -12 384 -12 237 -12 c 0,0,1
381 590 m 1,26,-1
 264 590 l 1,27,-1
 166 745 l 1,28,-1
 235 797 l 1,29,-1
 329 682 l 1,30,-1
 467 797 l 1,31,-1
 533 745 l 1,32,-1
 381 590 l 1,26,-1
EndSplineSet
EndChar

StartChar: Dcaron
Encoding: 270 270 205
Width: 676
Flags: W
LayerCount: 2
Fore
SplineSet
286 0 m 2,0,-1
 25 0 l 1,1,-1
 165 698 l 1,2,-1
 386 698 l 2,3,4
 463 698 463 698 522 670 c 128,-1,5
 581 642 581 642 614.5 584 c 128,-1,6
 648 526 648 526 648 435 c 0,7,8
 648 352 648 352 626 274 c 128,-1,9
 604 196 604 196 559.5 134.5 c 128,-1,10
 515 73 515 73 447 36.5 c 128,-1,11
 379 0 379 0 286 0 c 2,0,-1
296 118 m 2,12,13
 364 118 364 118 415 159.5 c 128,-1,14
 466 201 466 201 487 295 c 0,15,16
 507 398 507 398 509.5 413.5 c 128,-1,17
 512 429 512 429 513 446 c 2,18,-1
 513 453 l 2,19,20
 513 580 513 580 392 580 c 2,21,-1
 275 580 l 1,22,-1
 182 118 l 1,23,-1
 296 118 l 2,12,13
460 752 m 1,24,-1
 342 752 l 1,25,-1
 245 907 l 1,26,-1
 313 960 l 1,27,-1
 408 844 l 1,28,-1
 546 960 l 1,29,-1
 612 907 l 1,30,-1
 460 752 l 1,24,-1
EndSplineSet
EndChar

StartChar: dcaron
Encoding: 271 271 206
Width: 647
Flags: W
LayerCount: 2
Fore
SplineSet
178 -12 m 0,0,1
 128 -12 128 -12 96.5 13 c 128,-1,2
 65 38 65 38 50 80 c 128,-1,3
 35 122 35 122 35 173 c 0,4,5
 35 274 35 274 66.5 356 c 128,-1,6
 98 438 98 438 153 486.5 c 128,-1,7
 208 535 208 535 280 535 c 0,8,9
 335 535 335 535 369.5 507 c 128,-1,10
 404 479 404 479 412 434 c 1,11,-1
 417 434 l 1,12,-1
 478 740 l 1,13,-1
 606 740 l 1,14,-1
 478 104 l 1,15,-1
 540 104 l 1,16,-1
 520 0 l 1,17,-1
 431 0 l 2,18,19
 381 2 381 2 364 36 c 1,20,21
 348 53 348 53 348 79 c 2,22,-1
 354 120 l 1,23,-1
 348 120 l 1,24,25
 317 53 317 53 277 20.5 c 128,-1,26
 237 -12 237 -12 178 -12 c 0,0,1
238 94 m 0,27,28
 292 94 292 94 329.5 141 c 128,-1,29
 367 188 367 188 380 251 c 0,30,31
 397 336 397 336 399 357 c 0,32,33
 399 388 399 388 376.5 408.5 c 128,-1,34
 354 429 354 429 309 429 c 0,35,36
 210 429 210 429 186 304 c 2,37,-1
 177 256 l 2,38,39
 166 209 166 209 166 177 c 0,40,41
 170 94 170 94 238 94 c 0,27,28
711 531 m 1,42,-1
 623 531 l 1,43,-1
 670 740 l 1,44,-1
 814 740 l 1,45,-1
 711 531 l 1,42,-1
EndSplineSet
EndChar

StartChar: Dcroat
Encoding: 272 272 207
Width: 681
Flags: W
LayerCount: 2
Fore
SplineSet
290 0 m 2,0,-1
 30 0 l 1,1,-1
 92 305 l 1,2,-1
 15 305 l 1,3,-1
 36 408 l 1,4,-1
 112 408 l 1,5,-1
 170 698 l 1,6,-1
 390 698 l 2,7,8
 466 698 466 698 525.5 671.5 c 128,-1,9
 585 645 585 645 619 587 c 128,-1,10
 653 529 653 529 653 435 c 0,11,12
 653 351 653 351 631 273 c 128,-1,13
 609 195 609 195 564 133.5 c 128,-1,14
 519 72 519 72 451 36 c 128,-1,15
 383 0 383 0 290 0 c 2,0,-1
300 118 m 2,16,17
 370 118 370 118 420.5 160 c 128,-1,18
 471 202 471 202 492 295 c 0,19,20
 499 335 499 335 504 354.5 c 128,-1,21
 509 374 509 374 512 394 c 128,-1,22
 515 414 515 414 518 453 c 0,23,24
 518 523 518 523 483 551.5 c 128,-1,25
 448 580 448 580 377 580 c 2,26,-1
 279 580 l 1,27,-1
 245 408 l 1,28,-1
 361 408 l 1,29,-1
 340 305 l 1,30,-1
 224 305 l 1,31,-1
 187 118 l 1,32,-1
 300 118 l 2,16,17
EndSplineSet
EndChar

StartChar: dcroat
Encoding: 273 273 208
Width: 589
Flags: W
LayerCount: 2
Fore
SplineSet
178 -12 m 0,0,1
 104 -12 104 -12 69.5 41 c 128,-1,2
 35 94 35 94 35 173 c 0,3,4
 35 269 35 269 65.5 351.5 c 128,-1,5
 96 434 96 434 151 484.5 c 128,-1,6
 206 535 206 535 280 535 c 0,7,8
 334 535 334 535 369.5 507 c 128,-1,9
 405 479 405 479 412 434 c 1,10,-1
 417 434 l 1,11,-1
 449 595 l 1,12,-1
 299 595 l 1,13,-1
 317 684 l 1,14,-1
 467 684 l 1,15,-1
 478 740 l 1,16,-1
 606 740 l 1,17,-1
 595 684 l 1,18,-1
 653 684 l 1,19,-1
 635 595 l 1,20,-1
 577 595 l 1,21,-1
 478 104 l 1,22,-1
 540 104 l 1,23,-1
 520 0 l 1,24,-1
 431 0 l 1,25,26
 348 4 348 4 348 76 c 0,27,28
 348 83 348 83 354 120 c 1,29,-1
 348 120 l 1,30,31
 317 53 317 53 277 20.5 c 128,-1,32
 237 -12 237 -12 178 -12 c 0,0,1
238 94 m 0,33,34
 292 94 292 94 329.5 141 c 128,-1,35
 367 188 367 188 380 251 c 0,36,37
 397 336 397 336 399 357 c 0,38,39
 399 388 399 388 376.5 408.5 c 128,-1,40
 354 429 354 429 309 429 c 0,41,42
 210 429 210 429 186 304 c 2,43,-1
 177 256 l 2,44,45
 166 209 166 209 166 177 c 0,46,47
 170 94 170 94 238 94 c 0,33,34
EndSplineSet
EndChar

StartChar: Emacron
Encoding: 274 274 209
Width: 576
Flags: W
LayerCount: 2
Fore
SplineSet
478 0 m 1,0,-1
 25 0 l 1,1,-1
 165 698 l 1,2,-1
 607 698 l 1,3,-1
 583 581 l 1,4,-1
 275 581 l 1,5,-1
 241 411 l 1,6,-1
 514 411 l 1,7,-1
 491 294 l 1,8,-1
 217 294 l 1,9,-1
 182 117 l 1,10,-1
 502 117 l 1,11,-1
 478 0 l 1,0,-1
540 790 m 1,12,-1
 263 790 l 1,13,-1
 282 885 l 1,14,-1
 559 885 l 1,15,-1
 540 790 l 1,12,-1
EndSplineSet
EndChar

StartChar: emacron
Encoding: 275 275 210
Width: 514
Flags: W
LayerCount: 2
Fore
SplineSet
251 -12 m 0,0,1
 137 -12 137 -12 86 50 c 128,-1,2
 35 112 35 112 35 212 c 0,3,4
 35 296 35 296 73.5 376 c 128,-1,5
 112 456 112 456 197 507 c 0,6,7
 249 535 249 535 317 535 c 0,8,9
 367 535 367 535 408.5 520 c 128,-1,10
 450 505 450 505 475 473 c 128,-1,11
 500 441 500 441 500 391 c 0,12,13
 500 219 500 219 164 210 c 1,14,15
 162 196 162 196 162 184 c 0,16,17
 162 93 162 93 260 93 c 0,18,19
 336 93 336 93 394 167 c 1,20,-1
 473 104 l 1,21,22
 388 -12 388 -12 251 -12 c 0,0,1
178 294 m 1,23,24
 285 298 285 298 330 318 c 128,-1,25
 375 338 375 338 375 380 c 0,26,27
 375 436 375 436 309 436 c 0,28,29
 205 436 205 436 181 309 c 2,30,-1
 178 294 l 1,23,24
479 627 m 1,31,-1
 202 627 l 1,32,-1
 221 723 l 1,33,-1
 498 723 l 1,34,-1
 479 627 l 1,31,-1
EndSplineSet
EndChar

StartChar: Ebreve
Encoding: 276 276 211
Width: 576
Flags: W
LayerCount: 2
Fore
SplineSet
478 0 m 1,0,-1
 25 0 l 1,1,-1
 165 698 l 1,2,-1
 607 698 l 1,3,-1
 583 581 l 1,4,-1
 275 581 l 1,5,-1
 241 411 l 1,6,-1
 514 411 l 1,7,-1
 491 294 l 1,8,-1
 217 294 l 1,9,-1
 182 117 l 1,10,-1
 502 117 l 1,11,-1
 478 0 l 1,0,-1
398 744 m 0,12,13
 328 744 328 744 286 790.5 c 128,-1,14
 244 837 244 837 235 908 c 1,15,-1
 308 945 l 1,16,-1
 320 920 l 2,17,18
 327 902 327 902 335 888.5 c 128,-1,19
 343 875 343 875 357.5 856.5 c 128,-1,20
 372 838 372 838 400 838 c 0,21,22
 435 839 435 839 458.5 860 c 128,-1,23
 482 881 482 881 513 924 c 2,24,-1
 529 945 l 1,25,-1
 605 904 l 1,26,27
 526 744 526 744 398 744 c 0,12,13
EndSplineSet
EndChar

StartChar: ebreve
Encoding: 277 277 212
Width: 514
Flags: W
LayerCount: 2
Fore
SplineSet
251 -12 m 0,0,1
 137 -12 137 -12 86 50 c 128,-1,2
 35 112 35 112 35 212 c 0,3,4
 35 296 35 296 73.5 376 c 128,-1,5
 112 456 112 456 197 507 c 0,6,7
 249 535 249 535 317 535 c 0,8,9
 367 535 367 535 408.5 520 c 128,-1,10
 450 505 450 505 475 473 c 128,-1,11
 500 441 500 441 500 391 c 0,12,13
 500 219 500 219 164 210 c 1,14,15
 162 196 162 196 162 184 c 0,16,17
 162 93 162 93 260 93 c 0,18,19
 336 93 336 93 394 167 c 1,20,-1
 473 104 l 1,21,22
 388 -12 388 -12 251 -12 c 0,0,1
178 294 m 1,23,24
 285 298 285 298 330 318 c 128,-1,25
 375 338 375 338 375 380 c 0,26,27
 375 436 375 436 309 436 c 0,28,29
 205 436 205 436 181 309 c 2,30,-1
 178 294 l 1,23,24
335 582 m 0,31,32
 285 582 285 582 251 605.5 c 128,-1,33
 217 629 217 629 197.5 666.5 c 128,-1,34
 178 704 178 704 173 746 c 1,35,-1
 246 783 l 1,36,-1
 263 748 l 2,37,38
 277 711 277 711 295 693.5 c 128,-1,39
 313 676 313 676 342 676 c 0,40,41
 360 676 360 676 375 683.5 c 128,-1,42
 390 691 390 691 411.5 714.5 c 128,-1,43
 433 738 433 738 467 783 c 1,44,-1
 543 742 l 1,45,46
 462 582 462 582 335 582 c 0,31,32
EndSplineSet
EndChar

StartChar: Edotaccent
Encoding: 278 278 213
Width: 576
Flags: W
LayerCount: 2
Fore
SplineSet
478 0 m 1,0,-1
 25 0 l 1,1,-1
 165 698 l 1,2,-1
 607 698 l 1,3,-1
 583 581 l 1,4,-1
 275 581 l 1,5,-1
 241 411 l 1,6,-1
 514 411 l 1,7,-1
 491 294 l 1,8,-1
 217 294 l 1,9,-1
 182 117 l 1,10,-1
 502 117 l 1,11,-1
 478 0 l 1,0,-1
400 758 m 0,12,13
 330 758 330 758 330 812 c 0,14,15
 330 854 330 854 348 884 c 128,-1,16
 366 914 366 914 423 914 c 0,17,18
 483 914 483 914 491 872 c 1,19,-1
 493 866 l 2,20,21
 492 857 492 857 492 850.5 c 128,-1,22
 492 844 492 844 490 841 c 0,23,24
 487 805 487 805 469 781.5 c 128,-1,25
 451 758 451 758 400 758 c 0,12,13
EndSplineSet
EndChar

StartChar: edotaccent
Encoding: 279 279 214
Width: 514
Flags: W
LayerCount: 2
Fore
SplineSet
251 -12 m 0,0,1
 137 -12 137 -12 86 50 c 128,-1,2
 35 112 35 112 35 212 c 0,3,4
 35 296 35 296 73.5 376 c 128,-1,5
 112 456 112 456 197 507 c 0,6,7
 249 535 249 535 317 535 c 0,8,9
 367 535 367 535 408.5 520 c 128,-1,10
 450 505 450 505 475 473 c 128,-1,11
 500 441 500 441 500 391 c 0,12,13
 500 219 500 219 164 210 c 1,14,15
 162 196 162 196 162 184 c 0,16,17
 162 93 162 93 260 93 c 0,18,19
 336 93 336 93 394 167 c 1,20,-1
 473 104 l 1,21,22
 388 -12 388 -12 251 -12 c 0,0,1
178 294 m 1,23,24
 285 298 285 298 330 318 c 128,-1,25
 375 338 375 338 375 380 c 0,26,27
 375 436 375 436 309 436 c 0,28,29
 205 436 205 436 181 309 c 2,30,-1
 178 294 l 1,23,24
338 596 m 0,31,32
 268 596 268 596 268 650 c 0,33,34
 268 692 268 692 286 722 c 128,-1,35
 304 752 304 752 361 752 c 0,36,37
 421 752 421 752 429 710 c 2,38,-1
 431 703 l 2,39,40
 430 700 430 700 430 695 c 128,-1,41
 430 690 430 690 430 686 c 0,42,43
 425 638 425 638 405.5 617 c 128,-1,44
 386 596 386 596 338 596 c 0,31,32
EndSplineSet
EndChar

StartChar: Eogonek
Encoding: 280 280 215
Width: 576
Flags: W
LayerCount: 2
Fore
SplineSet
378 -211 m 0,0,1
 335 -211 335 -211 299 -192.5 c 128,-1,2
 263 -174 263 -174 263 -130 c 0,3,4
 263 -45 263 -45 399 -4 c 1,5,-1
 398 0 l 1,6,-1
 25 0 l 1,7,-1
 165 698 l 1,8,-1
 607 698 l 1,9,-1
 583 581 l 1,10,-1
 275 581 l 1,11,-1
 241 411 l 1,12,-1
 514 411 l 1,13,-1
 491 294 l 1,14,-1
 217 294 l 1,15,-1
 182 117 l 1,16,-1
 502 117 l 1,17,-1
 478 0 l 1,18,19
 410 -43 410 -43 385 -67.5 c 128,-1,20
 360 -92 360 -92 360 -113 c 0,21,22
 360 -142 360 -142 394 -142 c 256,23,24
 428 -142 428 -142 448 -115 c 1,25,-1
 497 -164 l 1,26,27
 464 -211 464 -211 378 -211 c 0,0,1
EndSplineSet
EndChar

StartChar: eogonek
Encoding: 281 281 216
Width: 514
Flags: W
LayerCount: 2
Fore
SplineSet
234 -211 m 0,0,1
 190 -211 190 -211 154.5 -192 c 128,-1,2
 119 -173 119 -173 119 -130 c 0,3,4
 119 -96 119 -96 147 -66 c 128,-1,5
 175 -36 175 -36 236 -15 c 1,6,-1
 235 -11 l 1,7,8
 130 -4 130 -4 82.5 56.5 c 128,-1,9
 35 117 35 117 35 212 c 0,10,11
 35 288 35 288 66 362.5 c 128,-1,12
 97 437 97 437 160 486 c 128,-1,13
 223 535 223 535 317 535 c 0,14,15
 393 535 393 535 446.5 498.5 c 128,-1,16
 500 462 500 462 500 391 c 0,17,18
 500 217 500 217 164 210 c 1,19,20
 162 196 162 196 162 184 c 0,21,22
 162 93 162 93 260 93 c 0,23,24
 336 93 336 93 394 167 c 1,25,-1
 473 104 l 1,26,27
 419 37 419 37 366 13 c 0,28,29
 215 -59 215 -59 215 -113 c 0,30,31
 215 -142 215 -142 250 -142 c 0,32,33
 284 -142 284 -142 304 -115 c 1,34,-1
 353 -164 l 1,35,36
 320 -211 320 -211 234 -211 c 0,0,1
178 294 m 1,37,38
 285 298 285 298 330 318 c 128,-1,39
 375 338 375 338 375 380 c 0,40,41
 375 436 375 436 309 436 c 0,42,43
 205 436 205 436 181 309 c 2,44,-1
 178 294 l 1,37,38
EndSplineSet
EndChar

StartChar: Ecaron
Encoding: 282 282 217
Width: 576
Flags: W
LayerCount: 2
Fore
SplineSet
478 0 m 1,0,-1
 25 0 l 1,1,-1
 165 698 l 1,2,-1
 607 698 l 1,3,-1
 583 581 l 1,4,-1
 275 581 l 1,5,-1
 241 411 l 1,6,-1
 514 411 l 1,7,-1
 491 294 l 1,8,-1
 217 294 l 1,9,-1
 182 117 l 1,10,-1
 502 117 l 1,11,-1
 478 0 l 1,0,-1
454 752 m 1,12,-1
 336 752 l 1,13,-1
 239 907 l 1,14,-1
 307 960 l 1,15,-1
 402 844 l 1,16,-1
 540 960 l 1,17,-1
 606 907 l 1,18,-1
 454 752 l 1,12,-1
EndSplineSet
EndChar

StartChar: ecaron
Encoding: 283 283 218
Width: 514
Flags: W
LayerCount: 2
Fore
SplineSet
251 -12 m 0,0,1
 137 -12 137 -12 86 50 c 128,-1,2
 35 112 35 112 35 212 c 0,3,4
 35 296 35 296 73.5 376 c 128,-1,5
 112 456 112 456 197 507 c 0,6,7
 249 535 249 535 317 535 c 0,8,9
 367 535 367 535 408.5 520 c 128,-1,10
 450 505 450 505 475 473 c 128,-1,11
 500 441 500 441 500 391 c 0,12,13
 500 219 500 219 164 210 c 1,14,15
 162 196 162 196 162 184 c 0,16,17
 162 93 162 93 260 93 c 0,18,19
 336 93 336 93 394 167 c 1,20,-1
 473 104 l 1,21,22
 388 -12 388 -12 251 -12 c 0,0,1
178 294 m 1,23,24
 285 298 285 298 330 318 c 128,-1,25
 375 338 375 338 375 380 c 0,26,27
 375 436 375 436 309 436 c 0,28,29
 205 436 205 436 181 309 c 2,30,-1
 178 294 l 1,23,24
392 590 m 1,31,-1
 275 590 l 1,32,-1
 177 745 l 1,33,-1
 246 797 l 1,34,-1
 340 682 l 1,35,-1
 478 797 l 1,36,-1
 544 745 l 1,37,-1
 392 590 l 1,31,-1
EndSplineSet
EndChar

StartChar: Gcircumflex
Encoding: 284 284 219
Width: 693
Flags: W
LayerCount: 2
Fore
SplineSet
282 -12 m 0,0,1
 217 -12 217 -12 166.5 18 c 128,-1,2
 116 48 116 48 86.5 109.5 c 128,-1,3
 57 171 57 171 57 268 c 0,4,5
 57 382 57 382 98.5 483 c 128,-1,6
 140 584 140 584 221 647 c 128,-1,7
 302 710 302 710 421 710 c 0,8,9
 503 710 503 710 570.5 672 c 128,-1,10
 638 634 638 634 670 546 c 1,11,-1
 558 488 l 1,12,13
 530 592 530 592 413 592 c 0,14,15
 252 592 252 592 218 409 c 0,16,17
 204 348 204 348 197 310.5 c 128,-1,18
 190 273 190 273 190 243 c 0,19,20
 190 171 190 171 227 138.5 c 128,-1,21
 264 106 264 106 315 106 c 0,22,23
 377 106 377 106 426 137.5 c 128,-1,24
 475 169 475 169 491 230 c 1,25,-1
 498 268 l 1,26,-1
 368 268 l 1,27,-1
 390 381 l 1,28,-1
 647 381 l 1,29,-1
 571 0 l 1,30,-1
 460 0 l 1,31,-1
 482 109 l 1,32,-1
 475 109 l 1,33,34
 451 57 451 57 404 22.5 c 128,-1,35
 357 -12 357 -12 282 -12 c 0,0,1
554 743 m 1,36,-1
 457 858 l 1,37,-1
 322 743 l 1,38,-1
 257 795 l 1,39,-1
 410 951 l 1,40,-1
 527 951 l 1,41,-1
 623 795 l 1,42,-1
 554 743 l 1,36,-1
EndSplineSet
EndChar

StartChar: gcircumflex
Encoding: 285 285 220
Width: 570
Flags: W
LayerCount: 2
Fore
SplineSet
456 581 m 1,0,-1
 358 696 l 1,1,-1
 223 581 l 1,2,-1
 159 634 l 1,3,-1
 311 789 l 1,4,-1
 428 789 l 1,5,-1
 525 633 l 1,6,-1
 456 581 l 1,0,-1
205 -212 m 0,7,8
 67 -212 67 -212 -2 -119 c 1,9,-1
 81 -44 l 1,10,11
 123 -108 123 -108 202 -108 c 0,12,13
 306 -108 306 -108 333 21 c 2,14,-1
 355 131 l 1,15,-1
 350 131 l 1,16,17
 293 -1 293 -1 180 -1 c 0,18,19
 129 -1 129 -1 97.5 23.5 c 128,-1,20
 66 48 66 48 51.5 90 c 128,-1,21
 37 132 37 132 37 184 c 0,22,23
 37 285 37 285 66.5 364 c 128,-1,24
 96 443 96 443 151 489 c 128,-1,25
 206 535 206 535 280 535 c 0,26,27
 338 535 338 535 371 506 c 128,-1,28
 404 477 404 477 411 434 c 1,29,-1
 416 434 l 1,30,-1
 434 523 l 1,31,-1
 562 523 l 1,32,-1
 460 14 l 2,33,34
 441 -95 441 -95 382 -153.5 c 128,-1,35
 323 -212 323 -212 205 -212 c 0,7,8
240 106 m 0,36,37
 291 106 291 106 329 150.5 c 128,-1,38
 367 195 367 195 382 262 c 2,39,-1
 391 315 l 2,40,41
 397 345 397 345 397 353 c 0,42,43
 397 380 397 380 378.5 404.5 c 128,-1,44
 360 429 360 429 309 429 c 0,45,46
 209 429 209 429 185 304 c 2,47,-1
 183 293 l 2,48,49
 168 225 168 225 168 189 c 0,50,51
 168 110 168 110 240 106 c 0,36,37
EndSplineSet
EndChar

StartChar: Gbreve
Encoding: 286 286 221
Width: 693
Flags: W
LayerCount: 2
Fore
SplineSet
282 -12 m 0,0,1
 217 -12 217 -12 166.5 18 c 128,-1,2
 116 48 116 48 86.5 109.5 c 128,-1,3
 57 171 57 171 57 268 c 0,4,5
 57 382 57 382 98.5 483 c 128,-1,6
 140 584 140 584 221 647 c 128,-1,7
 302 710 302 710 421 710 c 0,8,9
 503 710 503 710 570.5 672 c 128,-1,10
 638 634 638 634 670 546 c 1,11,-1
 558 488 l 1,12,13
 530 592 530 592 413 592 c 0,14,15
 252 592 252 592 218 409 c 0,16,17
 204 348 204 348 197 310.5 c 128,-1,18
 190 273 190 273 190 243 c 0,19,20
 190 171 190 171 227 138.5 c 128,-1,21
 264 106 264 106 315 106 c 0,22,23
 377 106 377 106 426 137.5 c 128,-1,24
 475 169 475 169 491 230 c 1,25,-1
 498 268 l 1,26,-1
 368 268 l 1,27,-1
 390 381 l 1,28,-1
 647 381 l 1,29,-1
 571 0 l 1,30,-1
 460 0 l 1,31,-1
 482 109 l 1,32,-1
 475 109 l 1,33,34
 451 57 451 57 404 22.5 c 128,-1,35
 357 -12 357 -12 282 -12 c 0,0,1
440 744 m 0,36,37
 370 744 370 744 328 790.5 c 128,-1,38
 286 837 286 837 277 908 c 1,39,-1
 350 945 l 1,40,-1
 362 920 l 2,41,42
 369 902 369 902 377 888.5 c 128,-1,43
 385 875 385 875 399.5 856.5 c 128,-1,44
 414 838 414 838 442 838 c 0,45,46
 477 839 477 839 500.5 860 c 128,-1,47
 524 881 524 881 555 924 c 2,48,-1
 571 945 l 1,49,-1
 647 904 l 1,50,51
 568 744 568 744 440 744 c 0,36,37
EndSplineSet
EndChar

StartChar: gbreve
Encoding: 287 287 222
Width: 570
Flags: W
LayerCount: 2
Fore
SplineSet
341 582 m 0,0,1
 289 582 289 582 256 605 c 128,-1,2
 223 628 223 628 204.5 665 c 128,-1,3
 186 702 186 702 178 746 c 1,4,-1
 252 783 l 1,5,6
 266 751 266 751 281 724 c 0,7,8
 302 676 302 676 348 676 c 0,9,10
 380 676 380 676 403 698.5 c 128,-1,11
 426 721 426 721 459 766 c 2,12,-1
 472 783 l 1,13,-1
 548 742 l 1,14,15
 510 660 510 660 434 606 c 0,16,17
 395 582 395 582 341 582 c 0,0,1
205 -212 m 0,18,19
 67 -212 67 -212 -2 -119 c 1,20,-1
 81 -44 l 1,21,22
 123 -108 123 -108 202 -108 c 0,23,24
 306 -108 306 -108 333 21 c 2,25,-1
 355 131 l 1,26,-1
 350 131 l 1,27,28
 293 -1 293 -1 180 -1 c 0,29,30
 129 -1 129 -1 97.5 23.5 c 128,-1,31
 66 48 66 48 51.5 90 c 128,-1,32
 37 132 37 132 37 184 c 0,33,34
 37 285 37 285 66.5 364 c 128,-1,35
 96 443 96 443 151 489 c 128,-1,36
 206 535 206 535 280 535 c 0,37,38
 338 535 338 535 371 506 c 128,-1,39
 404 477 404 477 411 434 c 1,40,-1
 416 434 l 1,41,-1
 434 523 l 1,42,-1
 562 523 l 1,43,-1
 460 14 l 2,44,45
 441 -95 441 -95 382 -153.5 c 128,-1,46
 323 -212 323 -212 205 -212 c 0,18,19
240 106 m 0,47,48
 291 106 291 106 329 150.5 c 128,-1,49
 367 195 367 195 382 262 c 2,50,-1
 391 315 l 2,51,52
 397 345 397 345 397 353 c 0,53,54
 397 380 397 380 378.5 404.5 c 128,-1,55
 360 429 360 429 309 429 c 0,56,57
 209 429 209 429 185 304 c 2,58,-1
 183 293 l 2,59,60
 168 225 168 225 168 189 c 0,61,62
 168 110 168 110 240 106 c 0,47,48
EndSplineSet
EndChar

StartChar: Gdotaccent
Encoding: 288 288 223
Width: 693
Flags: W
LayerCount: 2
Fore
SplineSet
282 -12 m 0,0,1
 217 -12 217 -12 166.5 18 c 128,-1,2
 116 48 116 48 86.5 109.5 c 128,-1,3
 57 171 57 171 57 268 c 0,4,5
 57 382 57 382 98.5 483 c 128,-1,6
 140 584 140 584 221 647 c 128,-1,7
 302 710 302 710 421 710 c 0,8,9
 503 710 503 710 570.5 672 c 128,-1,10
 638 634 638 634 670 546 c 1,11,-1
 558 488 l 1,12,13
 530 592 530 592 413 592 c 0,14,15
 252 592 252 592 218 409 c 0,16,17
 204 348 204 348 197 310.5 c 128,-1,18
 190 273 190 273 190 243 c 0,19,20
 190 171 190 171 227 138.5 c 128,-1,21
 264 106 264 106 315 106 c 0,22,23
 377 106 377 106 426 137.5 c 128,-1,24
 475 169 475 169 491 230 c 1,25,-1
 498 268 l 1,26,-1
 368 268 l 1,27,-1
 390 381 l 1,28,-1
 647 381 l 1,29,-1
 571 0 l 1,30,-1
 460 0 l 1,31,-1
 482 109 l 1,32,-1
 475 109 l 1,33,34
 451 57 451 57 404 22.5 c 128,-1,35
 357 -12 357 -12 282 -12 c 0,0,1
442 758 m 0,36,37
 372 758 372 758 372 812 c 0,38,39
 372 854 372 854 390 884 c 128,-1,40
 408 914 408 914 465 914 c 0,41,42
 525 914 525 914 533 872 c 1,43,-1
 535 866 l 2,44,45
 534 857 534 857 534 850.5 c 128,-1,46
 534 844 534 844 532 841 c 0,47,48
 529 805 529 805 511 781.5 c 128,-1,49
 493 758 493 758 442 758 c 0,36,37
EndSplineSet
EndChar

StartChar: gdotaccent
Encoding: 289 289 224
Width: 570
Flags: W
LayerCount: 2
Fore
SplineSet
343 596 m 0,0,1
 274 596 274 596 274 650 c 0,2,3
 274 681 274 681 286 707 c 0,4,5
 305 752 305 752 367 752 c 0,6,7
 436 752 436 752 436 697 c 0,8,9
 436 596 436 596 343 596 c 0,0,1
205 -212 m 0,10,11
 67 -212 67 -212 -2 -119 c 1,12,-1
 81 -44 l 1,13,14
 123 -108 123 -108 202 -108 c 0,15,16
 306 -108 306 -108 333 21 c 2,17,-1
 355 131 l 1,18,-1
 350 131 l 1,19,20
 293 -1 293 -1 180 -1 c 0,21,22
 129 -1 129 -1 97.5 23.5 c 128,-1,23
 66 48 66 48 51.5 90 c 128,-1,24
 37 132 37 132 37 184 c 0,25,26
 37 285 37 285 66.5 364 c 128,-1,27
 96 443 96 443 151 489 c 128,-1,28
 206 535 206 535 280 535 c 0,29,30
 338 535 338 535 371 506 c 128,-1,31
 404 477 404 477 411 434 c 1,32,-1
 416 434 l 1,33,-1
 434 523 l 1,34,-1
 562 523 l 1,35,-1
 460 14 l 2,36,37
 441 -95 441 -95 382 -153.5 c 128,-1,38
 323 -212 323 -212 205 -212 c 0,10,11
240 106 m 0,39,40
 291 106 291 106 329 150.5 c 128,-1,41
 367 195 367 195 382 262 c 2,42,-1
 391 315 l 2,43,44
 397 345 397 345 397 353 c 0,45,46
 397 380 397 380 378.5 404.5 c 128,-1,47
 360 429 360 429 309 429 c 0,48,49
 209 429 209 429 185 304 c 2,50,-1
 183 293 l 2,51,52
 168 225 168 225 168 189 c 0,53,54
 168 110 168 110 240 106 c 0,39,40
EndSplineSet
EndChar

StartChar: u0122
Encoding: 290 290 225
Width: 693
Flags: W
LayerCount: 2
Fore
SplineSet
282 -12 m 0,0,1
 217 -12 217 -12 166.5 18 c 128,-1,2
 116 48 116 48 86.5 109.5 c 128,-1,3
 57 171 57 171 57 268 c 0,4,5
 57 382 57 382 98.5 483 c 128,-1,6
 140 584 140 584 221 647 c 128,-1,7
 302 710 302 710 421 710 c 0,8,9
 503 710 503 710 570.5 672 c 128,-1,10
 638 634 638 634 670 546 c 1,11,-1
 558 488 l 1,12,13
 530 592 530 592 413 592 c 0,14,15
 252 592 252 592 218 409 c 0,16,17
 204 348 204 348 197 310.5 c 128,-1,18
 190 273 190 273 190 243 c 0,19,20
 190 171 190 171 227 138.5 c 128,-1,21
 264 106 264 106 315 106 c 0,22,23
 377 106 377 106 426 137.5 c 128,-1,24
 475 169 475 169 491 230 c 1,25,-1
 498 268 l 1,26,-1
 368 268 l 1,27,-1
 390 381 l 1,28,-1
 647 381 l 1,29,-1
 571 0 l 1,30,-1
 460 0 l 1,31,-1
 482 109 l 1,32,-1
 475 109 l 1,33,34
 451 57 451 57 404 22.5 c 128,-1,35
 357 -12 357 -12 282 -12 c 0,0,1
240 -269 m 1,36,-1
 162 -269 l 1,37,38
 212 -231 212 -231 238 -175 c 1,39,40
 202 -169 202 -169 202 -131 c 0,41,42
 202 -89 202 -89 224 -68 c 128,-1,43
 246 -47 246 -47 276 -47 c 0,44,45
 329 -47 329 -47 334 -86 c 1,46,-1
 333 -114 l 1,47,48
 309 -216 309 -216 240 -269 c 1,36,-1
EndSplineSet
EndChar

StartChar: u0123
Encoding: 291 291 226
Width: 570
Flags: W
LayerCount: 2
Fore
SplineSet
337 580 m 0,0,1
 278 580 278 580 278 628 c 0,2,3
 278 680 278 680 306.5 726.5 c 128,-1,4
 335 773 335 773 372 802 c 1,5,-1
 450 802 l 1,6,7
 398 762 398 762 375 708 c 1,8,9
 412 702 412 702 412 664 c 0,10,11
 412 617 412 617 388.5 598.5 c 128,-1,12
 365 580 365 580 337 580 c 0,0,1
205 -212 m 0,13,14
 67 -212 67 -212 -2 -119 c 1,15,-1
 81 -44 l 1,16,17
 123 -108 123 -108 202 -108 c 0,18,19
 306 -108 306 -108 333 21 c 2,20,-1
 355 131 l 1,21,-1
 350 131 l 1,22,23
 293 -1 293 -1 180 -1 c 0,24,25
 129 -1 129 -1 97.5 23.5 c 128,-1,26
 66 48 66 48 51.5 90 c 128,-1,27
 37 132 37 132 37 184 c 0,28,29
 37 285 37 285 66.5 364 c 128,-1,30
 96 443 96 443 151 489 c 128,-1,31
 206 535 206 535 280 535 c 0,32,33
 338 535 338 535 371 506 c 128,-1,34
 404 477 404 477 411 434 c 1,35,-1
 416 434 l 1,36,-1
 434 523 l 1,37,-1
 562 523 l 1,38,-1
 460 14 l 2,39,40
 441 -95 441 -95 382 -153.5 c 128,-1,41
 323 -212 323 -212 205 -212 c 0,13,14
240 106 m 0,42,43
 291 106 291 106 329 150.5 c 128,-1,44
 367 195 367 195 382 262 c 2,45,-1
 391 315 l 2,46,47
 397 345 397 345 397 353 c 0,48,49
 397 380 397 380 378.5 404.5 c 128,-1,50
 360 429 360 429 309 429 c 0,51,52
 209 429 209 429 185 304 c 2,53,-1
 183 293 l 2,54,55
 168 225 168 225 168 189 c 0,56,57
 168 110 168 110 240 106 c 0,42,43
EndSplineSet
EndChar

StartChar: Hcircumflex
Encoding: 292 292 227
Width: 697
Flags: W
LayerCount: 2
Fore
SplineSet
566 0 m 1,0,-1
 433 0 l 1,1,-1
 493 294 l 1,2,-1
 217 294 l 1,3,-1
 158 0 l 1,4,-1
 25 0 l 1,5,-1
 165 698 l 1,6,-1
 298 698 l 1,7,-1
 241 411 l 1,8,-1
 516 411 l 1,9,-1
 573 698 l 1,10,-1
 706 698 l 1,11,-1
 566 0 l 1,0,-1
554 743 m 1,12,-1
 457 858 l 1,13,-1
 322 743 l 1,14,-1
 257 795 l 1,15,-1
 410 951 l 1,16,-1
 527 951 l 1,17,-1
 623 795 l 1,18,-1
 554 743 l 1,12,-1
EndSplineSet
EndChar

StartChar: hcircumflex
Encoding: 293 293 228
Width: 583
Flags: W
LayerCount: 2
Fore
SplineSet
515 0 m 1,0,-1
 428 0 l 2,1,2
 392 0 392 0 370 18 c 128,-1,3
 348 36 348 36 348 73 c 0,4,5
 348 97 348 97 364 166 c 2,6,-1
 379 244 l 2,7,8
 399 331 399 331 399 369 c 0,9,10
 399 427 399 427 341 427 c 0,11,12
 291 427 291 427 252.5 380 c 128,-1,13
 214 333 214 333 201 273 c 2,14,-1
 146 0 l 1,15,-1
 18 0 l 1,16,-1
 166 740 l 1,17,-1
 294 740 l 1,18,-1
 228 405 l 1,19,-1
 233 405 l 1,20,21
 289 535 289 535 404 535 c 0,22,23
 473 535 473 535 502.5 496 c 128,-1,24
 532 457 532 457 532 398 c 0,25,26
 532 362 532 362 523 325 c 2,27,-1
 479 104 l 1,28,-1
 535 104 l 1,29,-1
 515 0 l 1,0,-1
352 746 m 1,30,-1
 254 861 l 1,31,-1
 119 746 l 1,32,-1
 55 798 l 1,33,-1
 207 953 l 1,34,-1
 324 953 l 1,35,-1
 421 798 l 1,36,-1
 352 746 l 1,30,-1
EndSplineSet
EndChar

StartChar: Hbar
Encoding: 294 294 229
Width: 706
Flags: W
LayerCount: 2
Fore
SplineSet
571 0 m 1,0,-1
 438 0 l 1,1,-1
 497 294 l 1,2,-1
 222 294 l 1,3,-1
 163 0 l 1,4,-1
 30 0 l 1,5,-1
 133 514 l 1,6,-1
 62 514 l 1,7,-1
 82 613 l 1,8,-1
 153 613 l 1,9,-1
 170 698 l 1,10,-1
 303 698 l 1,11,-1
 285 613 l 1,12,-1
 561 613 l 1,13,-1
 578 698 l 1,14,-1
 711 698 l 1,15,-1
 693 613 l 1,16,-1
 764 613 l 1,17,-1
 745 514 l 1,18,-1
 674 514 l 1,19,-1
 571 0 l 1,0,-1
521 411 m 1,20,-1
 541 514 l 1,21,-1
 266 514 l 1,22,-1
 246 411 l 1,23,-1
 521 411 l 1,20,-1
EndSplineSet
EndChar

StartChar: hbar
Encoding: 295 295 230
Width: 583
Flags: W
LayerCount: 2
Fore
SplineSet
515 0 m 1,0,-1
 428 0 l 2,1,2
 352 0 352 0 348 73 c 0,3,4
 348 96 348 96 371 203 c 0,5,6
 399 333 399 333 399 369 c 0,7,8
 399 427 399 427 341 427 c 0,9,10
 294 427 294 427 254.5 382 c 128,-1,11
 215 337 215 337 201 273 c 2,12,-1
 146 0 l 1,13,-1
 18 0 l 1,14,-1
 137 595 l 1,15,-1
 69 595 l 1,16,-1
 88 684 l 1,17,-1
 155 684 l 1,18,-1
 166 740 l 1,19,-1
 294 740 l 1,20,-1
 283 684 l 1,21,-1
 424 684 l 1,22,-1
 406 595 l 1,23,-1
 265 595 l 1,24,-1
 228 405 l 1,25,-1
 233 405 l 1,26,27
 262 468 262 468 303.5 501.5 c 128,-1,28
 345 535 345 535 404 535 c 0,29,30
 472 535 472 535 502 497.5 c 128,-1,31
 532 460 532 460 532 398 c 0,32,33
 532 359 532 359 523 325 c 2,34,-1
 479 104 l 1,35,-1
 535 104 l 1,36,-1
 515 0 l 1,0,-1
EndSplineSet
EndChar

StartChar: itilde
Encoding: 297 297 232
Width: 278
Flags: W
LayerCount: 2
Fore
SplineSet
208 0 m 1,0,-1
 122 0 l 2,1,2
 76 0 76 0 56 22.5 c 128,-1,3
 36 45 36 45 36 77 c 0,4,5
 36 84 36 84 123 523 c 1,6,-1
 251 523 l 1,7,-1
 167 104 l 1,8,-1
 228 104 l 1,9,-1
 208 0 l 1,0,-1
282 603 m 0,10,11
 259 603 259 603 242.5 609 c 128,-1,12
 226 615 226 615 209 623 c 0,13,14
 184 635 184 635 168.5 641 c 128,-1,15
 153 647 153 647 136 647 c 0,16,17
 120 647 120 647 107.5 641 c 128,-1,18
 95 635 95 635 78 622 c 1,19,-1
 37 685 l 1,20,21
 85 745 85 745 149 745 c 0,22,23
 172 745 172 745 190.5 738.5 c 128,-1,24
 209 732 209 732 224 724 c 2,25,-1
 230 721 l 2,26,27
 271 701 271 701 296 701 c 0,28,29
 311 701 311 701 324 707.5 c 128,-1,30
 337 714 337 714 354 727 c 1,31,-1
 394 663 l 1,32,33
 349 603 349 603 282 603 c 0,10,11
EndSplineSet
EndChar

StartChar: imacron
Encoding: 299 299 234
Width: 278
Flags: W
LayerCount: 2
Fore
SplineSet
208 0 m 1,0,-1
 122 0 l 2,1,2
 76 0 76 0 56 22.5 c 128,-1,3
 36 45 36 45 36 77 c 0,4,5
 36 84 36 84 123 523 c 1,6,-1
 251 523 l 1,7,-1
 167 104 l 1,8,-1
 228 104 l 1,9,-1
 208 0 l 1,0,-1
345 627 m 1,10,-1
 68 627 l 1,11,-1
 87 723 l 1,12,-1
 364 723 l 1,13,-1
 345 627 l 1,10,-1
EndSplineSet
EndChar

StartChar: ibreve
Encoding: 301 301 236
Width: 278
Flags: W
LayerCount: 2
Fore
SplineSet
208 0 m 1,0,-1
 122 0 l 2,1,2
 76 0 76 0 56 22.5 c 128,-1,3
 36 45 36 45 36 77 c 0,4,5
 36 84 36 84 123 523 c 1,6,-1
 251 523 l 1,7,-1
 167 104 l 1,8,-1
 228 104 l 1,9,-1
 208 0 l 1,0,-1
202 582 m 0,10,11
 152 582 152 582 117.5 605.5 c 128,-1,12
 83 629 83 629 63.5 666 c 128,-1,13
 44 703 44 703 39 746 c 1,14,-1
 113 783 l 1,15,-1
 129 748 l 2,16,17
 143 711 143 711 161 693.5 c 128,-1,18
 179 676 179 676 209 676 c 0,19,20
 240 676 240 676 260 695 c 128,-1,21
 280 714 280 714 308 751 c 2,22,-1
 333 783 l 1,23,-1
 409 742 l 1,24,25
 328 582 328 582 202 582 c 0,10,11
EndSplineSet
EndChar

StartChar: Iogonek
Encoding: 302 302 237
Width: 289
Flags: W
LayerCount: 2
Fore
SplineSet
58 -211 m 0,0,1
 15 -211 15 -211 -21 -192.5 c 128,-1,2
 -57 -174 -57 -174 -57 -130 c 0,3,4
 -57 -47 -57 -47 79 -4 c 1,5,-1
 78 0 l 1,6,-1
 25 0 l 1,7,-1
 166 698 l 1,8,-1
 299 698 l 1,9,-1
 158 0 l 1,10,11
 89 -42 89 -42 64 -67 c 128,-1,12
 39 -92 39 -92 39 -113 c 0,13,14
 39 -142 39 -142 74 -142 c 0,15,16
 108 -142 108 -142 128 -115 c 1,17,-1
 177 -164 l 1,18,19
 144 -211 144 -211 58 -211 c 0,0,1
EndSplineSet
EndChar

StartChar: iogonek
Encoding: 303 303 238
Width: 278
Flags: W
LayerCount: 2
Fore
SplineSet
108 -211 m 0,0,1
 61 -211 61 -211 27 -191.5 c 128,-1,2
 -7 -172 -7 -172 -7 -130 c 0,3,4
 -7 -50 -7 -50 130 -4 c 1,5,-1
 129 0 l 1,6,7
 36 0 36 0 36 77 c 0,8,9
 36 91 36 91 123 523 c 1,10,-1
 251 523 l 1,11,-1
 167 104 l 1,12,-1
 228 104 l 1,13,-1
 208 0 l 1,14,15
 142 -40 142 -40 115.5 -65 c 128,-1,16
 89 -90 89 -90 89 -113 c 0,17,18
 89 -141 89 -141 124 -142 c 0,19,20
 159 -142 159 -142 178 -115 c 1,21,-1
 227 -164 l 1,22,23
 194 -211 194 -211 108 -211 c 0,0,1
203 593 m 0,24,25
 136 593 136 593 136 642 c 0,26,27
 136 682 136 682 157 714 c 128,-1,28
 178 746 178 746 230 746 c 0,29,30
 296 746 296 746 296 697 c 0,31,32
 296 656 296 656 275.5 624.5 c 128,-1,33
 255 593 255 593 203 593 c 0,24,25
EndSplineSet
EndChar

StartChar: dotlessi
Encoding: 305 305 240
Width: 278
Flags: W
LayerCount: 2
Fore
SplineSet
208 0 m 1,0,-1
 122 0 l 2,1,2
 76 0 76 0 56 22.5 c 128,-1,3
 36 45 36 45 36 77 c 0,4,5
 36 84 36 84 123 523 c 1,6,-1
 251 523 l 1,7,-1
 167 104 l 1,8,-1
 228 104 l 1,9,-1
 208 0 l 1,0,-1
EndSplineSet
EndChar

StartChar: ij
Encoding: 307 307 242
Width: 550
Flags: W
LayerCount: 2
Fore
SplineSet
203 593 m 0,0,1
 136 593 136 593 136 642 c 0,2,3
 136 682 136 682 157 714 c 128,-1,4
 178 746 178 746 230 746 c 0,5,6
 296 746 296 746 296 697 c 0,7,8
 296 656 296 656 275.5 624.5 c 128,-1,9
 255 593 255 593 203 593 c 0,0,1
208 0 m 1,10,-1
 122 0 l 2,11,12
 76 0 76 0 56 22.5 c 128,-1,13
 36 45 36 45 36 77 c 0,14,15
 36 86 36 86 123 523 c 1,16,-1
 251 523 l 1,17,-1
 167 104 l 1,18,-1
 228 104 l 1,19,-1
 208 0 l 1,10,-1
260 -200 m 2,20,-1
 183 -200 l 1,21,-1
 204 -97 l 1,22,-1
 280 -97 l 1,23,-1
 405 523 l 1,24,-1
 533 523 l 1,25,-1
 413 -68 l 2,26,27
 390 -200 390 -200 260 -200 c 2,20,-1
484 593 m 0,28,29
 418 593 418 593 418 642 c 0,30,31
 418 683 418 683 439 714.5 c 128,-1,32
 460 746 460 746 512 746 c 0,33,34
 578 746 578 746 578 697 c 0,35,36
 578 656 578 656 557.5 624.5 c 128,-1,37
 537 593 537 593 484 593 c 0,28,29
EndSplineSet
EndChar

StartChar: Jcircumflex
Encoding: 308 308 243
Width: 529
Flags: W
LayerCount: 2
Fore
SplineSet
499 743 m 1,0,-1
 402 858 l 1,1,-1
 267 743 l 1,2,-1
 202 795 l 1,3,-1
 355 951 l 1,4,-1
 472 951 l 1,5,-1
 568 795 l 1,6,-1
 499 743 l 1,0,-1
207 -11 m 0,7,8
 107 -11 107 -11 58.5 41 c 128,-1,9
 10 93 10 93 5 175 c 1,10,-1
 131 200 l 1,11,12
 137 105 137 105 207 105 c 0,13,14
 284 105 284 105 306 203 c 2,15,-1
 405 698 l 1,16,-1
 539 698 l 1,17,-1
 436 189 l 2,18,19
 419 98 419 98 363.5 43.5 c 128,-1,20
 308 -11 308 -11 207 -11 c 0,7,8
EndSplineSet
EndChar

StartChar: jcircumflex
Encoding: 309 309 244
Width: 272
Flags: W
LayerCount: 2
Fore
SplineSet
-18 -200 m 2,0,-1
 -95 -200 l 1,1,-1
 -75 -96 l 1,2,-1
 2 -96 l 1,3,-1
 126 523 l 1,4,-1
 254 523 l 1,5,-1
 134 -68 l 1,6,7
 114 -200 114 -200 -18 -200 c 2,0,-1
322 581 m 1,8,-1
 225 696 l 1,9,-1
 90 581 l 1,10,-1
 26 634 l 1,11,-1
 178 789 l 1,12,-1
 295 789 l 1,13,-1
 391 633 l 1,14,-1
 322 581 l 1,8,-1
EndSplineSet
EndChar

StartChar: u0136
Encoding: 310 310 245
Width: 649
Flags: W
LayerCount: 2
Fore
SplineSet
587 0 m 1,0,-1
 441 0 l 1,1,-1
 314 307 l 1,2,-1
 196 189 l 1,3,-1
 158 0 l 1,4,-1
 25 0 l 1,5,-1
 165 698 l 1,6,-1
 298 698 l 1,7,-1
 230 360 l 1,8,-1
 237 360 l 1,9,-1
 349 488 l 1,10,-1
 548 698 l 1,11,-1
 710 698 l 1,12,-1
 418 397 l 1,13,-1
 587 0 l 1,0,-1
243 -269 m 1,14,-1
 165 -269 l 1,15,16
 215 -233 215 -233 240 -175 c 1,17,18
 204 -170 204 -170 204 -125 c 0,19,20
 204 -85 204 -85 227 -66 c 128,-1,21
 250 -47 250 -47 279 -47 c 0,22,23
 332 -47 332 -47 336 -86 c 2,24,-1
 337 -91 l 2,25,26
 337 -108 337 -108 331 -131 c 0,27,28
 307 -219 307 -219 243 -269 c 1,14,-1
EndSplineSet
EndChar

StartChar: u0137
Encoding: 311 311 246
Width: 544
Flags: W
LayerCount: 2
Fore
SplineSet
475 0 m 1,0,-1
 406 0 l 2,1,2
 334 0 334 0 309 75 c 128,-1,3
 284 150 284 150 257 225 c 1,4,-1
 176 149 l 1,5,-1
 146 0 l 1,6,-1
 18 0 l 1,7,-1
 166 740 l 1,8,-1
 294 740 l 1,9,-1
 206 300 l 1,10,-1
 213 300 l 1,11,-1
 289 389 l 1,12,-1
 424 523 l 1,13,-1
 573 523 l 1,14,-1
 357 311 l 1,15,-1
 435 104 l 1,16,-1
 497 104 l 1,17,-1
 475 0 l 1,0,-1
203 -269 m 1,18,-1
 125 -269 l 1,19,20
 175 -233 175 -233 200 -175 c 1,21,22
 164 -170 164 -170 164 -125 c 0,23,24
 164 -85 164 -85 187 -66 c 128,-1,25
 210 -47 210 -47 239 -47 c 0,26,27
 292 -47 292 -47 296 -86 c 2,28,-1
 297 -91 l 2,29,30
 297 -108 297 -108 291 -131 c 0,31,32
 267 -219 267 -219 203 -269 c 1,18,-1
EndSplineSet
EndChar

StartChar: kgreenlandic
Encoding: 312 312 247
Width: 551
Flags: W
LayerCount: 2
Fore
SplineSet
476 0 m 1,0,-1
 406 0 l 2,1,2
 335 0 335 0 310 74 c 128,-1,3
 285 148 285 148 260 222 c 1,4,-1
 175 144 l 1,5,-1
 146 0 l 1,6,-1
 18 0 l 1,7,-1
 123 523 l 1,8,-1
 251 523 l 1,9,-1
 205 294 l 1,10,-1
 212 294 l 1,11,-1
 295 385 l 1,12,-1
 437 523 l 1,13,-1
 586 523 l 1,14,-1
 363 307 l 1,15,-1
 435 104 l 1,16,-1
 497 104 l 1,17,-1
 476 0 l 1,0,-1
EndSplineSet
EndChar

StartChar: Lacute
Encoding: 313 313 248
Width: 506
Flags: W
LayerCount: 2
Fore
SplineSet
420 0 m 1,0,-1
 25 0 l 1,1,-1
 165 698 l 1,2,-1
 298 698 l 1,3,-1
 182 117 l 1,4,-1
 444 117 l 1,5,-1
 420 0 l 1,0,-1
260 742 m 1,6,-1
 183 784 l 1,7,-1
 299 971 l 1,8,-1
 402 915 l 1,9,-1
 260 742 l 1,6,-1
EndSplineSet
EndChar

StartChar: lacute
Encoding: 314 314 249
Width: 277
Flags: W
LayerCount: 2
Fore
SplineSet
211 0 m 1,0,-1
 121 0 l 2,1,2
 76 0 76 0 55.5 22 c 128,-1,3
 35 44 35 44 35 77 c 0,4,5
 35 85 35 85 166 740 c 1,6,-1
 294 740 l 1,7,-1
 166 104 l 1,8,-1
 232 104 l 1,9,-1
 211 0 l 1,0,-1
259 780 m 1,10,-1
 182 822 l 1,11,-1
 298 1008 l 1,12,-1
 402 953 l 1,13,-1
 259 780 l 1,10,-1
EndSplineSet
EndChar

StartChar: u013B
Encoding: 315 315 250
Width: 506
Flags: W
LayerCount: 2
Fore
SplineSet
420 0 m 1,0,-1
 25 0 l 1,1,-1
 165 698 l 1,2,-1
 298 698 l 1,3,-1
 182 117 l 1,4,-1
 444 117 l 1,5,-1
 420 0 l 1,0,-1
176 -269 m 1,6,-1
 98 -269 l 1,7,8
 146 -233 146 -233 173 -175 c 1,9,10
 136 -167 136 -167 136 -132 c 1,11,12
 141 -90 141 -90 157.5 -68.5 c 128,-1,13
 174 -47 174 -47 211 -47 c 0,14,15
 265 -47 265 -47 269 -86 c 2,16,-1
 270 -91 l 1,17,-1
 268 -114 l 1,18,19
 245 -218 245 -218 176 -269 c 1,6,-1
EndSplineSet
EndChar

StartChar: u013C
Encoding: 316 316 251
Width: 277
Flags: W
LayerCount: 2
Fore
SplineSet
211 0 m 1,0,-1
 121 0 l 2,1,2
 76 0 76 0 55.5 22 c 128,-1,3
 35 44 35 44 35 77 c 0,4,5
 35 85 35 85 166 740 c 1,6,-1
 294 740 l 1,7,-1
 166 104 l 1,8,-1
 232 104 l 1,9,-1
 211 0 l 1,0,-1
80 -269 m 1,10,-1
 2 -269 l 1,11,12
 50 -233 50 -233 77 -175 c 1,13,14
 40 -167 40 -167 40 -132 c 1,15,16
 45 -90 45 -90 61.5 -68.5 c 128,-1,17
 78 -47 78 -47 115 -47 c 0,18,19
 169 -47 169 -47 173 -86 c 2,20,-1
 174 -91 l 1,21,-1
 172 -114 l 1,22,23
 149 -218 149 -218 80 -269 c 1,10,-1
EndSplineSet
EndChar

StartChar: Lcaron
Encoding: 317 317 252
Width: 506
Flags: W
LayerCount: 2
Fore
SplineSet
420 0 m 1,0,-1
 25 0 l 1,1,-1
 165 698 l 1,2,-1
 298 698 l 1,3,-1
 182 117 l 1,4,-1
 444 117 l 1,5,-1
 420 0 l 1,0,-1
421 531 m 1,6,-1
 333 531 l 1,7,-1
 380 740 l 1,8,-1
 524 740 l 1,9,-1
 421 531 l 1,6,-1
EndSplineSet
EndChar

StartChar: lcaron
Encoding: 318 318 253
Width: 334
Flags: W
LayerCount: 2
Fore
SplineSet
211 0 m 1,0,-1
 121 0 l 2,1,2
 76 0 76 0 55.5 22 c 128,-1,3
 35 44 35 44 35 77 c 0,4,5
 35 85 35 85 166 740 c 1,6,-1
 294 740 l 1,7,-1
 166 104 l 1,8,-1
 232 104 l 1,9,-1
 211 0 l 1,0,-1
400 531 m 1,10,-1
 312 531 l 1,11,-1
 359 740 l 1,12,-1
 503 740 l 1,13,-1
 400 531 l 1,10,-1
EndSplineSet
EndChar

StartChar: Ldot
Encoding: 319 319 254
Width: 507
Flags: W
LayerCount: 2
Fore
SplineSet
420 0 m 1,0,-1
 25 0 l 1,1,-1
 165 698 l 1,2,-1
 298 698 l 1,3,-1
 182 117 l 1,4,-1
 444 117 l 1,5,-1
 420 0 l 1,0,-1
410 306 m 0,6,7
 340 306 340 306 340 360 c 0,8,9
 340 462 340 462 433 462 c 0,10,11
 503 462 503 462 503 408 c 0,12,13
 503 395 503 395 500 389 c 0,14,15
 498 349 498 349 478 327.5 c 128,-1,16
 458 306 458 306 410 306 c 0,6,7
EndSplineSet
EndChar

StartChar: ldot
Encoding: 320 320 255
Width: 405
Flags: W
LayerCount: 2
Fore
SplineSet
211 0 m 1,0,-1
 121 0 l 2,1,2
 76 0 76 0 55.5 22 c 128,-1,3
 35 44 35 44 35 77 c 0,4,5
 35 85 35 85 166 740 c 1,6,-1
 294 740 l 1,7,-1
 166 104 l 1,8,-1
 232 104 l 1,9,-1
 211 0 l 1,0,-1
342 269 m 256,10,11
 273 269 273 269 273 324 c 0,12,13
 273 350 273 350 280.5 373 c 128,-1,14
 288 396 288 396 308 410.5 c 128,-1,15
 328 425 328 425 366 425 c 0,16,17
 435 425 435 425 435 371 c 0,18,19
 435 347 435 347 426 318 c 0,20,21
 411 269 411 269 342 269 c 256,10,11
EndSplineSet
EndChar

StartChar: Lslash
Encoding: 321 321 256
Width: 516
Flags: W
LayerCount: 2
Fore
SplineSet
426 0 m 1,0,-1
 31 0 l 1,1,-1
 81 251 l 1,2,-1
 -4 226 l 1,3,-1
 18 329 l 1,4,-1
 102 354 l 1,5,-1
 171 698 l 1,6,-1
 304 698 l 1,7,-1
 244 397 l 1,8,-1
 417 450 l 1,9,-1
 396 344 l 1,10,-1
 222 292 l 1,11,-1
 188 117 l 1,12,-1
 449 117 l 1,13,-1
 426 0 l 1,0,-1
EndSplineSet
EndChar

StartChar: lslash
Encoding: 322 322 257
Width: 290
Flags: W
LayerCount: 2
Fore
SplineSet
216 0 m 1,0,-1
 123 0 l 2,1,2
 79 0 79 0 58.5 22.5 c 128,-1,3
 38 45 38 45 38 77 c 0,4,5
 38 87 38 87 81 301 c 1,6,-1
 5 276 l 1,7,-1
 24 375 l 1,8,-1
 100 401 l 1,9,-1
 169 740 l 1,10,-1
 297 740 l 1,11,-1
 238 447 l 1,12,-1
 339 481 l 1,13,-1
 320 381 l 1,14,-1
 219 348 l 1,15,-1
 171 104 l 1,16,-1
 236 104 l 1,17,-1
 216 0 l 1,0,-1
EndSplineSet
EndChar

StartChar: Nacute
Encoding: 323 323 258
Width: 697
Flags: W
LayerCount: 2
Fore
SplineSet
566 0 m 1,0,-1
 421 0 l 1,1,-1
 301 352 l 1,2,-1
 256 497 l 1,3,-1
 250 497 l 1,4,-1
 151 0 l 1,5,-1
 25 0 l 1,6,-1
 165 698 l 1,7,-1
 310 698 l 1,8,-1
 431 346 l 1,9,-1
 475 201 l 1,10,-1
 481 201 l 1,11,-1
 580 698 l 1,12,-1
 706 698 l 1,13,-1
 566 0 l 1,0,-1
462 742 m 1,14,-1
 385 784 l 1,15,-1
 501 971 l 1,16,-1
 605 915 l 1,17,-1
 462 742 l 1,14,-1
EndSplineSet
EndChar

StartChar: nacute
Encoding: 324 324 259
Width: 583
Flags: W
LayerCount: 2
Fore
SplineSet
515 0 m 1,0,-1
 428 0 l 2,1,2
 392 0 392 0 370 18 c 128,-1,3
 348 36 348 36 348 73 c 0,4,5
 348 98 348 98 365 170 c 2,6,-1
 378 235 l 2,7,8
 389 283 389 283 394 313.5 c 128,-1,9
 399 344 399 344 399 369 c 0,10,11
 399 427 399 427 341 427 c 0,12,13
 291 427 291 427 252.5 380 c 128,-1,14
 214 333 214 333 201 273 c 2,15,-1
 146 0 l 1,16,-1
 18 0 l 1,17,-1
 123 523 l 1,18,-1
 251 523 l 1,19,-1
 228 405 l 1,20,-1
 233 405 l 1,21,22
 262 468 262 468 303.5 501.5 c 128,-1,23
 345 535 345 535 404 535 c 0,24,25
 473 535 473 535 502.5 496 c 128,-1,26
 532 457 532 457 532 398 c 0,27,28
 532 352 532 352 519 305 c 2,29,-1
 479 104 l 1,30,-1
 535 104 l 1,31,-1
 515 0 l 1,0,-1
373 580 m 1,32,-1
 296 622 l 1,33,-1
 412 808 l 1,34,-1
 516 753 l 1,35,-1
 373 580 l 1,32,-1
EndSplineSet
EndChar

StartChar: u0145
Encoding: 325 325 260
Width: 697
Flags: W
LayerCount: 2
Fore
SplineSet
566 0 m 1,0,-1
 421 0 l 1,1,-1
 301 352 l 1,2,-1
 256 497 l 1,3,-1
 250 497 l 1,4,-1
 151 0 l 1,5,-1
 25 0 l 1,6,-1
 165 698 l 1,7,-1
 310 698 l 1,8,-1
 431 346 l 1,9,-1
 475 201 l 1,10,-1
 481 201 l 1,11,-1
 580 698 l 1,12,-1
 706 698 l 1,13,-1
 566 0 l 1,0,-1
249 -269 m 1,14,-1
 171 -269 l 1,15,16
 221 -233 221 -233 246 -175 c 1,17,18
 210 -170 210 -170 210 -125 c 0,19,20
 210 -85 210 -85 233 -66 c 128,-1,21
 256 -47 256 -47 285 -47 c 0,22,23
 338 -47 338 -47 342 -86 c 2,24,-1
 343 -91 l 2,25,26
 343 -108 343 -108 337 -131 c 0,27,28
 313 -219 313 -219 249 -269 c 1,14,-1
EndSplineSet
EndChar

StartChar: u0146
Encoding: 326 326 261
Width: 583
Flags: W
LayerCount: 2
Fore
SplineSet
515 0 m 1,0,-1
 428 0 l 2,1,2
 392 0 392 0 370 18 c 128,-1,3
 348 36 348 36 348 73 c 0,4,5
 348 98 348 98 365 170 c 2,6,-1
 378 235 l 2,7,8
 389 283 389 283 394 313.5 c 128,-1,9
 399 344 399 344 399 369 c 0,10,11
 399 427 399 427 341 427 c 0,12,13
 291 427 291 427 252.5 380 c 128,-1,14
 214 333 214 333 201 273 c 2,15,-1
 146 0 l 1,16,-1
 18 0 l 1,17,-1
 123 523 l 1,18,-1
 251 523 l 1,19,-1
 228 405 l 1,20,-1
 233 405 l 1,21,22
 262 468 262 468 303.5 501.5 c 128,-1,23
 345 535 345 535 404 535 c 0,24,25
 473 535 473 535 502.5 496 c 128,-1,26
 532 457 532 457 532 398 c 0,27,28
 532 352 532 352 519 305 c 2,29,-1
 479 104 l 1,30,-1
 535 104 l 1,31,-1
 515 0 l 1,0,-1
214 -269 m 1,32,-1
 136 -269 l 1,33,34
 186 -233 186 -233 211 -175 c 1,35,36
 175 -170 175 -170 175 -125 c 0,37,38
 175 -85 175 -85 198 -66 c 128,-1,39
 221 -47 221 -47 250 -47 c 0,40,41
 303 -47 303 -47 307 -86 c 2,42,-1
 308 -91 l 2,43,44
 308 -108 308 -108 302 -131 c 0,45,46
 278 -219 278 -219 214 -269 c 1,32,-1
EndSplineSet
EndChar

StartChar: Ncaron
Encoding: 327 327 262
Width: 697
Flags: W
LayerCount: 2
Fore
SplineSet
566 0 m 1,0,-1
 421 0 l 1,1,-1
 301 352 l 1,2,-1
 256 497 l 1,3,-1
 250 497 l 1,4,-1
 151 0 l 1,5,-1
 25 0 l 1,6,-1
 165 698 l 1,7,-1
 310 698 l 1,8,-1
 431 346 l 1,9,-1
 475 201 l 1,10,-1
 481 201 l 1,11,-1
 580 698 l 1,12,-1
 706 698 l 1,13,-1
 566 0 l 1,0,-1
504 752 m 1,14,-1
 387 752 l 1,15,-1
 289 907 l 1,16,-1
 358 960 l 1,17,-1
 453 844 l 1,18,-1
 590 960 l 1,19,-1
 656 907 l 1,20,-1
 504 752 l 1,14,-1
EndSplineSet
EndChar

StartChar: ncaron
Encoding: 328 328 263
Width: 583
Flags: W
LayerCount: 2
Fore
SplineSet
515 0 m 1,0,-1
 428 0 l 2,1,2
 392 0 392 0 370 18 c 128,-1,3
 348 36 348 36 348 73 c 0,4,5
 348 98 348 98 365 170 c 2,6,-1
 378 235 l 2,7,8
 389 283 389 283 394 313.5 c 128,-1,9
 399 344 399 344 399 369 c 0,10,11
 399 427 399 427 341 427 c 0,12,13
 291 427 291 427 252.5 380 c 128,-1,14
 214 333 214 333 201 273 c 2,15,-1
 146 0 l 1,16,-1
 18 0 l 1,17,-1
 123 523 l 1,18,-1
 251 523 l 1,19,-1
 228 405 l 1,20,-1
 233 405 l 1,21,22
 262 468 262 468 303.5 501.5 c 128,-1,23
 345 535 345 535 404 535 c 0,24,25
 473 535 473 535 502.5 496 c 128,-1,26
 532 457 532 457 532 398 c 0,27,28
 532 352 532 352 519 305 c 2,29,-1
 479 104 l 1,30,-1
 535 104 l 1,31,-1
 515 0 l 1,0,-1
415 590 m 1,32,-1
 298 590 l 1,33,-1
 200 745 l 1,34,-1
 269 797 l 1,35,-1
 363 682 l 1,36,-1
 501 797 l 1,37,-1
 567 745 l 1,38,-1
 415 590 l 1,32,-1
EndSplineSet
EndChar

StartChar: napostrophe
Encoding: 329 329 264
Width: 860
Flags: W
LayerCount: 2
Fore
SplineSet
165 458 m 1,0,-1
 72 458 l 1,1,2
 150 516 150 516 188 588 c 1,3,4
 140 600 140 600 140 640 c 0,5,6
 140 684 140 684 161.5 717 c 128,-1,7
 183 750 183 750 236 750 c 0,8,9
 276 750 276 750 291.5 731.5 c 128,-1,10
 307 713 307 713 307 692 c 0,11,12
 307 638 307 638 269.5 573 c 128,-1,13
 232 508 232 508 165 458 c 1,0,-1
792 0 m 1,14,-1
 705 0 l 2,15,16
 669 0 669 0 647 18 c 128,-1,17
 625 36 625 36 625 73 c 0,18,19
 625 94 625 94 648 200 c 0,20,21
 677 335 677 335 677 369 c 0,22,23
 677 427 677 427 619 427 c 0,24,25
 570 427 570 427 531 380.5 c 128,-1,26
 492 334 492 334 478 273 c 2,27,-1
 424 0 l 1,28,-1
 296 0 l 1,29,-1
 400 523 l 1,30,-1
 528 523 l 1,31,-1
 505 405 l 1,32,-1
 511 405 l 1,33,34
 540 469 540 469 581.5 502 c 128,-1,35
 623 535 623 535 682 535 c 0,36,37
 750 535 750 535 779.5 496.5 c 128,-1,38
 809 458 809 458 809 398 c 0,39,40
 809 362 809 362 800 325 c 2,41,-1
 756 104 l 1,42,-1
 812 104 l 1,43,-1
 792 0 l 1,14,-1
EndSplineSet
EndChar

StartChar: Eng
Encoding: 330 330 265
Width: 697
Flags: W
LayerCount: 2
Fore
SplineSet
396 -200 m 2,0,-1
 320 -200 l 1,1,-1
 340 -97 l 1,2,-1
 424 -97 l 1,3,-1
 443 0 l 1,4,-1
 421 0 l 1,5,6
 301 350 301 350 300 357 c 0,7,8
 291 383 291 383 256 497 c 1,9,-1
 250 497 l 1,10,-1
 151 0 l 1,11,-1
 25 0 l 1,12,-1
 165 698 l 1,13,-1
 310 698 l 1,14,-1
 440 315 l 1,15,-1
 475 201 l 1,16,-1
 481 201 l 1,17,-1
 580 698 l 1,18,-1
 706 698 l 1,19,-1
 553 -63 l 2,20,21
 539 -132 539 -132 501 -166 c 128,-1,22
 463 -200 463 -200 396 -200 c 2,0,-1
EndSplineSet
EndChar

StartChar: eng
Encoding: 331 331 266
Width: 582
Flags: W
LayerCount: 2
Fore
SplineSet
291 -200 m 2,0,-1
 214 -200 l 1,1,-1
 234 -97 l 1,2,-1
 312 -97 l 1,3,-1
 395 326 l 2,4,5
 399 345 399 345 399 365 c 0,6,7
 399 427 399 427 342 427 c 0,8,9
 305 427 305 427 277 405 c 128,-1,10
 249 383 249 383 230 350.5 c 128,-1,11
 211 318 211 318 203 284 c 2,12,-1
 146 0 l 1,13,-1
 18 0 l 1,14,-1
 123 523 l 1,15,-1
 251 523 l 1,16,-1
 228 405 l 1,17,-1
 233 405 l 1,18,19
 294 535 294 535 404 535 c 0,20,21
 532 535 532 535 532 396 c 0,22,23
 532 364 532 364 523 325 c 2,24,-1
 444 -68 l 2,25,26
 421 -200 421 -200 291 -200 c 2,0,-1
EndSplineSet
EndChar

StartChar: Omacron
Encoding: 332 332 267
Width: 692
Flags: W
LayerCount: 2
Fore
SplineSet
306 -12 m 0,0,1
 234 -12 234 -12 178 20 c 128,-1,2
 122 52 122 52 89.5 114.5 c 128,-1,3
 57 177 57 177 57 269 c 0,4,5
 57 347 57 347 80 425.5 c 128,-1,6
 103 504 103 504 148 568 c 128,-1,7
 193 632 193 632 260 671 c 128,-1,8
 327 710 327 710 415 710 c 0,9,10
 534 710 534 710 599.5 633.5 c 128,-1,11
 665 557 665 557 665 429 c 0,12,13
 665 347 665 347 641 268 c 128,-1,14
 617 189 617 189 570.5 126 c 128,-1,15
 524 63 524 63 457.5 25.5 c 128,-1,16
 391 -12 391 -12 306 -12 c 0,0,1
316 106 m 0,17,18
 402 106 402 106 447.5 162 c 128,-1,19
 493 218 493 218 507 308 c 1,20,-1
 514 338 l 2,21,22
 522 373 522 373 525.5 394.5 c 128,-1,23
 529 416 529 416 531 455 c 0,24,25
 529 592 529 592 406 592 c 0,26,27
 322 592 322 592 275.5 536.5 c 128,-1,28
 229 481 229 481 215 389 c 1,29,-1
 209 364 l 2,30,31
 191 290 191 290 191 243 c 0,32,33
 191 106 191 106 316 106 c 0,17,18
589 790 m 1,34,-1
 312 790 l 1,35,-1
 331 885 l 1,36,-1
 607 885 l 1,37,-1
 589 790 l 1,34,-1
EndSplineSet
EndChar

StartChar: omacron
Encoding: 333 333 268
Width: 544
Flags: W
LayerCount: 2
Fore
SplineSet
239 -12 m 0,0,1
 147 -12 147 -12 91 43 c 128,-1,2
 35 98 35 98 35 206 c 0,3,4
 35 290 35 290 66.5 365.5 c 128,-1,5
 98 441 98 441 158 488 c 128,-1,6
 218 535 218 535 305 535 c 0,7,8
 362 535 362 535 408.5 513 c 128,-1,9
 455 491 455 491 482 443 c 128,-1,10
 509 395 509 395 509 318 c 0,11,12
 509 222 509 222 472.5 147.5 c 128,-1,13
 436 73 436 73 374.5 30.5 c 128,-1,14
 313 -12 313 -12 239 -12 c 0,0,1
245 93 m 0,15,16
 299 93 299 93 324 130.5 c 128,-1,17
 349 168 349 168 364 233 c 2,18,-1
 378 303 l 2,19,20
 382 320 382 320 382 340 c 0,21,22
 381 431 381 431 299 431 c 0,23,24
 248 431 248 431 220 394.5 c 128,-1,25
 192 358 192 358 180 290 c 2,26,-1
 166 221 l 2,27,28
 162 204 162 204 162 183 c 0,29,30
 162 93 162 93 245 93 c 0,15,16
473 627 m 1,31,-1
 196 627 l 1,32,-1
 215 723 l 1,33,-1
 492 723 l 1,34,-1
 473 627 l 1,31,-1
EndSplineSet
EndChar

StartChar: Obreve
Encoding: 334 334 269
Width: 692
GlyphClass: 7
Flags: W
LayerCount: 2
Fore
SplineSet
306 -12 m 0,0,1
 234 -12 234 -12 178 20 c 128,-1,2
 122 52 122 52 89.5 114.5 c 128,-1,3
 57 177 57 177 57 269 c 0,4,5
 57 347 57 347 80 425.5 c 128,-1,6
 103 504 103 504 148 568 c 128,-1,7
 193 632 193 632 260 671 c 128,-1,8
 327 710 327 710 415 710 c 0,9,10
 534 710 534 710 599.5 633.5 c 128,-1,11
 665 557 665 557 665 429 c 0,12,13
 665 347 665 347 641 268 c 128,-1,14
 617 189 617 189 570.5 126 c 128,-1,15
 524 63 524 63 457.5 25.5 c 128,-1,16
 391 -12 391 -12 306 -12 c 0,0,1
316 106 m 0,17,18
 402 106 402 106 447.5 162 c 128,-1,19
 493 218 493 218 507 308 c 1,20,-1
 514 338 l 2,21,22
 522 373 522 373 525.5 394.5 c 128,-1,23
 529 416 529 416 531 455 c 0,24,25
 529 592 529 592 406 592 c 0,26,27
 322 592 322 592 275.5 536.5 c 128,-1,28
 229 481 229 481 215 389 c 1,29,-1
 209 364 l 2,30,31
 191 290 191 290 191 243 c 0,32,33
 191 106 191 106 316 106 c 0,17,18
446 744 m 0,34,35
 375 744 375 744 332 795 c 0,36,37
 292 838 292 838 283 908 c 1,38,-1
 357 945 l 1,39,40
 381 885 381 885 406 856 c 0,41,42
 420 838 420 838 453 838 c 0,43,44
 485 838 485 838 507 859 c 128,-1,45
 529 880 529 880 560 923 c 2,46,-1
 577 945 l 1,47,-1
 653 904 l 1,48,49
 574 744 574 744 446 744 c 0,34,35
EndSplineSet
EndChar

StartChar: obreve
Encoding: 335 335 270
Width: 544
Flags: W
LayerCount: 2
Fore
SplineSet
239 -12 m 0,0,1
 147 -12 147 -12 91 43 c 128,-1,2
 35 98 35 98 35 206 c 0,3,4
 35 290 35 290 66.5 365.5 c 128,-1,5
 98 441 98 441 158 488 c 128,-1,6
 218 535 218 535 305 535 c 0,7,8
 362 535 362 535 408.5 513 c 128,-1,9
 455 491 455 491 482 443 c 128,-1,10
 509 395 509 395 509 318 c 0,11,12
 509 222 509 222 472.5 147.5 c 128,-1,13
 436 73 436 73 374.5 30.5 c 128,-1,14
 313 -12 313 -12 239 -12 c 0,0,1
245 93 m 0,15,16
 299 93 299 93 324 130.5 c 128,-1,17
 349 168 349 168 364 233 c 2,18,-1
 378 303 l 2,19,20
 382 320 382 320 382 340 c 0,21,22
 381 431 381 431 299 431 c 0,23,24
 248 431 248 431 220 394.5 c 128,-1,25
 192 358 192 358 180 290 c 2,26,-1
 166 221 l 2,27,28
 162 204 162 204 162 183 c 0,29,30
 162 93 162 93 245 93 c 0,15,16
330 582 m 0,31,32
 280 582 280 582 246 605.5 c 128,-1,33
 212 629 212 629 192.5 666.5 c 128,-1,34
 173 704 173 704 168 746 c 1,35,-1
 241 783 l 1,36,-1
 258 748 l 2,37,38
 272 711 272 711 290 693.5 c 128,-1,39
 308 676 308 676 337 676 c 0,40,41
 368 676 368 676 388 695 c 128,-1,42
 408 714 408 714 436 751 c 2,43,-1
 461 783 l 1,44,-1
 538 742 l 1,45,46
 455 582 455 582 330 582 c 0,31,32
EndSplineSet
EndChar

StartChar: Ohungarumlaut
Encoding: 336 336 271
Width: 692
Flags: W
LayerCount: 2
Fore
SplineSet
306 -12 m 0,0,1
 234 -12 234 -12 178 20 c 128,-1,2
 122 52 122 52 89.5 114.5 c 128,-1,3
 57 177 57 177 57 269 c 0,4,5
 57 347 57 347 80 425.5 c 128,-1,6
 103 504 103 504 148 568 c 128,-1,7
 193 632 193 632 260 671 c 128,-1,8
 327 710 327 710 415 710 c 0,9,10
 534 710 534 710 599.5 633.5 c 128,-1,11
 665 557 665 557 665 429 c 0,12,13
 665 347 665 347 641 268 c 128,-1,14
 617 189 617 189 570.5 126 c 128,-1,15
 524 63 524 63 457.5 25.5 c 128,-1,16
 391 -12 391 -12 306 -12 c 0,0,1
316 106 m 0,17,18
 402 106 402 106 447.5 162 c 128,-1,19
 493 218 493 218 507 308 c 1,20,-1
 514 338 l 2,21,22
 522 373 522 373 525.5 394.5 c 128,-1,23
 529 416 529 416 531 455 c 0,24,25
 529 592 529 592 406 592 c 0,26,27
 322 592 322 592 275.5 536.5 c 128,-1,28
 229 481 229 481 215 389 c 1,29,-1
 209 364 l 2,30,31
 191 290 191 290 191 243 c 0,32,33
 191 106 191 106 316 106 c 0,17,18
358 743 m 1,34,-1
 287 778 l 1,35,-1
 399 967 l 1,36,-1
 496 915 l 1,37,-1
 358 743 l 1,34,-1
546 743 m 1,38,-1
 476 778 l 1,39,-1
 587 967 l 1,40,-1
 684 915 l 1,41,-1
 546 743 l 1,38,-1
EndSplineSet
EndChar

StartChar: ohungarumlaut
Encoding: 337 337 272
Width: 544
GlyphClass: 7
Flags: W
LayerCount: 2
Fore
SplineSet
239 -12 m 0,0,1
 147 -12 147 -12 91 43 c 128,-1,2
 35 98 35 98 35 206 c 0,3,4
 35 290 35 290 66.5 365.5 c 128,-1,5
 98 441 98 441 158 488 c 128,-1,6
 218 535 218 535 305 535 c 0,7,8
 362 535 362 535 408.5 513 c 128,-1,9
 455 491 455 491 482 443 c 128,-1,10
 509 395 509 395 509 318 c 0,11,12
 509 222 509 222 472.5 147.5 c 128,-1,13
 436 73 436 73 374.5 30.5 c 128,-1,14
 313 -12 313 -12 239 -12 c 0,0,1
245 93 m 0,15,16
 299 93 299 93 324 130.5 c 128,-1,17
 349 168 349 168 364 233 c 2,18,-1
 378 303 l 2,19,20
 382 320 382 320 382 340 c 0,21,22
 381 431 381 431 299 431 c 0,23,24
 248 431 248 431 220 394.5 c 128,-1,25
 192 358 192 358 180 290 c 2,26,-1
 166 221 l 2,27,28
 162 204 162 204 162 183 c 0,29,30
 162 93 162 93 245 93 c 0,15,16
248 581 m 1,31,-1
 177 616 l 1,32,-1
 289 805 l 1,33,-1
 386 753 l 1,34,-1
 248 581 l 1,31,-1
436 581 m 1,35,-1
 366 616 l 1,36,-1
 477 805 l 1,37,-1
 574 753 l 1,38,-1
 436 581 l 1,35,-1
EndSplineSet
EndChar

StartChar: OE
Encoding: 338 338 273
Width: 954
GlyphClass: 7
Flags: W
LayerCount: 2
Fore
SplineSet
301 -12 m 1,0,1
 188 -12 188 -12 122.5 64.5 c 128,-1,2
 57 141 57 141 57 280 c 0,3,4
 57 402 57 402 104 499.5 c 128,-1,5
 151 597 151 597 233 653.5 c 128,-1,6
 315 710 315 710 419 710 c 0,7,8
 482 710 482 710 548 698 c 1,9,-1
 985 698 l 1,10,-1
 961 581 l 1,11,-1
 653 581 l 1,12,-1
 619 411 l 1,13,-1
 892 411 l 1,14,-1
 869 294 l 1,15,-1
 595 294 l 1,16,-1
 560 117 l 1,17,-1
 880 117 l 1,18,-1
 856 0 l 1,19,-1
 406 0 l 1,20,-1
 301 -12 l 1,0,1
331 106 m 0,21,22
 374 106 374 106 427 120 c 1,23,-1
 519 578 l 1,24,25
 469 592 469 592 414 592 c 0,26,27
 254 592 254 592 218 403 c 2,28,-1
 204 335 l 2,29,30
 197 307 197 307 194.5 289.5 c 128,-1,31
 192 272 192 272 192 246 c 0,32,33
 192 106 192 106 331 106 c 0,21,22
EndSplineSet
EndChar

StartChar: oe
Encoding: 339 339 274
Width: 846
Flags: W
LayerCount: 2
Fore
SplineSet
245 93 m 0,0,1
 299 93 299 93 324 130.5 c 128,-1,2
 349 168 349 168 364 233 c 2,3,-1
 378 303 l 2,4,5
 382 320 382 320 382 340 c 0,6,7
 381 431 381 431 299 431 c 0,8,9
 248 431 248 431 220 394.5 c 128,-1,10
 192 358 192 358 180 290 c 2,11,-1
 166 221 l 2,12,13
 162 204 162 204 162 183 c 0,14,15
 162 93 162 93 245 93 c 0,0,1
510 294 m 1,16,17
 617 300 617 300 662 319.5 c 128,-1,18
 707 339 707 339 707 380 c 0,19,20
 707 436 707 436 645 436 c 0,21,22
 618 436 618 436 598 430 c 128,-1,23
 578 424 578 424 558 404 c 0,24,25
 525 371 525 371 514 318 c 2,26,-1
 510 294 l 1,16,17
586 -12 m 0,27,28
 463 -12 463 -12 416 77 c 1,29,-1
 410 77 l 1,30,31
 345 -12 345 -12 234 -12 c 0,32,33
 151 -12 151 -12 93 44.5 c 128,-1,34
 35 101 35 101 35 206 c 0,35,36
 35 295 35 295 68.5 370 c 128,-1,37
 102 445 102 445 162.5 490 c 128,-1,38
 223 535 223 535 306 535 c 0,39,40
 418 535 418 535 461 445 c 1,41,-1
 467 445 l 1,42,43
 536 535 536 535 649 535 c 0,44,45
 699 535 699 535 740.5 519.5 c 128,-1,46
 782 504 782 504 807 472 c 128,-1,47
 832 440 832 440 832 392 c 0,48,49
 832 216 832 216 496 210 c 1,50,51
 494 197 494 197 494 183 c 0,52,53
 494 93 494 93 589 93 c 0,54,55
 669 93 669 93 726 167 c 1,56,-1
 805 104 l 1,57,58
 720 -12 720 -12 586 -12 c 0,27,28
EndSplineSet
EndChar

StartChar: Racute
Encoding: 340 340 275
Width: 649
Flags: W
LayerCount: 2
Fore
SplineSet
551 0 m 1,0,-1
 409 0 l 1,1,-1
 335 267 l 1,2,-1
 212 267 l 1,3,-1
 158 0 l 1,4,-1
 25 0 l 1,5,-1
 165 698 l 1,6,-1
 433 698 l 2,7,8
 541 698 541 698 589 647.5 c 128,-1,9
 637 597 637 597 637 520 c 256,10,11
 637 443 637 443 593 377.5 c 128,-1,12
 549 312 549 312 463 283 c 1,13,-1
 551 0 l 1,0,-1
390 380 m 2,14,15
 430 380 430 380 454 404.5 c 128,-1,16
 478 429 478 429 488.5 462 c 128,-1,17
 499 495 499 495 499 522 c 0,18,19
 499 547 499 547 483 564 c 128,-1,20
 467 581 467 581 429 581 c 2,21,-1
 274 581 l 1,22,-1
 235 380 l 1,23,-1
 390 380 l 2,14,15
415 742 m 1,24,-1
 338 784 l 1,25,-1
 454 971 l 1,26,-1
 557 915 l 1,27,-1
 415 742 l 1,24,-1
EndSplineSet
EndChar

StartChar: racute
Encoding: 341 341 276
Width: 388
Flags: W
LayerCount: 2
Fore
SplineSet
146 0 m 1,0,-1
 18 0 l 1,1,-1
 123 523 l 1,2,-1
 251 523 l 1,3,-1
 226 399 l 1,4,-1
 233 399 l 1,5,6
 252 448 252 448 291.5 485.5 c 128,-1,7
 331 523 331 523 389 523 c 2,8,-1
 415 523 l 1,9,-1
 390 398 l 1,10,-1
 355 398 l 2,11,12
 218 398 218 398 203 282 c 1,13,-1
 146 0 l 1,0,-1
284 580 m 1,14,-1
 207 622 l 1,15,-1
 323 808 l 1,16,-1
 427 753 l 1,17,-1
 284 580 l 1,14,-1
EndSplineSet
EndChar

StartChar: u0156
Encoding: 342 342 277
Width: 649
Flags: W
LayerCount: 2
Fore
SplineSet
551 0 m 1,0,-1
 409 0 l 1,1,-1
 335 267 l 1,2,-1
 212 267 l 1,3,-1
 158 0 l 1,4,-1
 25 0 l 1,5,-1
 165 698 l 1,6,-1
 433 698 l 2,7,8
 541 698 541 698 589 647.5 c 128,-1,9
 637 597 637 597 637 520 c 256,10,11
 637 443 637 443 593 377.5 c 128,-1,12
 549 312 549 312 463 283 c 1,13,-1
 551 0 l 1,0,-1
390 380 m 2,14,15
 430 380 430 380 454 404.5 c 128,-1,16
 478 429 478 429 488.5 462 c 128,-1,17
 499 495 499 495 499 522 c 0,18,19
 499 547 499 547 483 564 c 128,-1,20
 467 581 467 581 429 581 c 2,21,-1
 274 581 l 1,22,-1
 235 380 l 1,23,-1
 390 380 l 2,14,15
235 -269 m 1,24,-1
 157 -269 l 1,25,26
 207 -233 207 -233 232 -175 c 1,27,28
 196 -170 196 -170 196 -125 c 0,29,30
 196 -85 196 -85 219 -66 c 128,-1,31
 242 -47 242 -47 271 -47 c 0,32,33
 324 -47 324 -47 328 -86 c 2,34,-1
 329 -91 l 2,35,36
 329 -108 329 -108 323 -131 c 0,37,38
 299 -219 299 -219 235 -269 c 1,24,-1
EndSplineSet
EndChar

StartChar: u0157
Encoding: 343 343 278
Width: 388
Flags: W
LayerCount: 2
Fore
SplineSet
146 0 m 1,0,-1
 18 0 l 1,1,-1
 123 523 l 1,2,-1
 251 523 l 1,3,-1
 226 399 l 1,4,-1
 233 399 l 1,5,6
 252 448 252 448 291.5 485.5 c 128,-1,7
 331 523 331 523 389 523 c 2,8,-1
 415 523 l 1,9,-1
 390 398 l 1,10,-1
 355 398 l 2,11,12
 218 398 218 398 203 282 c 1,13,-1
 146 0 l 1,0,-1
35 -269 m 1,14,-1
 -43 -269 l 1,15,16
 8 -231 8 -231 32 -175 c 1,17,18
 -5 -167 -5 -167 -5 -132 c 1,19,20
 0 -90 0 -90 16.5 -68.5 c 128,-1,21
 33 -47 33 -47 70 -47 c 0,22,23
 124 -47 124 -47 128 -86 c 2,24,-1
 129 -91 l 1,25,-1
 127 -114 l 1,26,27
 104 -218 104 -218 35 -269 c 1,14,-1
EndSplineSet
EndChar

StartChar: Rcaron
Encoding: 344 344 279
Width: 649
Flags: W
LayerCount: 2
Fore
SplineSet
551 0 m 1,0,-1
 409 0 l 1,1,-1
 335 267 l 1,2,-1
 212 267 l 1,3,-1
 158 0 l 1,4,-1
 25 0 l 1,5,-1
 165 698 l 1,6,-1
 433 698 l 2,7,8
 541 698 541 698 589 647.5 c 128,-1,9
 637 597 637 597 637 520 c 256,10,11
 637 443 637 443 593 377.5 c 128,-1,12
 549 312 549 312 463 283 c 1,13,-1
 551 0 l 1,0,-1
390 380 m 2,14,15
 430 380 430 380 454 404.5 c 128,-1,16
 478 429 478 429 488.5 462 c 128,-1,17
 499 495 499 495 499 522 c 0,18,19
 499 547 499 547 483 564 c 128,-1,20
 467 581 467 581 429 581 c 2,21,-1
 274 581 l 1,22,-1
 235 380 l 1,23,-1
 390 380 l 2,14,15
457 752 m 1,24,-1
 340 752 l 1,25,-1
 242 907 l 1,26,-1
 310 960 l 1,27,-1
 405 844 l 1,28,-1
 543 960 l 1,29,-1
 609 907 l 1,30,-1
 457 752 l 1,24,-1
EndSplineSet
EndChar

StartChar: rcaron
Encoding: 345 345 280
Width: 388
Flags: W
LayerCount: 2
Fore
SplineSet
146 0 m 1,0,-1
 18 0 l 1,1,-1
 123 523 l 1,2,-1
 251 523 l 1,3,-1
 226 399 l 1,4,-1
 233 399 l 1,5,6
 252 448 252 448 291.5 485.5 c 128,-1,7
 331 523 331 523 389 523 c 2,8,-1
 415 523 l 1,9,-1
 390 398 l 1,10,-1
 355 398 l 2,11,12
 218 398 218 398 203 282 c 1,13,-1
 146 0 l 1,0,-1
326 590 m 1,14,-1
 209 590 l 1,15,-1
 111 745 l 1,16,-1
 180 797 l 1,17,-1
 274 682 l 1,18,-1
 412 797 l 1,19,-1
 478 745 l 1,20,-1
 326 590 l 1,14,-1
EndSplineSet
EndChar

StartChar: u0162
Encoding: 354 354 289
Width: 566
Flags: W
LayerCount: 2
Fore
SplineSet
297 0 m 1,0,-1
 164 0 l 1,1,-1
 280 581 l 1,2,-1
 91 581 l 1,3,-1
 114 698 l 1,4,-1
 626 698 l 1,5,-1
 602 581 l 1,6,-1
 413 581 l 1,7,-1
 297 0 l 1,0,-1
183 -269 m 1,8,-1
 105 -269 l 1,9,10
 154 -233 154 -233 181 -175 c 1,11,12
 144 -167 144 -167 144 -132 c 0,13,14
 144 -113 144 -113 151 -96 c 0,15,16
 168 -47 168 -47 219 -47 c 0,17,18
 271 -47 271 -47 277 -86 c 0,19,20
 277 -111 277 -111 272 -131 c 0,21,22
 248 -219 248 -219 183 -269 c 1,8,-1
EndSplineSet
EndChar

